<svg width="20" height="20" viewBox="0 0 20 20" fill="none" xmlns="http://www.w3.org/2000/svg">
<path d="M14.1667 9.99996C14.1667 9.55793 14.3423 9.13401 14.6548 8.82145C14.9674 8.50889 15.3913 8.33329 15.8333 8.33329C16.2754 8.33329 16.6993 8.50889 17.0118 8.82145C17.3244 9.13401 17.5 9.55793 17.5 9.99996C17.5 10.442 17.3244 10.8659 17.0118 11.1785C16.6993 11.491 16.2754 11.6666 15.8333 11.6666C15.3913 11.6666 14.9674 11.491 14.6548 11.1785C14.3423 10.8659 14.1667 10.442 14.1667 9.99996ZM8.33333 9.99996C8.33333 9.55793 8.50893 9.13401 8.82149 8.82145C9.13405 8.50889 9.55797 8.33329 10 8.33329C10.442 8.33329 10.866 8.50889 11.1785 8.82145C11.4911 9.13401 11.6667 9.55793 11.6667 9.99996C11.6667 10.442 11.4911 10.8659 11.1785 11.1785C10.866 11.491 10.442 11.6666 10 11.6666C9.55797 11.6666 9.13405 11.491 8.82149 11.1785C8.50893 10.8659 8.33333 10.442 8.33333 9.99996ZM2.5 9.99996C2.5 9.55793 2.6756 9.13401 2.98816 8.82145C3.30072 8.50889 3.72464 8.33329 4.16667 8.33329C4.60869 8.33329 5.03262 8.50889 5.34518 8.82145C5.65774 9.13401 5.83333 9.55793 5.83333 9.99996C5.83333 10.442 5.65774 10.8659 5.34518 11.1785C5.03262 11.491 4.60869 11.6666 4.16667 11.6666C3.72464 11.6666 3.30072 11.491 2.98816 11.1785C2.6756 10.8659 2.5 10.442 2.5 9.99996Z" />
</svg>
