<svg  viewBox="0 0 21 21" fill="none" xmlns="http://www.w3.org/2000/svg">
<path d="M2.49894 7.87554C2.49885 7.15038 2.67901 6.43657 3.02322 5.79831C3.36744 5.16005 3.8649 4.61737 4.47088 4.21906C5.07685 3.82075 5.77233 3.57931 6.49476 3.51646C7.21719 3.45361 7.94392 3.57133 8.60957 3.85901C9.27522 4.14669 9.85893 4.59532 10.3082 5.16455C10.7574 5.73378 11.0582 6.40576 11.1833 7.12004C11.3084 7.83432 11.2541 8.5685 11.0251 9.25656C10.7961 9.94461 10.3996 10.565 9.87144 11.0618C10.8674 11.5451 11.7322 12.2615 12.3924 13.1502C13.0526 14.0389 13.4888 15.0736 13.6639 16.1668C13.6832 16.2884 13.6784 16.4127 13.6496 16.5324C13.6209 16.6522 13.5689 16.7651 13.4965 16.8648C13.4241 16.9644 13.3328 17.0488 13.2278 17.1132C13.1228 17.1776 13.0062 17.2206 12.8846 17.2399C12.7629 17.2592 12.6387 17.2543 12.5189 17.2256C12.3992 17.1969 12.2862 17.1448 12.1866 17.0725C12.0869 17.0001 12.0025 16.9088 11.9381 16.8038C11.8738 16.6988 11.8307 16.5822 11.8114 16.4605C11.624 15.2859 11.0238 14.2166 10.1189 13.4447C9.21394 12.6727 8.06342 12.2486 6.87394 12.2486C5.68445 12.2486 4.53393 12.6727 3.62898 13.4447C2.72402 14.2166 2.12392 15.2859 1.93644 16.4605C1.91707 16.5822 1.87393 16.6988 1.80948 16.8038C1.74504 16.9087 1.66055 17 1.56085 17.0723C1.46114 17.1446 1.34816 17.1966 1.22837 17.2252C1.10858 17.2539 0.984323 17.2587 0.862686 17.2393C0.741049 17.2199 0.624419 17.1768 0.519454 17.1123C0.414488 17.0479 0.323244 16.9634 0.25093 16.8637C0.178617 16.764 0.12665 16.651 0.0979971 16.5312C0.0693443 16.4114 0.0645664 16.2872 0.0839364 16.1655C0.259355 15.0728 0.695655 14.0385 1.35585 13.1502C2.01605 12.262 2.88067 11.546 3.87644 11.063C3.44103 10.6542 3.09412 10.1604 2.85719 9.61212C2.62025 9.06385 2.49832 8.47281 2.49894 7.87554ZM13.7489 6.00054C14.4752 6.00105 15.1857 6.21237 15.7942 6.60885C16.4027 7.00533 16.883 7.56993 17.1768 8.2341C17.4707 8.89827 17.5654 9.63346 17.4495 10.3504C17.3336 11.0674 17.0121 11.7353 16.5239 12.273C17.2848 12.6508 17.9608 13.1793 18.511 13.8266C19.0611 14.4738 19.4738 15.2263 19.7239 16.038C19.7735 16.1956 19.7805 16.3635 19.7441 16.5247C19.7078 16.6858 19.6295 16.8345 19.5172 16.9556C19.4048 17.0767 19.2624 17.1659 19.1045 17.2142C18.9465 17.2625 18.7785 17.2681 18.6177 17.2305C18.457 17.1931 18.3089 17.114 18.1885 17.0012C18.068 16.8885 17.9794 16.7459 17.9314 16.588C17.7074 15.8633 17.2992 15.2091 16.7466 14.6894C16.194 14.1697 15.516 13.8023 14.7789 13.623C14.5742 13.5736 14.3921 13.4567 14.262 13.2912C14.1318 13.1257 14.0612 12.9211 14.0614 12.7105V12.2705C14.0613 12.096 14.1099 11.9249 14.2018 11.7765C14.2937 11.6281 14.4252 11.5083 14.5814 11.4305C14.9604 11.2427 15.2647 10.9323 15.445 10.5497C15.6253 10.1671 15.6709 9.73482 15.5744 9.32302C15.478 8.91122 15.2452 8.54413 14.9138 8.28135C14.5824 8.01858 14.1719 7.87556 13.7489 7.87554C13.5003 7.87554 13.2618 7.77677 13.086 7.60095C12.9102 7.42514 12.8114 7.18668 12.8114 6.93804C12.8114 6.6894 12.9102 6.45094 13.086 6.27513C13.2618 6.09931 13.5003 6.00054 13.7489 6.00054ZM6.87394 5.37554C6.54101 5.36801 6.20994 5.42707 5.90016 5.54925C5.59037 5.67144 5.30812 5.85428 5.06997 6.08704C4.83182 6.31981 4.64258 6.59781 4.51334 6.90472C4.38411 7.21163 4.3175 7.54127 4.31742 7.87428C4.31733 8.20728 4.38378 8.53695 4.51286 8.84393C4.64194 9.1509 4.83104 9.429 5.06908 9.66188C5.30711 9.89477 5.58927 10.0778 5.89899 10.2001C6.20872 10.3224 6.53976 10.3817 6.87269 10.3743C7.52589 10.3598 8.14748 10.0903 8.6044 9.62324C9.06132 9.15622 9.31725 8.52889 9.31742 7.87553C9.31758 7.22216 9.06196 6.5947 8.60527 6.12745C8.14859 5.66021 7.52713 5.39031 6.87394 5.37554Z" />
</svg>
