<svg viewBox="0 0 24 24" fill="none" xmlns="http://www.w3.org/2000/svg">
<path d="M21 19.9993C21 20.2645 20.8946 20.5189 20.7071 20.7064C20.5196 20.894 20.2652 20.9993 20 20.9993H4C3.73478 20.9993 3.48043 20.894 3.29289 20.7064C3.10536 20.5189 3 20.2645 3 19.9993V9.48832C2.99989 9.33593 3.03462 9.18554 3.10152 9.04862C3.16841 8.9117 3.26572 8.79189 3.386 8.69832L11.386 2.47632C11.5615 2.33976 11.7776 2.26562 12 2.26562C12.2224 2.26562 12.4385 2.33976 12.614 2.47632L20.614 8.69832C20.7343 8.79189 20.8316 8.9117 20.8985 9.04862C20.9654 9.18554 21.0001 9.33593 21 9.48832V19.9993ZM19 18.9993V9.97732L12 4.53232L5 9.97732V18.9993H19Z" />
</svg>
