<svg width="23" height="23" viewBox="0 0 23 23" fill="none" xmlns="http://www.w3.org/2000/svg">
<path d="M3.83366 3.83301H19.167C20.2307 3.83301 21.0837 4.68592 21.0837 5.74967V9.58301C20.5753 9.58301 20.0878 9.78494 19.7284 10.1444C19.3689 10.5038 19.167 10.9913 19.167 11.4997C19.167 12.008 19.3689 12.4955 19.7284 12.855C20.0878 13.2144 20.5753 13.4163 21.0837 13.4163V17.2497C21.0837 18.3134 20.2307 19.1663 19.167 19.1663H3.83366C3.32533 19.1663 2.83782 18.9644 2.47837 18.605C2.11893 18.2455 1.91699 17.758 1.91699 17.2497V13.4163C2.98074 13.4163 3.83366 12.5634 3.83366 11.4997C3.83366 10.9913 3.63173 10.5038 3.27228 10.1444C2.91284 9.78494 2.42532 9.58301 1.91699 9.58301V5.74967C1.91699 5.24134 2.11893 4.75383 2.47837 4.39439C2.83782 4.03494 3.32533 3.83301 3.83366 3.83301ZM3.83366 5.74967V8.18384C4.41602 8.51964 4.89967 9.00289 5.23594 9.58497C5.57222 10.1671 5.74927 10.8274 5.74927 11.4997C5.74927 12.1719 5.57222 12.8323 5.23594 13.4144C4.89967 13.9965 4.41602 14.4797 3.83366 14.8155V17.2497H19.167V14.8155C18.5846 14.4797 18.101 13.9965 17.7647 13.4144C17.4284 12.8323 17.2514 12.1719 17.2514 11.4997C17.2514 10.8274 17.4284 10.1671 17.7647 9.58497C18.101 9.00289 18.5846 8.51964 19.167 8.18384V5.74967H3.83366Z"/>
<rect x="13" y="6" width="2" height="2" />
<rect x="13" y="9" width="2" height="2" />
<rect x="13" y="12" width="2" height="2" />
<rect x="13" y="15" width="2" height="2" />
</svg>
