<svg xmlns="http://www.w3.org/2000/svg" viewBox="0 0 34 34" fill="none">
  <path d="M13.419 9.4209C13.1506 9.68751 13 10.0482 13 10.4241C13 10.8 13.1506 11.1606 13.419 11.4272L18.5194 16.5356L13.419 21.5728C13.1506 21.8394 13 22.2 13 22.5759C13 22.9518 13.1506 23.3125 13.419 23.5791C13.5529 23.7125 13.7123 23.8183 13.8878 23.8906C14.0634 23.9628 14.2517 24 14.4419 24C14.6321 24 14.8204 23.9628 14.996 23.8906C15.1716 23.8183 15.3309 23.7125 15.4649 23.5791L21.5738 17.5459C21.7089 17.4136 21.816 17.2562 21.8892 17.0828C21.9623 16.9094 22 16.7234 22 16.5356C22 16.3477 21.9623 16.1617 21.8892 15.9883C21.816 15.8149 21.7089 15.6576 21.5738 15.5253L15.4649 9.4209C15.3309 9.28753 15.1716 9.18167 14.996 9.10943C14.8204 9.03719 14.6321 9 14.4419 9C14.2517 9 14.0634 9.03719 13.8878 9.10944C13.7123 9.18167 13.5529 9.28753 13.419 9.4209Z" />
</svg>