<svg width="28" height="22" viewBox="0 0 28 22" fill="none" xmlns="http://www.w3.org/2000/svg">
<path d="M14.6832 15.9041C14.5096 15.7316 14.4121 15.4982 14.4121 15.255C14.4121 15.0118 14.5096 14.7784 14.6832 14.6059L17.9835 11.3005L14.6832 8.04115C14.5096 7.86864 14.4121 7.63528 14.4121 7.39204C14.4121 7.1488 14.5096 6.91544 14.6832 6.74293C14.7699 6.65663 14.873 6.58813 14.9866 6.54139C15.1002 6.49465 15.2221 6.47058 15.3451 6.47058C15.4682 6.47058 15.59 6.49465 15.7037 6.54139C15.8173 6.58813 15.9204 6.65663 16.007 6.74293L19.9599 10.6468C20.0473 10.7324 20.1166 10.8342 20.1639 10.9464C20.2113 11.0586 20.2356 11.179 20.2356 11.3005C20.2356 11.4221 20.2113 11.5424 20.1639 11.6546C20.1166 11.7668 20.0473 11.8686 19.9599 11.9542L16.007 15.9041C15.9204 15.9904 15.8173 16.0589 15.7037 16.1057C15.59 16.1524 15.4682 16.1765 15.3451 16.1765C15.2221 16.1765 15.1002 16.1524 14.9866 16.1057C14.873 16.0589 14.7699 15.9904 14.6832 15.9041Z" fill="#B6B6B6"/>
<path d="M8.68321 15.9041C8.50957 15.7316 8.41211 15.4982 8.41211 15.255C8.41211 15.0118 8.50957 14.7784 8.68321 14.6059L11.9835 11.3005L8.68321 8.04115C8.50957 7.86864 8.41211 7.63528 8.41211 7.39204C8.41211 7.1488 8.50957 6.91544 8.68321 6.74293C8.76987 6.65663 8.87298 6.58813 8.98659 6.54139C9.1002 6.49465 9.22205 6.47058 9.34512 6.47058C9.46819 6.47058 9.59005 6.49465 9.70365 6.54139C9.81726 6.58813 9.92037 6.65663 10.007 6.74293L13.9599 10.6468C14.0473 10.7324 14.1166 10.8342 14.1639 10.9464C14.2113 11.0586 14.2356 11.179 14.2356 11.3005C14.2356 11.4221 14.2113 11.5424 14.1639 11.6546C14.1166 11.7668 14.0473 11.8686 13.9599 11.9542L10.007 15.9041C9.92037 15.9904 9.81726 16.0589 9.70365 16.1057C9.59005 16.1524 9.46819 16.1765 9.34512 16.1765C9.22205 16.1765 9.1002 16.1524 8.98659 16.1057C8.87299 16.0589 8.76987 15.9904 8.68321 15.9041Z" fill="#B6B6B6"/>
</svg>
