<svg xmlns="http://www.w3.org/2000/svg" width="388" height="669" viewBox="0 0 388 669" fill="none">
  <g filter="url(#filter0_d_3815_24576)">
    <path d="M5 3.5V663H9.94181C10.0096 659.97 12.403 657.53 15.3584 657.53C18.3138 657.53 20.7072 659.97 20.775 663H26.182C26.2498 659.97 28.6432 657.53 31.5986 657.53C34.554 657.53 36.9473 659.97 37.0152 663H42.4221C42.4899 659.97 44.8833 657.53 47.8387 657.53C50.7941 657.53 53.1875 659.97 53.2553 663H58.6622C58.7301 659.97 61.1235 657.53 64.0788 657.53C67.0342 657.53 69.4276 659.97 69.4955 663H74.9024C74.9702 659.97 77.3636 657.53 80.319 657.53C83.2744 657.53 85.6678 659.97 85.7356 663H91.1425C91.2104 659.97 93.6037 657.53 96.5591 657.53C99.5145 657.53 101.908 659.97 101.976 663H107.383C107.45 659.97 109.844 657.53 112.799 657.53C115.755 657.53 118.148 659.97 118.216 663H123.623C123.691 659.97 126.084 657.53 129.039 657.53C131.995 657.53 134.388 659.97 134.456 663H139.863C139.931 659.97 142.324 657.53 145.28 657.53C148.235 657.53 150.628 659.97 150.696 663H156.103C156.171 659.97 158.564 657.53 161.52 657.53C164.475 657.53 166.868 659.97 166.936 663H172.343C172.411 659.97 174.804 657.53 177.76 657.53C180.715 657.53 183.109 659.97 183.176 663H188.583C188.651 659.97 191.045 657.53 194 657.53C196.955 657.53 199.349 659.97 199.417 663H204.824C204.891 659.97 207.285 657.53 210.24 657.53C213.196 657.53 215.589 659.97 215.657 663H221.064C221.131 659.97 223.525 657.53 226.48 657.53C229.436 657.53 231.829 659.97 231.897 663H237.304C237.372 659.97 239.765 657.53 242.72 657.53C245.676 657.53 248.069 659.97 248.137 663H253.544C253.612 659.97 256.005 657.53 258.961 657.53C261.916 657.53 264.309 659.97 264.377 663H269.784C269.852 659.97 272.245 657.53 275.201 657.53C278.156 657.53 280.549 659.97 280.617 663H286.024C286.092 659.97 288.485 657.53 291.441 657.53C294.396 657.53 296.79 659.97 296.857 663H302.264C302.332 659.97 304.726 657.53 307.681 657.53C310.636 657.53 313.03 659.97 313.098 663H318.505C318.572 659.97 320.966 657.53 323.921 657.53C326.877 657.53 329.27 659.97 329.338 663H334.745C334.812 659.97 337.206 657.53 340.161 657.53C343.117 657.53 345.51 659.97 345.578 663H350.985C351.053 659.97 353.446 657.53 356.401 657.53C359.357 657.53 361.75 659.97 361.818 663H367.225C367.293 659.97 369.686 657.53 372.642 657.53C375.597 657.53 377.99 659.97 378.058 663H383V3.5H5Z" fill="white"/>
    <path d="M5 3.5V663H9.94181C10.0096 659.97 12.403 657.53 15.3584 657.53C18.3138 657.53 20.7072 659.97 20.775 663H26.182C26.2498 659.97 28.6432 657.53 31.5986 657.53C34.554 657.53 36.9473 659.97 37.0152 663H42.4221C42.4899 659.97 44.8833 657.53 47.8387 657.53C50.7941 657.53 53.1875 659.97 53.2553 663H58.6622C58.7301 659.97 61.1235 657.53 64.0788 657.53C67.0342 657.53 69.4276 659.97 69.4955 663H74.9024C74.9702 659.97 77.3636 657.53 80.319 657.53C83.2744 657.53 85.6678 659.97 85.7356 663H91.1425C91.2104 659.97 93.6037 657.53 96.5591 657.53C99.5145 657.53 101.908 659.97 101.976 663H107.383C107.45 659.97 109.844 657.53 112.799 657.53C115.755 657.53 118.148 659.97 118.216 663H123.623C123.691 659.97 126.084 657.53 129.039 657.53C131.995 657.53 134.388 659.97 134.456 663H139.863C139.931 659.97 142.324 657.53 145.28 657.53C148.235 657.53 150.628 659.97 150.696 663H156.103C156.171 659.97 158.564 657.53 161.52 657.53C164.475 657.53 166.868 659.97 166.936 663H172.343C172.411 659.97 174.804 657.53 177.76 657.53C180.715 657.53 183.109 659.97 183.176 663H188.583C188.651 659.97 191.045 657.53 194 657.53C196.955 657.53 199.349 659.97 199.417 663H204.824C204.891 659.97 207.285 657.53 210.24 657.53C213.196 657.53 215.589 659.97 215.657 663H221.064C221.131 659.97 223.525 657.53 226.48 657.53C229.436 657.53 231.829 659.97 231.897 663H237.304C237.372 659.97 239.765 657.53 242.72 657.53C245.676 657.53 248.069 659.97 248.137 663H253.544C253.612 659.97 256.005 657.53 258.961 657.53C261.916 657.53 264.309 659.97 264.377 663H269.784C269.852 659.97 272.245 657.53 275.201 657.53C278.156 657.53 280.549 659.97 280.617 663H286.024C286.092 659.97 288.485 657.53 291.441 657.53C294.396 657.53 296.79 659.97 296.857 663H302.264C302.332 659.97 304.726 657.53 307.681 657.53C310.636 657.53 313.03 659.97 313.098 663H318.505C318.572 659.97 320.966 657.53 323.921 657.53C326.877 657.53 329.27 659.97 329.338 663H334.745C334.812 659.97 337.206 657.53 340.161 657.53C343.117 657.53 345.51 659.97 345.578 663H350.985C351.053 659.97 353.446 657.53 356.401 657.53C359.357 657.53 361.75 659.97 361.818 663H367.225C367.293 659.97 369.686 657.53 372.642 657.53C375.597 657.53 377.99 659.97 378.058 663H383V3.5H5Z" stroke="#D9D9D9" stroke-miterlimit="10"/>
  </g>
  <defs>
    <filter id="filter0_d_3815_24576" x="0.5" y="0" width="387" height="668.5" filterUnits="userSpaceOnUse" color-interpolation-filters="sRGB">
      <feFlood flood-opacity="0" result="BackgroundImageFix"/>
      <feColorMatrix in="SourceAlpha" type="matrix" values="0 0 0 0 0 0 0 0 0 0 0 0 0 0 0 0 0 0 127 0" result="hardAlpha"/>
      <feOffset dy="1"/>
      <feGaussianBlur stdDeviation="2"/>
      <feComposite in2="hardAlpha" operator="out"/>
      <feColorMatrix type="matrix" values="0 0 0 0 0 0 0 0 0 0 0 0 0 0 0 0 0 0 0.25 0"/>
      <feBlend mode="normal" in2="BackgroundImageFix" result="effect1_dropShadow_3815_24576"/>
      <feBlend mode="normal" in="SourceGraphic" in2="effect1_dropShadow_3815_24576" result="shape"/>
    </filter>
  </defs>
</svg>