<svg width="21" height="21" viewBox="0 0 21 21"  xmlns="http://www.w3.org/2000/svg">
<g clip-path="url(#clip0_4222_10792)">
<path d="M10.5 1.75C15.3326 1.75 19.25 5.66738 19.25 10.5C19.25 15.3326 15.3326 19.25 10.5 19.25C5.66738 19.25 1.75 15.3326 1.75 10.5C1.75 5.66738 5.66738 1.75 10.5 1.75ZM10.5 3.5C8.64348 3.5 6.86301 4.2375 5.55025 5.55025C4.2375 6.86301 3.5 8.64348 3.5 10.5C3.5 12.3565 4.2375 14.137 5.55025 15.4497C6.86301 16.7625 8.64348 17.5 10.5 17.5C12.3565 17.5 14.137 16.7625 15.4497 15.4497C16.7625 14.137 17.5 12.3565 17.5 10.5C17.5 8.64348 16.7625 6.86301 15.4497 5.55025C14.137 4.2375 12.3565 3.5 10.5 3.5ZM13.1512 7.66237C13.2054 7.44582 13.3402 7.25813 13.5281 7.13772C13.7161 7.01731 13.943 6.97328 14.1623 7.01465C14.3816 7.05601 14.5769 7.17964 14.7081 7.36024C14.8393 7.54083 14.8965 7.76473 14.868 7.98612L14.8487 8.08763L14.6825 8.75H14.875C15.098 8.75025 15.3125 8.83564 15.4747 8.98874C15.6369 9.14184 15.7345 9.35108 15.7475 9.57372C15.7606 9.79636 15.6882 10.0156 15.545 10.1866C15.4019 10.3576 15.1988 10.4675 14.9774 10.4939L14.875 10.5H14.245L14.0263 11.375H14.875C15.098 11.3752 15.3125 11.4606 15.4747 11.6137C15.6369 11.7668 15.7345 11.9761 15.7475 12.1987C15.7606 12.4214 15.6882 12.6406 15.545 12.8116C15.4019 12.9826 15.1988 13.0925 14.9774 13.1189L14.875 13.125H13.5887L13.1714 14.7962C12.9474 15.6922 11.732 15.7745 11.3662 14.9713L11.3251 14.8662L10.5 12.3917L9.67488 14.8662C9.38263 15.7439 8.16463 15.7325 7.861 14.9039L7.82862 14.7954L7.41037 13.125H6.125C5.90198 13.1248 5.68747 13.0394 5.5253 12.8863C5.36313 12.7332 5.26554 12.5239 5.25247 12.3013C5.2394 12.0786 5.31184 11.8594 5.45498 11.6884C5.59812 11.5174 5.80117 11.4075 6.02262 11.3811L6.125 11.375H6.97375L6.755 10.5H6.125C5.90198 10.4998 5.68747 10.4144 5.5253 10.2613C5.36313 10.1082 5.26554 9.89892 5.25247 9.67628C5.2394 9.45364 5.31184 9.23442 5.45498 9.0634C5.59812 8.89238 5.80117 8.78247 6.02262 8.75612L6.125 8.75H6.3175L6.15125 8.08763C6.09754 7.87127 6.12844 7.64257 6.23764 7.44822C6.34683 7.25387 6.52609 7.10853 6.73881 7.04186C6.95154 6.9752 7.18168 6.99224 7.38227 7.08951C7.58285 7.18678 7.73875 7.35694 7.81813 7.56525L7.84875 7.66237L8.86988 11.7477L9.66962 9.3485C9.72483 9.18232 9.82864 9.03652 9.96761 8.92997C10.1066 8.82342 10.2743 8.76103 10.4491 8.75085C10.624 8.74067 10.7978 8.78318 10.9482 8.87288C11.0986 8.96258 11.2186 9.09535 11.2928 9.254L11.3304 9.3485L12.1301 11.7477L13.1512 7.66237Z" />
</g>
<defs>
<clipPath id="clip0_4222_10792">
<rect width="21" height="21" fill="white"/>
</clipPath>
</defs>
</svg>
