<svg xmlns="http://www.w3.org/2000/svg" viewBox="0 0 59 59" fill="none">
  <path d="M54.25 30.9997V51.4163C54.25 52.9634 53.6354 54.4472 52.5415 55.5411C51.4475 56.6351 49.9638 57.2497 48.4167 57.2497H7.58333C6.03624 57.2497 4.55251 56.6351 3.45854 55.5411C2.36458 54.4472 1.75 52.9634 1.75 51.4163V10.583C1.75 9.03591 2.36458 7.55218 3.45854 6.45822C4.55251 5.36426 6.03624 4.74967 7.58333 4.74967H28M39.6667 10.583H57.1667M48.4167 1.83301V19.333" stroke="white" stroke-width="3" stroke-linecap="round" stroke-linejoin="round"/>
  <path d="M19.2498 28.0827C22.4715 28.0827 25.0832 25.471 25.0832 22.2493C25.0832 19.0277 22.4715 16.416 19.2498 16.416C16.0282 16.416 13.4165 19.0277 13.4165 22.2493C13.4165 25.471 16.0282 28.0827 19.2498 28.0827Z" stroke="white" stroke-width="3" stroke-linecap="round" stroke-linejoin="round"/>
  <path d="M54.25 39.7498L45.2492 30.7489C44.1553 29.6554 42.6718 29.041 41.125 29.041C39.5782 29.041 38.0947 29.6554 37.0008 30.7489L10.5 57.2498" stroke="white" stroke-width="3" stroke-linecap="round" stroke-linejoin="round"/>
</svg>