<svg xmlns="http://www.w3.org/2000/svg" viewBox="0 0 34 34" fill="none">
  <path d="M24.5791 13.419C24.3125 13.1506 23.9518 13 23.5759 13C23.2 13 22.8394 13.1506 22.5728 13.419L17.4644 18.5194L12.4272 13.419C12.1606 13.1506 11.8 13 11.4241 13C11.0482 13 10.6875 13.1506 10.4209 13.419C10.2875 13.5529 10.1817 13.7123 10.1094 13.8878C10.0372 14.0634 10 14.2517 10 14.4419C10 14.6321 10.0372 14.8204 10.1094 14.996C10.1817 15.1716 10.2875 15.3309 10.4209 15.4649L16.4541 21.5738C16.5864 21.7089 16.7438 21.816 16.9172 21.8892C17.0906 21.9623 17.2766 22 17.4644 22C17.6523 22 17.8383 21.9623 18.0117 21.8892C18.1851 21.816 18.3424 21.7089 18.4747 21.5738L24.5791 15.4649C24.7125 15.3309 24.8183 15.1716 24.8906 14.996C24.9628 14.8204 25 14.6321 25 14.4419C25 14.2517 24.9628 14.0634 24.8906 13.8878C24.8183 13.7123 24.7125 13.5529 24.5791 13.419Z"/>
</svg>