<svg xmlns="http://www.w3.org/2000/svg" width="102" height="102" viewBox="0 0 102 102" fill="none">
  <g clip-path="url(#clip0_2271_4467)">
    <path d="M66.0945 86.6492C67.7033 86.6332 69.1245 86.8807 70.422 87.627C70.909 87.9064 71.1286 87.9863 71.3522 87.2598C72.0748 84.9169 72.9371 82.6099 73.6517 80.2709C74.7415 76.7186 76.1827 73.286 77.1728 69.7017C77.7357 67.6581 78.2626 67.4027 80.2587 68.0612C86.1072 69.9931 91.9518 71.9329 97.7963 73.8767C99.2175 74.3477 99.4411 74.8546 99.0259 76.2675C97.7524 80.5942 96.1076 84.7971 94.7223 89.0839C93.88 91.6983 93.2053 94.3765 92.0316 96.8831C91.8759 97.2104 91.9278 97.6295 91.836 97.9927C91.0935 100.946 89.4726 102.259 86.4586 101.952C84.3227 101.737 82.4544 100.779 81.4324 98.6912C80.6779 97.1465 81.0651 95.6497 81.9833 94.4004C82.9454 93.0913 84.4505 92.6562 86.0713 92.8877C87.249 93.0553 88.4107 93.3228 89.4287 94.0013C89.7042 94.1849 89.8878 94.2687 90.0475 93.7858C91.4847 89.4072 92.9418 85.0366 94.4429 80.678C94.7144 79.8917 94.4868 79.6602 93.7682 79.4327C89.0974 77.9399 84.4385 76.4033 79.7796 74.8666C79.2567 74.6949 78.9772 74.6271 78.6578 75.3056C77.3085 78.1674 76.5739 81.2408 75.536 84.2064C74.5938 86.8886 73.6676 89.5788 72.9171 92.3169C72.1027 95.2945 68.9808 96.3881 66.6773 95.5699C65.5076 95.1548 64.4098 94.6679 63.5195 93.7538C61.4755 91.6583 62.1263 88.3495 64.8569 86.7769C65.2202 86.5693 65.7631 86.6731 66.0945 86.6452V86.6492Z" fill="#8338EC"/>
    <path d="M25.4621 63.1001C24.0609 59.1207 22.6836 55.1971 21.2943 51.2816C21.1625 50.9144 20.8951 50.599 20.7673 50.2318C20.6036 49.7608 20.7593 49.0145 20.2443 48.8827C19.8212 48.771 19.2623 49.1382 18.7712 49.3098C14.296 50.8944 9.82477 52.5029 5.33757 54.0436C4.57507 54.307 4.57906 54.6782 4.8106 55.253C6.21186 58.7375 7.38555 62.3018 8.61914 65.8461C9.26587 67.7021 9.92058 69.5581 10.6711 71.3702C12.5474 75.8805 9.85272 77.968 6.56317 78.8621C3.34548 79.7322 1.12583 77.7565 0.622815 74.8787C0.431191 73.797 1.02602 72.8271 1.76058 72.0448C2.9263 70.8074 4.34751 70.0251 6.08011 69.9373C6.76677 69.9014 6.83064 69.61 6.62305 69.0313C5.19784 65.0678 3.78462 61.1004 2.38336 57.129C1.63683 55.0215 0.930212 52.9061 0.179684 50.8026C-0.215541 49.701 0.0399577 49.0264 1.14579 48.6273C4.85052 47.2862 8.55925 45.965 12.272 44.6439C14.5515 43.8336 16.843 43.0473 19.1265 42.2411C20.6116 41.7142 21.1945 41.9577 21.7055 43.4145C23.1666 47.5536 24.5918 51.7046 26.0609 55.8397C27.1947 59.0408 28.3724 62.226 29.5301 65.4191C30.5641 68.2769 29.4862 70.3405 27.043 71.5778C25.9771 72.1166 24.8473 72.412 23.6257 72.3721C21.1346 72.2843 19.2223 70.3484 19.3341 67.8618C19.394 66.5327 20.1445 65.5228 21.1825 64.7246C22.44 63.7547 23.9291 63.3715 25.4701 63.112L25.4621 63.1001Z" fill="#FF3E9A"/>
    <path d="M67.0208 39.0435C67.8511 34.5412 68.6695 30.1028 69.4799 25.6643C69.5318 25.373 69.46 25.0377 69.5757 24.7862C69.8791 24.1276 69.5718 23.9959 68.9969 23.9001C66.3341 23.4571 63.6753 22.9901 61.0165 22.5151C59.268 22.1998 57.5234 21.8446 55.7708 21.5332C55.1919 21.4295 54.657 21.2099 54.0302 21.162C53.116 21.0942 53.1639 21.6051 53.0761 22.0242C52.6968 23.8123 52.3176 25.6085 52.0541 27.4166C51.5112 31.1365 50.7726 34.8166 50.042 38.5006C49.9223 39.1113 50.0141 39.746 49.8145 40.3646C49.1278 42.52 47.6747 43.5458 45.4151 43.6855C43.7823 43.7852 42.3691 43.3342 41.0756 42.4481C39.6744 41.4902 39.0236 40.1052 39.2592 38.4128C39.4827 36.7843 40.365 35.5111 41.9739 35.0681C43.5468 34.633 45.1995 34.6769 46.7525 35.2716C47.527 35.567 47.7346 35.3435 47.8024 34.5971C47.9102 33.4316 48.0779 32.2821 48.3015 31.1206C49.1079 26.9935 49.9343 22.8704 50.6049 18.7153C50.7766 17.6456 50.9962 16.5839 51.2437 15.5302C51.4792 14.5284 52.0701 14.2729 53.0641 14.3847C56.4295 14.7559 59.6791 15.7377 63.0326 16.2047C65.891 16.6039 68.7613 17.0669 71.5559 17.8492C71.5878 17.8572 71.6157 17.8771 71.6477 17.8851C73.6957 18.38 73.7915 18.5237 73.4002 20.6871C72.4581 25.8799 71.504 31.0687 70.5698 36.2575C70.1466 38.6084 69.6795 40.9514 69.3642 43.3183C68.917 46.6271 65.863 47.5731 63.4518 47.146C62.0186 46.8906 60.6093 46.3637 59.6592 45.1423C58.5933 43.7693 58.4416 42.2565 59.1402 40.66C59.8508 39.0315 61.2241 38.4208 62.8649 38.2691C64.3101 38.1334 65.6914 38.4727 67.0287 39.0475L67.0208 39.0435Z" fill="#7CE394"/>
    <path d="M48.7961 77.7121C47.3869 76.0277 45.5545 75.896 43.5624 76.2352C42.3647 76.4388 41.1511 76.5546 39.9455 76.7022C39.179 76.798 38.4804 76.6903 38.0412 75.9479C37.634 75.2574 37.8216 74.6227 38.1969 73.9841C38.9315 72.7228 39.6181 71.4336 40.3607 70.1803C41.195 68.7634 41.2669 67.2945 40.6361 65.8217C39.9974 64.3289 39.2748 62.8681 38.5163 61.4352C38.1849 60.8085 38.1211 60.2777 38.5123 59.6909C38.9275 59.0643 39.5263 58.8328 40.2369 58.9725C41.9416 59.3078 43.6303 59.6989 45.3349 60.0262C46.84 60.3136 48.1294 59.8426 49.1315 58.7051C49.3231 58.4855 49.4987 58.3738 49.7423 58.2939C49.6624 60.3894 50.2932 62.1297 52.1935 63.2513C53.0917 63.7821 53.7744 64.5724 54.4291 65.3507C55.511 66.6399 55.3672 67.7056 54.2894 68.9589C53.439 69.9408 52.429 70.7191 51.4789 71.5773C50.6685 72.3117 49.5866 72.8585 49.371 74.1078C49.1634 75.3053 48.8001 76.4787 48.7961 77.7081V77.7121Z" fill="#FFEC3F"/>
    <path d="M23.6934 22.5156C21.9489 22.1124 20.3799 22.2441 18.9867 23.6092C17.9567 24.615 16.7431 25.4412 15.5734 26.2914C15.1023 26.6347 14.5194 26.8901 13.9086 26.5788C13.2699 26.2515 12.9226 25.7326 12.9186 24.9862C12.9106 23.1382 12.9226 21.2862 12.7629 19.4382C12.6511 18.145 12.0323 17.187 11.0103 16.4686C9.65697 15.5147 8.27967 14.5926 6.90237 13.6746C6.27959 13.2595 5.84445 12.7526 5.96421 11.9583C6.08398 11.172 6.66683 10.8088 7.35748 10.5773C8.35951 10.238 9.34558 9.82293 10.3716 9.57147C12.5952 9.02066 14.3158 7.95496 14.9067 5.58008C15.2221 5.71978 15.4536 5.96325 15.6293 6.24265C16.5594 7.70749 17.9088 8.31019 19.6174 8.40199C20.9588 8.47384 22.3082 8.70135 23.4419 9.54752C24.2164 10.1223 24.5637 10.8128 24.3841 11.8426C24.1086 13.4192 23.5976 14.908 22.9749 16.3568C22.388 17.7219 22.38 19.0271 23.0068 20.3642C23.3262 21.0507 23.6216 21.7492 23.6895 22.5195L23.6934 22.5156Z" fill="#FFEC3F"/>
    <path d="M23.6934 22.5152C23.6295 21.7449 23.3341 21.0424 23.0108 20.3599C22.384 19.0228 22.392 17.7176 22.9788 16.3525C23.6016 14.9036 24.1126 13.4109 24.3881 11.8383C24.5677 10.8085 24.2204 10.122 23.4459 9.54321C22.3081 8.69703 20.9628 8.46952 19.6214 8.39768C17.9088 8.30587 16.5634 7.70317 15.6332 6.23833C15.4576 5.96293 15.226 5.71546 14.9106 5.57576C15.2859 4.14684 15.6292 2.70994 16.0444 1.29699C16.2161 0.710256 16.4516 0.107556 17.2301 0.019745C18.0205 -0.0680657 18.6553 0.127513 19.1423 0.798066C20.0765 2.08329 21.0546 3.33659 21.9688 4.63379C22.9429 6.01082 24.3002 6.57361 25.9091 6.4858C27.5339 6.39799 29.1587 6.41795 30.7795 6.37404C31.4462 6.35408 31.9333 6.55764 32.2526 7.16034C32.576 7.77103 32.58 8.37373 32.1848 8.94051C31.3504 10.1379 30.544 11.3553 29.6458 12.5008C28.3563 14.1373 28.1207 15.8376 28.9391 17.7695C29.502 19.1026 29.8813 20.5115 30.3484 21.8846C30.544 22.4554 30.556 22.9902 30.0689 23.4213C29.542 23.8883 28.9351 24.3712 28.2166 24.0639C26.7434 23.4293 25.2065 23.0181 23.6934 22.5232V22.5152Z" fill="#FFD469"/>
    <path d="M48.7962 77.7123C48.8002 76.4829 49.1634 75.3094 49.371 74.112C49.5866 72.8627 50.6725 72.3159 51.4789 71.5815C52.429 70.7233 53.4391 69.945 54.2894 68.9631C55.3713 67.7098 55.515 66.6441 54.4291 65.3549C53.7744 64.5766 53.0917 63.7863 52.1935 63.2554C50.2932 62.1339 49.6625 60.3936 49.7423 58.2981C50.5248 57.2404 51.5308 56.4142 52.4929 55.5321C53.1915 54.8935 53.8542 54.8775 54.6447 55.1449C55.511 55.4363 55.6347 56.1348 55.5828 56.9051C55.4671 58.6733 56.034 60.3377 56.2975 62.0501C56.6048 64.0457 58.3055 64.7003 59.7746 65.5066C60.8405 66.0933 62.0262 66.4885 62.9564 67.2828C64.198 68.3365 64.0063 69.506 62.5292 70.2045C60.9883 70.9349 59.4353 71.6493 57.8704 72.3319C56.521 72.9226 55.9102 74.1041 55.6268 75.3893C55.2794 76.9818 55.1078 78.6143 54.7764 80.2189C54.509 81.5121 53.0079 82.2305 52.1057 81.3564C50.932 80.2109 49.886 78.9336 48.7842 77.7123H48.7962Z" fill="#FFD469"/>
    <path d="M90.7858 39.3552C92.0034 38.3853 93.2091 37.4074 94.4387 36.4535C94.8618 36.1262 95.3768 36.1661 95.8399 36.3417C96.3509 36.5373 96.6064 36.9683 96.6104 37.5152C96.6224 38.6088 96.6823 39.7104 96.6024 40.8001C96.4707 42.6241 97.2052 43.9094 98.7382 44.8553C99.6444 45.4141 100.571 45.957 101.369 46.6834C102.319 47.5455 102.187 48.5953 100.986 49.0583C100.004 49.4335 98.9977 49.7647 97.9757 50.0202C96.0355 50.5071 95.0495 51.8443 94.6462 53.6803C94.4387 54.6183 94.1073 55.5084 93.8119 56.4144C93.4446 57.532 92.243 57.9351 91.4246 56.8774C90.3986 55.5523 89.652 54.0236 88.4185 52.8621C88.5502 52.3192 88.7259 51.7844 88.8097 51.2336C89.0253 49.7767 89.9515 48.9425 91.201 48.3398C91.8837 48.0125 92.5384 47.6254 93.1891 47.2422C94.0794 46.7193 94.2869 46.1086 93.8758 45.1547C93.5324 44.3644 93.0015 43.6898 92.4945 42.9993C91.688 41.9017 91.0293 40.7282 90.7818 39.3672L90.7858 39.3552Z" fill="#FFD469"/>
    <path d="M90.7859 39.3551C91.0334 40.7201 91.6881 41.8896 92.4985 42.9872C93.0055 43.6777 93.5405 44.3563 93.8798 45.1426C94.295 46.0965 94.0874 46.7072 93.1932 47.2301C92.5384 47.6133 91.8837 48.0004 91.2051 48.3277C89.9555 48.9304 89.0293 49.7646 88.8137 51.2215C88.7339 51.7723 88.5582 52.3071 88.4225 52.85C87.648 52.3351 86.8017 52.1555 85.8755 52.2073C84.7856 52.2672 83.6878 52.2433 82.5939 52.2912C81.9153 52.3231 81.2965 52.1994 80.9771 51.5647C80.6897 50.998 80.9931 50.491 81.3484 50.0201C81.8873 49.3056 82.3464 48.5273 82.9373 47.8607C84.4104 46.1963 84.3385 44.4082 83.5281 42.5003C83.1568 41.6262 82.8415 40.7241 82.558 39.8181C82.2825 38.932 83.3125 38.0379 84.3106 38.3373C85.4723 38.6845 86.5981 39.1435 87.7758 39.4549C88.8058 39.7303 89.7958 39.7782 90.7859 39.3551Z" fill="#FFEC3F"/>
    <path d="M88.0354 24.311C86.3707 24.323 84.8656 23.1376 84.3626 21.2736C83.9115 19.6012 83.6201 17.8849 83.2807 16.1886C83.161 15.5898 83.5243 15.1747 84.0433 15.0909C85.3128 14.8834 86.5104 14.3086 87.8757 14.5241C89.6562 14.8075 90.8739 15.7495 91.1813 17.5456C91.4407 19.0703 91.7881 20.5671 92.1434 22.0679C92.4148 23.2174 92.1434 23.5327 90.9697 23.7243C89.9636 23.8879 88.9696 24.1234 88.0354 24.315V24.311Z" fill="#8338EC"/>
    <path d="M22.6239 79.0694C23.9812 79.1133 25.0471 79.684 25.7497 80.8575C26.6001 82.2784 27.4025 83.7233 28.2448 85.1483C28.684 85.8907 28.5922 86.4415 27.7937 86.8606C27.0033 87.2757 26.2567 87.7786 25.4583 88.1737C23.6978 89.0478 21.8494 88.6008 20.7835 86.9603C19.8134 85.4636 18.963 83.887 18.0728 82.3383C17.7175 81.7196 17.8133 81.1848 18.488 80.8495C19.8333 80.183 20.9671 79.0295 22.6199 79.0694H22.6239Z" fill="#7CE394"/>
    <path d="M41.395 8.87702C41.4469 7.2605 42.0218 6.14691 43.2634 5.47635C44.7484 4.67408 46.2735 3.94366 47.7865 3.18929C48.565 2.79813 49.1598 2.89791 49.539 3.78799C49.8904 4.61022 50.3654 5.37657 50.7088 6.19879C51.4114 7.88715 50.7567 9.86688 49.1478 10.753C47.5829 11.6151 45.9581 12.3735 44.3612 13.1797C43.974 13.3753 43.5109 13.4871 43.2833 13.0879C42.4929 11.6909 41.5228 10.3538 41.395 8.88101V8.87702Z" fill="#8338EC"/>
    <path d="M75.3162 56.7056C75.2922 57.7074 74.8411 58.5855 74.5337 59.5075C74.1864 60.5573 73.855 61.611 73.5317 62.6687C73.3121 63.3872 72.9488 63.6905 72.1544 63.3912C71.0366 62.9681 69.8429 62.7605 68.8089 62.094C67.8069 61.4474 66.9406 59.8069 67.1362 58.6654C67.4795 56.6657 68.4297 54.8576 68.9686 52.9178C69.1203 52.3749 69.6632 52.2791 70.1223 52.4188C71.3918 52.806 72.7731 52.9018 73.8351 53.8478C74.7014 54.6181 75.3601 55.4723 75.3082 56.7096L75.3162 56.7056Z" fill="#FF3E9A"/>
    <path d="M31.4663 34.2583C31.5701 35.6872 31.1189 37.0483 30.9513 38.4453C30.9153 38.7406 30.8195 39.0519 30.9034 39.3194C31.1828 40.2494 30.596 40.4769 29.9213 40.4449C28.8753 40.397 27.8094 40.3611 26.7954 40.0418C24.4959 39.3234 23.454 37.4075 23.9809 35.0406C24.2205 33.9549 24.3921 32.8453 24.4879 31.7397C24.6197 30.1911 24.8472 29.8358 26.3243 30.1232C27.1467 30.2829 27.9611 30.0593 28.7915 30.4066C30.8674 31.2727 31.4343 31.9872 31.4663 34.2543V34.2583Z" fill="#7CE394"/>
    <path d="M35.4586 93.6183C35.3468 92.1216 36.3249 91.2834 37.0714 90.3534C37.8658 89.3635 38.7721 88.4654 39.5785 87.4836C40.1494 86.7891 40.6564 86.7931 41.2791 87.3918C41.9418 88.0304 42.6684 88.6051 43.3311 89.2358C44.6845 90.525 44.8601 92.5526 43.6784 94.0175C42.5766 95.3825 41.3829 96.6717 40.2372 97.9969C39.9298 98.3521 39.4907 98.6475 39.1194 98.3282C37.9058 97.2904 36.4207 96.5001 35.754 94.9195C35.5624 94.4685 35.3108 94.0215 35.4626 93.6103L35.4586 93.6183Z" fill="#FF3E9A"/>
  </g>
  <defs>
    <clipPath id="clip0_2271_4467">
      <rect width="102" height="102" fill="white"/>
    </clipPath>
  </defs>
</svg>