<svg xmlns="http://www.w3.org/2000/svg" width="20" height="20" viewBox="0 0 20 20" fill="none">
  <path d="M4.34766 9.56543H6.43461V11.5944H4.34766V9.56543ZM4.34766 13.6234H6.43461V15.6524H4.34766V13.6234ZM8.52157 9.56543H10.6085V11.5944H8.52157V9.56543ZM8.52157 13.6234H10.6085V15.6524H8.52157V13.6234ZM12.6955 9.56543H14.7824V11.5944H12.6955V9.56543ZM12.6955 13.6234H14.7824V15.6524H12.6955V13.6234Z" fill="#8338EC"/>
  <path d="M2.1256 20H17.0048C18.1771 20 19.1304 19.103 19.1304 18V4C19.1304 2.897 18.1771 2 17.0048 2H14.8792V0H12.7536V2H6.37681V0H4.25121V2H2.1256C0.953333 2 0 2.897 0 4V18C0 19.103 0.953333 20 2.1256 20ZM17.0048 6L17.0059 18H2.1256V6H17.0048Z" fill="#8338EC"/>
</svg>