<svg viewBox="0 0 29 27" fill="none" xmlns="http://www.w3.org/2000/svg">
<path d="M28.4433 11.1836C28.3728 11.427 28.2389 11.6504 28.0532 11.8321L27.9531 11.9165L22.1182 16.8371L21.8827 17.0357L21.9542 17.3353L23.7021 24.6612L23.7024 24.6626C23.771 24.9466 23.7515 25.2438 23.646 25.5178C23.5403 25.792 23.3523 26.0328 23.1027 26.2083C22.8529 26.3839 22.5532 26.4855 22.2411 26.4986C21.9293 26.5116 21.6215 26.4355 21.3564 26.2813C21.3562 26.2811 21.3559 26.281 21.3557 26.2809L14.7444 22.4061L14.4913 22.2578L14.2384 22.4063L7.64173 26.2809C7.6414 26.2811 7.64106 26.2813 7.64073 26.2814C7.37567 26.4355 7.06797 26.5116 6.75627 26.4986C6.44419 26.4855 6.14455 26.3839 5.89474 26.2083C5.64511 26.0328 5.45709 25.792 5.35144 25.5178C5.24587 25.2438 5.22642 24.9466 5.29501 24.6626L5.29535 24.6612L7.04065 17.3428L7.11205 17.0434L6.87687 16.8448L1.04065 11.9167L1.04066 11.9167L1.03818 11.9146C0.804731 11.7201 0.638233 11.4653 0.556737 11.1836C0.47529 10.9021 0.481629 10.6039 0.575128 10.3256C0.668689 10.0471 0.846156 9.79887 1.08807 9.61353C1.33017 9.42807 1.62546 9.31447 1.93717 9.28916L1.9384 9.28906L9.63118 8.64523L9.92915 8.62029L10.0482 8.34599L13.051 1.42516L13.0514 1.42436C13.168 1.15415 13.3661 0.92056 13.6232 0.755014C13.8805 0.589359 14.1845 0.5 14.4968 0.5C14.8091 0.5 15.113 0.589359 15.3703 0.755014C15.6275 0.920559 15.8255 1.15415 15.9422 1.42436L15.9427 1.42567L18.9546 8.34649L19.0738 8.62032L19.3714 8.64523L27.0616 9.28906L27.0628 9.28916C27.3745 9.31447 27.6698 9.42807 27.9119 9.61353C28.1538 9.79887 28.3313 10.0471 28.4249 10.3256C28.5184 10.6039 28.5247 10.9021 28.4433 11.1836Z" />
</svg>
