<svg xmlns="http://www.w3.org/2000/svg" width="17" height="17" viewBox="0 0 17 17" fill="none">
  <path d="M8.21723 1.7002C7.29475 1.7002 6.3813 1.8834 5.52904 2.23936C4.67678 2.59531 3.9024 3.11704 3.2501 3.77476C1.93274 5.10309 1.19265 6.90468 1.19265 8.78322C1.18651 10.4188 1.74815 12.005 2.78021 13.2668L1.37529 14.6834C1.27782 14.783 1.21179 14.9095 1.18554 15.0469C1.15928 15.1843 1.17398 15.3264 1.22777 15.4554C1.28612 15.5829 1.3807 15.69 1.49952 15.7631C1.61833 15.8362 1.75602 15.8721 1.89511 15.8662H8.21723C10.0803 15.8662 11.867 15.12 13.1844 13.7917C14.5017 12.4633 15.2418 10.6617 15.2418 8.78322C15.2418 6.90468 14.5017 5.10309 13.1844 3.77476C11.867 2.44644 10.0803 1.7002 8.21723 1.7002ZM8.21723 14.4496H3.58803L4.24132 13.7909C4.37215 13.6582 4.44559 13.4787 4.44559 13.2916C4.44559 13.1044 4.37215 12.9249 4.24132 12.7922C3.32151 11.8658 2.74872 10.6464 2.62053 9.34192C2.49235 8.03741 2.81669 6.72844 3.53832 5.63802C4.25994 4.5476 5.3342 3.74319 6.57806 3.36185C7.82192 2.98051 9.15843 3.04583 10.3599 3.54668C11.5613 4.04752 12.5534 4.95291 13.1671 6.10859C13.7807 7.26427 13.978 8.59873 13.7253 9.88463C13.4726 11.1705 12.7855 12.3283 11.7812 13.1607C10.7768 13.9931 9.51732 14.4486 8.21723 14.4496Z" fill="white"/>
</svg>