<svg xmlns="http://www.w3.org/2000/svg" width="18" height="18" viewBox="0 0 18 18" fill="none">
  <rect x="0.5" y="0.5" width="17" height="17" rx="1" fill="white" stroke="#B6B6B6"/>
  <path d="M7.6 13.2L14.65 6.15L13.25 4.75L7.6 10.4L4.75 7.55L3.35 8.95L7.6 13.2ZM2 18C1.45 18 0.979001 17.804 0.587001 17.412C0.195002 17.02 -0.000664969 16.5493 1.69779e-06 16V2C1.69779e-06 1.45 0.196002 0.979001 0.588002 0.587001C0.980002 0.195002 1.45067 -0.000664969 2 1.69779e-06H16C16.55 1.69779e-06 17.021 0.196002 17.413 0.588002C17.805 0.980002 18.0007 1.45067 18 2V16C18 16.55 17.804 17.021 17.412 17.413C17.02 17.805 16.5493 18.0007 16 18H2Z" fill="#8338EC"/>
</svg>