<svg width="29" height="30" viewBox="0 0 29 30" fill="none" xmlns="http://www.w3.org/2000/svg">
<path d="M14.0169 3C12.4432 3 10.885 3.32331 9.43115 3.95146C7.97729 4.57962 6.65628 5.50032 5.54355 6.661C3.29628 9.0051 2.03378 12.1844 2.03378 15.4994C2.0233 18.3857 2.98139 21.1849 4.74196 23.4116L2.34534 25.9115C2.17906 26.0873 2.06643 26.3105 2.02164 26.5529C1.97685 26.7954 2.00193 27.0463 2.09369 27.2739C2.19322 27.4988 2.35457 27.6878 2.55725 27.8169C2.75994 27.946 2.99482 28.0093 3.23209 27.9989H14.0169C17.195 27.9989 20.243 26.682 22.4902 24.3379C24.7375 21.9938 26 18.8145 26 15.4994C26 12.1844 24.7375 9.0051 22.4902 6.661C20.243 4.3169 17.195 3 14.0169 3ZM14.0169 25.499H6.12002L7.23445 24.3366C7.45763 24.1024 7.58291 23.7856 7.58291 23.4553C7.58291 23.1251 7.45763 22.8083 7.23445 22.5741C5.66536 20.9393 4.68824 18.7875 4.46957 16.4854C4.2509 14.1833 4.8042 11.8734 6.03521 9.9491C7.26622 8.02483 9.09877 6.60529 11.2206 5.93234C13.3425 5.25938 15.6225 5.37465 17.672 6.2585C19.7215 7.14234 21.4139 8.74009 22.4607 10.7795C23.5075 12.8189 23.8441 15.1739 23.413 17.4431C22.9819 19.7123 21.8099 21.7555 20.0966 23.2244C18.3833 24.6933 16.2347 25.4972 14.0169 25.499Z" fill="black"/>
</svg>
