<svg viewBox="0 0 23 23" fill="none" xmlns="http://www.w3.org/2000/svg">
<path d="M14.1846 7.66634L15.3346 8.81634L8.81797 15.333L7.66797 14.183L14.1846 7.66634ZM3.83464 3.83301H19.168C20.2317 3.83301 21.0846 4.68592 21.0846 5.74967V9.58301C20.5763 9.58301 20.0888 9.78494 19.7293 10.1444C19.3699 10.5038 19.168 10.9913 19.168 11.4997C19.168 12.008 19.3699 12.4955 19.7293 12.855C20.0888 13.2144 20.5763 13.4163 21.0846 13.4163V17.2497C21.0846 18.3134 20.2317 19.1663 19.168 19.1663H3.83464C3.3263 19.1663 2.83879 18.9644 2.47935 18.605C2.1199 18.2455 1.91797 17.758 1.91797 17.2497V13.4163C2.98172 13.4163 3.83464 12.5634 3.83464 11.4997C3.83464 10.9913 3.6327 10.5038 3.27326 10.1444C2.91381 9.78494 2.4263 9.58301 1.91797 9.58301V5.74967C1.91797 5.24134 2.1199 4.75383 2.47935 4.39439C2.83879 4.03494 3.3263 3.83301 3.83464 3.83301ZM3.83464 5.74967V8.18384C4.41699 8.51964 4.90064 9.00289 5.23692 9.58497C5.5732 10.1671 5.75025 10.8274 5.75025 11.4997C5.75025 12.1719 5.5732 12.8323 5.23692 13.4144C4.90064 13.9965 4.41699 14.4797 3.83464 14.8155V17.2497H19.168V14.8155C18.5856 14.4797 18.102 13.9965 17.7657 13.4144C17.4294 12.8323 17.2524 12.1719 17.2524 11.4997C17.2524 10.8274 17.4294 10.1671 17.7657 9.58497C18.102 9.00289 18.5856 8.51964 19.168 8.18384V5.74967H3.83464ZM9.10547 7.66634C9.90089 7.66634 10.543 8.30842 10.543 9.10384C10.543 9.89926 9.90089 10.5413 9.10547 10.5413C8.31005 10.5413 7.66797 9.89926 7.66797 9.10384C7.66797 8.30842 8.31005 7.66634 9.10547 7.66634ZM13.8971 12.458C14.6926 12.458 15.3346 13.1001 15.3346 13.8955C15.3346 14.6909 14.6926 15.333 13.8971 15.333C13.1017 15.333 12.4596 14.6909 12.4596 13.8955C12.4596 13.1001 13.1017 12.458 13.8971 12.458Z"/>
</svg>
