<svg viewBox="0 0 18 19" fill="none" xmlns="http://www.w3.org/2000/svg">
<path d="M17 0H1C0.734784 0 0.48043 0.105357 0.292893 0.292893C0.105357 0.48043 0 0.734784 0 1V3.59C0 4.113 0.213 4.627 0.583 4.997L6 10.414V18C6.0002 18.1704 6.04387 18.3379 6.1269 18.4867C6.20992 18.6354 6.32955 18.7605 6.47444 18.8502C6.61934 18.9398 6.78471 18.9909 6.9549 18.9988C7.1251 19.0066 7.29447 18.9709 7.447 18.895L11.447 16.895C11.786 16.725 12 16.379 12 16V10.414L17.417 4.997C17.787 4.627 18 4.113 18 3.59V1C18 0.734784 17.8946 0.48043 17.7071 0.292893C17.5196 0.105357 17.2652 0 17 0ZM10.293 9.293C10.2 9.38571 10.1262 9.4959 10.0759 9.61724C10.0256 9.73857 9.99981 9.86866 10 10V15.382L8 16.382V10C8.00019 9.86866 7.9744 9.73857 7.92412 9.61724C7.87383 9.4959 7.80004 9.38571 7.707 9.293L2 3.59V2H16.001L16.003 3.583L10.293 9.293Z"/>
</svg>
