<svg xmlns="http://www.w3.org/2000/svg" viewBox="0 0 58 57" fill="none">
  <circle cx="29.0215" cy="28.5" r="28" fill="white" stroke="#D9D9D9"/>
  <path fill-rule="evenodd" clip-rule="evenodd" d="M43.9098 28.8566C43.9098 27.7402 43.8097 26.6682 43.6257 25.6377H28.9092V31.7256H37.3192C36.9571 33.6932 35.856 35.3597 34.2013 36.4762V40.4246H39.2521C42.2066 37.6846 43.9113 33.6502 43.9113 28.8566H43.9098Z" fill="#4285F4"/>
  <path fill-rule="evenodd" clip-rule="evenodd" d="M28.9096 44.2375C33.1286 44.2375 36.666 42.8274 39.251 40.424L34.2003 36.4756C32.8003 37.42 31.0117 37.9775 28.9081 37.9775C24.8378 37.9775 21.3931 35.2093 20.1639 31.4893H14.9453V35.5667C17.5171 40.7101 22.8004 44.2375 28.9096 44.2375Z" fill="#34A853"/>
  <path fill-rule="evenodd" clip-rule="evenodd" d="M20.1652 31.4893C19.8531 30.5448 19.675 29.5366 19.675 28.4987C19.675 27.4608 19.8531 26.4526 20.1652 25.5081V21.4307H14.9452C13.8868 23.5554 13.2832 25.9588 13.2832 28.4987C13.2832 31.0385 13.8868 33.442 14.9452 35.5667L20.1652 31.4893Z" fill="#FBBC05"/>
  <path fill-rule="evenodd" clip-rule="evenodd" d="M28.9096 19.0197C31.2031 19.0197 33.264 19.8144 34.8833 21.3727L39.3658 16.8579C36.6587 14.3196 33.1212 12.7598 28.9096 12.7598C22.8004 12.7598 17.5171 16.2871 14.9453 21.4306L20.1653 25.508C21.3945 21.7879 24.8392 19.0197 28.9096 19.0197Z" fill="#EA4335"/>
</svg>