<svg width="24" height="24" viewBox="0 0 24 24" fill="none" xmlns="http://www.w3.org/2000/svg" >
<g clip-path="url(#clip0_662_11138)">
<path transform="translate(3 3)" d="M8.5 0C6.19331 0 5.90325 0.010625 4.99694 0.051C4.09063 0.0935 3.47331 0.235875 2.9325 0.44625C2.36522 0.65962 1.8514 0.994315 1.42694 1.42694C0.994581 1.85161 0.659926 2.36538 0.44625 2.9325C0.235875 3.47225 0.0924375 4.09062 0.051 4.99375C0.010625 5.90219 0 6.19119 0 8.50106C0 10.8088 0.010625 11.0978 0.051 12.0041C0.0935 12.9094 0.235875 13.5267 0.44625 14.0675C0.664062 14.6264 0.954125 15.1002 1.42694 15.5731C1.89869 16.0459 2.37256 16.337 2.93144 16.5537C3.47331 16.7641 4.08956 16.9076 4.99481 16.949C5.90219 16.9894 6.19119 17 8.5 17C10.8088 17 11.0968 16.9894 12.0041 16.949C12.9083 16.9065 13.5278 16.7641 14.0686 16.5537C14.6355 16.3403 15.1489 16.0056 15.5731 15.5731C16.0459 15.1002 16.3359 14.6264 16.5537 14.0675C16.7631 13.5267 16.9065 12.9094 16.949 12.0041C16.9894 11.0978 17 10.8088 17 8.5C17 6.19119 16.9894 5.90219 16.949 4.99481C16.9065 4.09063 16.7631 3.47225 16.5537 2.9325C16.3401 2.36536 16.0054 1.85159 15.5731 1.42694C15.1487 0.994155 14.6349 0.659436 14.0675 0.44625C13.5256 0.235875 12.9073 0.0924375 12.0031 0.051C11.0957 0.010625 10.8077 0 8.49788 0H8.50106H8.5ZM7.73819 1.53212H8.50106C10.7706 1.53212 11.0394 1.53956 11.9351 1.581C12.7638 1.61819 13.2143 1.75738 13.5139 1.87319C13.9102 2.02725 14.1939 2.21213 14.4914 2.50962C14.7889 2.80713 14.9728 3.08975 15.1268 3.48713C15.2437 3.78569 15.3818 4.23619 15.419 5.06494C15.4604 5.96063 15.4689 6.22944 15.4689 8.49788C15.4689 10.7663 15.4604 11.0362 15.419 11.9319C15.3818 12.7606 15.2426 13.2101 15.1268 13.5097C14.9905 13.8788 14.773 14.2125 14.4904 14.4861C14.1929 14.7836 13.9103 14.9674 13.5129 15.1215C13.2154 15.2384 12.7649 15.3765 11.9351 15.4148C11.0394 15.4551 10.7706 15.4647 8.50106 15.4647C6.23156 15.4647 5.96169 15.4551 5.066 15.4148C4.23725 15.3765 3.78781 15.2384 3.48819 15.1215C3.11897 14.9854 2.78495 14.7683 2.51069 14.4861C2.2278 14.212 2.00996 13.878 1.87319 13.5086C1.75738 13.2101 1.61819 12.7596 1.581 11.9308C1.54063 11.0351 1.53212 10.7663 1.53212 8.49575C1.53212 6.22625 1.54063 5.9585 1.581 5.06281C1.61925 4.23406 1.75738 3.78356 1.87425 3.48394C2.02831 3.08763 2.21319 2.80394 2.51069 2.50644C2.80819 2.20894 3.09081 2.02513 3.48819 1.87106C3.78781 1.75419 4.23725 1.61606 5.066 1.57781C5.85013 1.54169 6.154 1.53106 7.73819 1.53V1.53212ZM13.0379 2.94313C12.904 2.94313 12.7714 2.96951 12.6476 3.02077C12.5238 3.07203 12.4114 3.14716 12.3167 3.24188C12.222 3.33659 12.1468 3.44904 12.0956 3.57279C12.0443 3.69654 12.0179 3.82918 12.0179 3.96312C12.0179 4.09707 12.0443 4.22971 12.0956 4.35346C12.1468 4.47721 12.222 4.58966 12.3167 4.68437C12.4114 4.77909 12.5238 4.85422 12.6476 4.90548C12.7714 4.95674 12.904 4.98313 13.0379 4.98313C13.3085 4.98313 13.5679 4.87566 13.7592 4.68437C13.9505 4.49309 14.0579 4.23365 14.0579 3.96312C14.0579 3.6926 13.9505 3.43316 13.7592 3.24188C13.5679 3.05059 13.3085 2.94313 13.0379 2.94313ZM8.50106 4.13525C7.92208 4.12622 7.34707 4.23245 6.80954 4.44777C6.272 4.6631 5.78267 4.9832 5.37004 5.38945C4.9574 5.7957 4.6297 6.27998 4.40602 6.81409C4.18234 7.3482 4.06714 7.92147 4.06714 8.50053C4.06714 9.07959 4.18234 9.65286 4.40602 10.187C4.6297 10.7211 4.9574 11.2054 5.37004 11.6116C5.78267 12.0179 6.272 12.338 6.80954 12.5533C7.34707 12.7686 7.92208 12.8748 8.50106 12.8658C9.64701 12.8479 10.74 12.3802 11.544 11.5635C12.3481 10.7467 12.7988 9.64662 12.7988 8.50053C12.7988 7.35444 12.3481 6.25431 11.544 5.43761C10.74 4.6209 9.64701 4.15313 8.50106 4.13525ZM8.50106 5.66631C9.2526 5.66631 9.97336 5.96486 10.5048 6.49628C11.0362 7.0277 11.3348 7.74846 11.3348 8.5C11.3348 9.25154 11.0362 9.9723 10.5048 10.5037C9.97336 11.0351 9.2526 11.3337 8.50106 11.3337C7.74952 11.3337 7.02876 11.0351 6.49734 10.5037C5.96592 9.9723 5.66738 9.25154 5.66738 8.5C5.66738 7.74846 5.96592 7.0277 6.49734 6.49628C7.02876 5.96486 7.74952 5.66631 8.50106 5.66631Z" fill="#8338EC"/>
</g>
<defs>
<clipPath id="clip0_662_11138">
<rect width="24" height="24" fill="white"/>
</clipPath>
</defs>
</svg>
