<svg xmlns="http://www.w3.org/2000/svg" width="19" height="19" viewBox="0 0 19 19" fill="none">
  <path d="M9.55538 2.50195C14.1003 2.50195 17.7846 5.37355 17.7846 8.91682C17.7846 12.4593 14.1003 15.3309 9.55538 15.3309C9.10283 15.3311 8.65073 15.3023 8.20187 15.2447L4.74717 17.5042C4.35452 17.7119 4.2158 17.6892 4.37725 17.1805L5.07634 14.2979C2.81919 13.1537 1.32617 11.1708 1.32617 8.91682C1.32617 5.37434 5.01051 2.50195 9.55538 2.50195ZM14.1849 8.81885L15.337 7.70281C15.4035 7.63377 15.4405 7.54163 15.4404 7.44578C15.4403 7.34994 15.403 7.25788 15.3364 7.189C15.2697 7.12012 15.1789 7.0798 15.0832 7.07652C14.9874 7.07325 14.8941 7.10728 14.8229 7.17144L13.3118 8.63389V7.42537C13.3118 7.32726 13.2728 7.23317 13.2035 7.1638C13.1341 7.09442 13.04 7.05545 12.9419 7.05545C12.8438 7.05545 12.7497 7.09442 12.6803 7.1638C12.6109 7.23317 12.572 7.32726 12.572 7.42537V9.42938C12.5581 9.48655 12.5581 9.5462 12.572 9.60337V10.7312C12.572 10.8293 12.6109 10.9234 12.6803 10.9927C12.7497 11.0621 12.8438 11.1011 12.9419 11.1011C13.04 11.1011 13.1341 11.0621 13.2035 10.9927C13.2728 10.9234 13.3118 10.8293 13.3118 10.7312V9.66293L13.6465 9.33925L14.7656 10.9326C14.7936 10.9724 14.8291 11.0062 14.8701 11.0323C14.9112 11.0584 14.9569 11.0761 15.0048 11.0844C15.0527 11.0928 15.1018 11.0917 15.1492 11.0811C15.1967 11.0705 15.2416 11.0507 15.2813 11.0227C15.3211 10.9948 15.355 10.9593 15.3811 10.9182C15.4071 10.8772 15.4248 10.8314 15.4332 10.7835C15.4416 10.7356 15.4404 10.6866 15.4298 10.6391C15.4192 10.5917 15.3994 10.5468 15.3715 10.507L14.1849 8.81807V8.81885ZM11.8666 10.3268H10.7224V7.43713C10.718 7.34206 10.6771 7.25235 10.6083 7.18662C10.5395 7.1209 10.448 7.08423 10.3528 7.08423C10.2577 7.08423 10.1662 7.1209 10.0973 7.18662C10.0285 7.25235 9.98768 7.34206 9.9833 7.43713V10.6967C9.9833 10.9004 10.1479 11.0666 10.3524 11.0666H11.8666C11.9647 11.0666 12.0588 11.0276 12.1282 10.9583C12.1976 10.8889 12.2365 10.7948 12.2365 10.6967C12.2365 10.5986 12.1976 10.5045 12.1282 10.4351C12.0588 10.3657 11.9647 10.3268 11.8666 10.3268ZM7.27628 9.47092L7.82176 8.13308L8.32178 9.47092H7.27628ZM9.25364 9.85338L9.25521 9.84084C9.25502 9.74765 9.21945 9.658 9.15567 9.59004L8.33589 7.39559C8.30152 7.29101 8.23606 7.19942 8.14825 7.13303C8.06045 7.06665 7.95447 7.02865 7.84449 7.0241C7.7337 7.02361 7.62539 7.05687 7.53397 7.11945C7.44254 7.18203 7.37234 7.27097 7.33271 7.37443L6.03093 10.5681C6.01256 10.6131 6.00322 10.6613 6.00346 10.7099C6.0037 10.7584 6.01351 10.8065 6.03232 10.8513C6.05113 10.8961 6.07858 10.9367 6.11311 10.9709C6.14763 11.0051 6.18855 11.0322 6.23352 11.0505C6.2785 11.0689 6.32665 11.0782 6.37524 11.078C6.42382 11.0778 6.47188 11.068 6.51668 11.0491C6.56147 11.0303 6.60212 11.0029 6.6363 10.9684C6.67049 10.9338 6.69754 10.8929 6.71591 10.8479L6.97454 10.2108H8.59687L8.83121 10.8377C8.84714 10.8846 8.87232 10.9278 8.90525 10.9648C8.93817 11.0017 8.97818 11.0317 9.02291 11.0529C9.06763 11.0741 9.11616 11.0862 9.16561 11.0883C9.21507 11.0904 9.26445 11.0826 9.31082 11.0652C9.35719 11.0479 9.39962 11.0215 9.43559 10.9875C9.47156 10.9535 9.50034 10.9126 9.52022 10.8673C9.5401 10.8219 9.55068 10.7731 9.55134 10.7236C9.55199 10.6741 9.54271 10.625 9.52403 10.5791L9.25364 9.85338ZM6.65008 7.44104C6.65008 7.34307 6.61121 7.2491 6.54201 7.17975C6.4728 7.1104 6.37891 7.07133 6.28094 7.07112H3.73772C3.63961 7.07112 3.54552 7.1101 3.47615 7.17947C3.40677 7.24884 3.3678 7.34294 3.3678 7.44104C3.3678 7.53915 3.40677 7.63325 3.47615 7.70262C3.54552 7.77199 3.63961 7.81097 3.73772 7.81097H4.64685V10.739C4.64685 10.8371 4.68583 10.9312 4.7552 11.0006C4.82457 11.0699 4.91867 11.1089 5.01678 11.1089C5.11489 11.1089 5.20898 11.0699 5.27835 11.0006C5.34772 10.9312 5.3867 10.8371 5.3867 10.739V7.81097H6.28015C6.37826 7.81097 6.47236 7.77199 6.54173 7.70262C6.6111 7.63325 6.65008 7.53915 6.65008 7.44104Z" fill="black"/>
</svg>