<svg xmlns="http://www.w3.org/2000/svg" width="22" height="22" viewBox="0 0 22 22" fill="none">
  <path d="M11.4593 22C4.25024 22 2.3241 14.4359 3.19476 9.4798C3.23266 9.26409 3.51356 9.20195 3.63597 9.38308C4.01501 9.94384 4.35231 10.7538 4.91117 10.6835C5.75116 10.5778 6.33309 3.11728 11.3114 1.01809C11.4694 0.951478 11.6347 1.07786 11.6174 1.24936C11.3712 3.68045 12.8214 7.1609 15.3905 7.1609C16.8633 7.1609 17.871 5.9778 18.3745 4.78963C18.5274 4.4287 19.0514 4.4742 19.1391 4.85654C20.0376 8.77334 22.4395 22 11.4593 22Z" fill="#FF8F1F"/>
  <path d="M9.18878 14.6278C9.35462 14.4829 9.60638 14.5824 9.64403 14.8042C9.73213 15.3233 10.0218 16.2154 10.9721 16.2154C12.1153 16.2154 12.891 12.9441 13.0945 11.982C13.128 11.8237 13.2763 11.7162 13.429 11.7485C16.2858 12.3526 17.6748 22 11.3935 22C6.82087 22 7.85679 15.7915 9.18878 14.6278ZM16.9949 4.18008C17.0956 3.36112 15.6581 5.60107 15.6581 5.60107C15.6581 5.60107 16.7541 6.13943 16.9949 4.18008ZM2.51053 16.3937C2.54083 16.0451 2.10956 15.1117 2.03321 15.4813C1.85045 16.3655 2.48023 16.7424 2.51053 16.3937Z" fill="#FFB636"/>
  <path d="M13.8825 15.0846C13.6711 14.7394 12.913 15.5411 13.0082 15.8677C13.1035 16.1942 14.3882 15.9103 13.8825 15.0846Z" fill="#FFD469"/>
</svg>