<svg xmlns="http://www.w3.org/2000/svg" viewBox="0 0 39 39" fill="none">
  <path d="M20 4C16.8355 4 13.7421 4.93838 11.1109 6.69649C8.4797 8.45459 6.42894 10.9534 5.21793 13.8771C4.00693 16.8007 3.69008 20.0177 4.30744 23.1214C4.92481 26.2251 6.44866 29.0761 8.6863 31.3137C10.9239 33.5513 13.7749 35.0752 16.8786 35.6926C19.9823 36.3099 23.1993 35.9931 26.1229 34.7821C29.0466 33.5711 31.5454 31.5203 33.3035 28.8891C35.0616 26.2579 36 23.1645 36 20C35.9955 15.7579 34.3084 11.6908 31.3088 8.69124C28.3092 5.69163 24.2421 4.00448 20 4ZM11.7046 30.6923C12.595 29.2998 13.8216 28.1539 15.2713 27.3601C16.721 26.5663 18.3472 26.1502 20 26.1502C21.6528 26.1502 23.279 26.5663 24.7287 27.3601C26.1785 28.1539 27.405 29.2998 28.2954 30.6923C25.9236 32.5369 23.0047 33.5384 20 33.5384C16.9954 33.5384 14.0764 32.5369 11.7046 30.6923ZM15.0769 18.7692C15.0769 17.7955 15.3657 16.8437 15.9066 16.0341C16.4476 15.2245 17.2164 14.5935 18.116 14.2209C19.0156 13.8483 20.0055 13.7508 20.9604 13.9407C21.9154 14.1307 22.7926 14.5996 23.4811 15.2881C24.1696 15.9766 24.6385 16.8538 24.8285 17.8088C25.0184 18.7638 24.9209 19.7536 24.5483 20.6532C24.1757 21.5528 23.5447 22.3217 22.7351 22.8626C21.9255 23.4036 20.9737 23.6923 20 23.6923C18.6943 23.6923 17.4421 23.1736 16.5189 22.2504C15.5956 21.3271 15.0769 20.0749 15.0769 18.7692ZM30.1169 28.9861C28.7443 26.997 26.8141 25.4582 24.5692 24.5631C25.7751 23.6133 26.655 22.3114 27.0867 20.8383C27.5183 19.3652 27.4802 17.7943 26.9776 16.3439C26.475 14.8935 25.5329 13.6358 24.2824 12.7457C23.0318 11.8555 21.535 11.3772 20 11.3772C18.465 11.3772 16.9682 11.8555 15.7176 12.7457C14.4671 13.6358 13.525 14.8935 13.0224 16.3439C12.5199 17.7943 12.4817 19.3652 12.9133 20.8383C13.345 22.3114 14.2249 23.6133 15.4308 24.5631C13.1859 25.4582 11.2557 26.997 9.88308 28.9861C8.14857 27.0356 7.01489 24.6253 6.61854 22.0454C6.22219 19.4655 6.58008 16.826 7.64911 14.4448C8.71814 12.0635 10.4527 10.0421 12.644 8.6239C14.8353 7.20568 17.3898 6.45115 20 6.45115C22.6102 6.45115 25.1647 7.20568 27.356 8.6239C29.5473 10.0421 31.2819 12.0635 32.3509 14.4448C33.4199 16.826 33.7778 19.4655 33.3815 22.0454C32.9851 24.6253 31.8514 27.0356 30.1169 28.9861Z" fill="#B6B6B6"/>
</svg>