<svg xmlns="http://www.w3.org/2000/svg" viewBox="0 0 22 22" fill="none">
  <path d="M19.32 7.44C19.745 7.763 20 8.2645 20 8.8V17.3C20 17.7509 19.8209 18.1833 19.5021 18.5021C19.1833 18.8209 18.7509 19 18.3 19H4.7C4.24913 19 3.81673 18.8209 3.49792 18.5021C3.17911 18.1833 3 17.7509 3 17.3V8.8C3 8.53608 3.06145 8.27579 3.17947 8.03974C3.2975 7.80368 3.46887 7.59835 3.68 7.44L10.48 2.34C10.7743 2.1193 11.1322 2 11.5 2C11.8678 2 12.2257 2.1193 12.52 2.34L19.32 7.44Z"  stroke-width="1.5" stroke-linecap="round" stroke-linejoin="round"/>
  <path d="M20 8.61108L12.3755 13.1002C12.1131 13.2525 11.8097 13.3333 11.5 13.3333C11.1903 13.3333 10.8869 13.2525 10.6245 13.1002L3 8.61108"  stroke-width="1.5" stroke-linecap="round" stroke-linejoin="round"/>
</svg>