<?xml version="1.0" encoding="utf-8"?>
<!-- Generator: Adobe Illustrator 28.0.0, SVG Export Plug-In . SVG Version: 6.00 Build 0)  -->
<svg version="1.1" id="Layer_1" xmlns="http://www.w3.org/2000/svg" xmlns:xlink="http://www.w3.org/1999/xlink" x="0px" y="0px"
	 viewBox="0 0 15 15" style="enable-background:new 0 0 15 15;" xml:space="preserve">
<style type="text/css">
	.st0{}
</style>
<g>
	<path class="st0" d="M2.844,3.781C2.96,3.898,3.116,3.963,3.281,3.963s0.321-0.064,0.438-0.181C3.834,3.666,3.9,3.507,3.9,3.344
		c0-0.165-0.064-0.32-0.182-0.438L3.25,2.437c-0.233-0.233-0.641-0.233-0.875,0C2.258,2.555,2.193,2.711,2.193,2.875
		c0,0.163,0.066,0.322,0.182,0.438L2.844,3.781z"/>
	<path class="st0" d="M11.374,3.858c0.103,0.068,0.222,0.104,0.345,0.104c0.08,0,0.16-0.016,0.237-0.047
		c0.074-0.031,0.142-0.076,0.201-0.134l0.469-0.469c0.114-0.115,0.181-0.274,0.181-0.438c0-0.166-0.064-0.321-0.181-0.438
		c-0.23-0.23-0.646-0.23-0.877,0L11.28,2.906c-0.087,0.088-0.146,0.197-0.168,0.316c-0.025,0.12-0.013,0.243,0.034,0.357
		C11.192,3.694,11.271,3.79,11.374,3.858z"/>
	<path class="st0" d="M7.5,2.556c0.165,0,0.32-0.064,0.438-0.182c0.117-0.117,0.182-0.272,0.182-0.437V1.469
		c0-0.166-0.064-0.321-0.182-0.438c-0.233-0.233-0.642-0.233-0.875,0C6.946,1.148,6.881,1.303,6.881,1.469v0.469
		c0,0.165,0.064,0.32,0.181,0.437C7.18,2.492,7.335,2.556,7.5,2.556z"/>
	<path class="st0" d="M8.073,5.078C7.992,5.064,7.913,5.065,7.83,5.083C7.75,5.101,7.675,5.134,7.609,5.181
		C7.542,5.229,7.485,5.288,7.442,5.357C7.398,5.426,7.369,5.503,7.355,5.585C7.342,5.666,7.344,5.748,7.363,5.827
		c0.019,0.08,0.052,0.154,0.101,0.221C7.511,6.114,7.571,6.17,7.642,6.214C7.713,6.258,7.79,6.286,7.868,6.298
		C8.909,6.473,9.693,7.42,9.693,8.5c0,0.162,0.066,0.321,0.182,0.438c0.116,0.115,0.275,0.182,0.438,0.182s0.321-0.066,0.438-0.182
		c0.115-0.116,0.182-0.275,0.182-0.438C10.932,6.823,9.703,5.352,8.073,5.078z"/>
	<path class="st0" d="M13.426,10.543c-0.17-0.169-0.386-0.275-0.619-0.308V8.559c0-2.937-2.362-5.343-5.267-5.365
		C6.843,3.191,6.149,3.321,5.498,3.586C4.845,3.852,4.261,4.238,3.762,4.734C3.262,5.23,2.872,5.811,2.601,6.46
		C2.331,7.11,2.194,7.797,2.194,8.5v1.735c-0.232,0.033-0.453,0.142-0.619,0.308c-0.206,0.206-0.318,0.479-0.318,0.77v1.406
		c0,0.286,0.116,0.566,0.318,0.77c0.202,0.202,0.482,0.318,0.769,0.318h10.312c0.291,0,0.563-0.113,0.77-0.318
		c0.202-0.203,0.318-0.483,0.318-0.77v-1.406C13.744,11.022,13.631,10.749,13.426,10.543z M3.431,10.225V8.5
		c0-1.087,0.423-2.109,1.192-2.877c0.769-0.768,1.79-1.191,2.908-1.191c2.227,0.016,4.037,1.868,4.037,4.127v1.666H3.431z
		 M12.506,11.463v1.105H2.494v-1.105H12.506z"/>
</g>
</svg>
