<svg xmlns="http://www.w3.org/2000/svg"  viewBox="0 0 22 22" fill="none">
  <path d="M18.333 1.8335H3.66634C2.65801 1.8335 1.84217 2.6585 1.84217 3.66683L1.83301 20.1668L5.49967 16.5002H18.333C19.3413 16.5002 20.1663 15.6752 20.1663 14.6668V3.66683C20.1663 2.6585 19.3413 1.8335 18.333 1.8335ZM18.333 14.6668H4.73884L4.19801 15.2077L3.66634 15.7393V3.66683H18.333V14.6668ZM9.62467 12.8335H16.4997V11.0002H11.458L9.62467 12.8335ZM13.163 7.45266C13.3463 7.26933 13.3463 6.98516 13.163 6.80183L11.5405 5.17933C11.3572 4.996 11.073 4.996 10.8897 5.17933L5.49967 10.5693V12.8335H7.76384L13.163 7.45266Z" />
</svg>