<svg xmlns="http://www.w3.org/2000/svg" width="22" height="22" viewBox="0 0 22 22" fill="none">
  <path d="M15.3127 16.5103C14.9636 16.7413 14.6539 16.9592 14.3354 17.1553C13.8947 17.4299 13.4192 17.6304 12.9262 17.796C12.359 17.9878 11.7744 18.1229 11.1767 18.1709C10.6924 18.2101 10.2037 18.2014 9.72381 18.1752C9.08247 18.1404 8.45858 17.9922 7.85214 17.7786C7.17153 17.5389 6.53455 17.212 5.94992 16.7848C5.56599 16.5059 5.19514 16.2139 4.86793 15.8739C3.99535 14.976 3.37582 13.93 3.00062 12.7357C2.79556 12.0863 2.6734 11.4194 2.64722 10.7395C2.59923 9.61931 2.79556 8.53837 3.21876 7.50103C3.5547 6.67725 4.02153 5.92757 4.61924 5.25635C5.5529 4.20593 6.69597 3.46061 8.03974 3.02039C8.85996 2.75451 9.70636 2.62376 10.5702 2.64119C11.6435 2.66734 12.6688 2.90271 13.6504 3.34728C14.8197 3.87903 15.7926 4.65922 16.5779 5.67042C17.3458 6.6511 17.8344 7.76254 18.07 8.98731C18.2096 9.71956 18.2445 10.4518 18.1747 11.1884C18.0787 12.2127 17.7908 13.1846 17.2978 14.0912C17.084 14.4879 16.8528 14.8714 16.5561 15.2158C16.5081 15.2724 16.5343 15.2986 16.5735 15.3334C16.8309 15.5906 17.0884 15.8434 17.3458 16.1005C18.4932 17.2469 19.645 18.3975 20.7924 19.5438C21.0411 19.7923 21.1764 20.0843 21.0978 20.4286C21.0237 20.7599 20.8012 20.9865 20.4696 21.0824C20.1511 21.174 19.8675 21.0955 19.6319 20.8601C18.2576 19.4872 16.8833 18.1142 15.5134 16.7413C15.4348 16.6628 15.365 16.58 15.3039 16.5103H15.3127ZM16.4688 10.4823C16.4906 7.06953 13.7726 4.40642 10.4611 4.38899C7.05373 4.3672 4.35747 7.12183 4.37492 10.478C4.39237 13.7556 7.05373 16.4056 10.2953 16.4667C13.7071 16.532 16.4732 13.7818 16.4688 10.4823Z" fill="black"/>
</svg>