<svg  viewBox="0 0 21 21" fill="none" xmlns="http://www.w3.org/2000/svg">
<path fill-rule="evenodd" clip-rule="evenodd" d="M12.0776 4.66638C12.0776 3.05638 13.3901 1.75001 15.0071 1.75001C15.391 1.74909 15.7714 1.82379 16.1264 1.96986C16.4814 2.11592 16.8042 2.33048 17.0763 2.60129C17.3484 2.8721 17.5645 3.19386 17.7123 3.54819C17.8601 3.90252 17.9366 4.28248 17.9375 4.66638C17.9375 6.27726 16.625 7.58363 15.0071 7.58363C14.6191 7.58411 14.2349 7.50747 13.8768 7.35816C13.5187 7.20884 13.1939 6.98984 12.9211 6.71388L8.8655 9.47538C8.97845 10.038 8.92306 10.6214 8.70625 11.1528L13.153 14.0753C13.6768 13.6481 14.3322 13.4153 15.008 13.4164C15.3919 13.4156 15.7722 13.4904 16.1272 13.6366C16.4822 13.7827 16.8049 13.9974 17.0769 14.2683C17.349 14.5392 17.565 14.861 17.7126 15.2154C17.8603 15.5697 17.9367 15.9497 17.9375 16.3336C17.9375 17.9436 16.625 19.25 15.0071 19.25C14.2319 19.2516 13.4879 18.9453 12.9385 18.3984C12.3891 17.8515 12.0795 17.1088 12.0776 16.3336C12.0769 15.9247 12.1631 15.5203 12.3305 15.1471L7.91875 12.25C7.38448 12.7146 6.69998 12.9698 5.992 12.9684C5.60806 12.9693 5.22771 12.8946 4.87267 12.7484C4.51763 12.6023 4.19486 12.3877 3.92281 12.1167C3.65076 11.8458 3.43475 11.524 3.28714 11.1695C3.13952 10.8151 3.06319 10.4351 3.0625 10.0511C3.0633 9.66727 3.13972 9.28733 3.28739 8.933C3.43505 8.57868 3.65108 8.25692 3.92312 7.9861C4.19516 7.71527 4.51789 7.5007 4.87287 7.35462C5.22786 7.20855 5.60814 7.13384 5.992 7.13476C6.923 7.13476 7.75075 7.56613 8.28712 8.23813L12.2185 5.56151C12.125 5.27235 12.0774 4.97029 12.0776 4.66638Z"/>
</svg>
