<svg xmlns="http://www.w3.org/2000/svg" viewBox="0 0 22 11" fill="none">
  <path d="M10.4855 7.73512C9.93445 7.73512 9.39437 7.73512 8.8547 7.73512C8.60589 7.73512 8.35747 7.73314 8.10866 7.73592C8.05049 7.73671 8.02022 7.71885 8.00017 7.66289C7.96598 7.56725 7.92313 7.47477 7.8854 7.38071C7.81111 7.19736 7.77062 7.00368 7.72031 6.81279C7.66803 6.61554 7.64013 6.41393 7.60514 6.21311C7.56426 5.97777 7.57488 5.74044 7.56308 5.5035C7.54893 5.2118 7.5678 4.9197 7.61811 4.63713C7.68572 4.25613 7.78713 3.8799 7.92706 3.51557C8.04734 3.20204 8.19828 2.90398 8.36337 2.61506C8.47853 2.41305 8.62633 2.22732 8.77412 2.04475C8.94117 1.83838 9.1208 1.64471 9.31262 1.46413C9.48046 1.30617 9.65851 1.15695 9.85112 1.02678C9.94349 0.964466 10.0284 0.881123 10.1215 0.827942C10.2552 0.751742 10.3935 0.680702 10.5295 0.606486C10.7422 0.490599 10.9643 0.390984 11.1903 0.310419C11.447 0.219138 11.7142 0.155242 11.9831 0.10087C12.1997 0.056817 12.4206 0.0349889 12.6379 0.0143515C12.7712 0.00165159 12.9143 -0.00311089 13.0534 0.00204846C13.2633 0.00998592 13.474 0.00403283 13.6843 0.00403283C13.8946 0.00403283 14.1049 0.00403283 14.3152 0.00403283C14.5254 0.00403283 14.7357 0.00403283 14.946 0.00403283C15.1563 0.00403283 15.3666 0.00403283 15.5769 0.00403283C15.8002 0.00403283 16.0238 0.00720781 16.2471 0.00323908C16.7596 -0.00628588 17.2679 0.0353858 17.7686 0.14532C18.3307 0.268747 18.8547 0.493774 19.348 0.790239C19.7198 1.01368 20.0618 1.278 20.3699 1.58518C20.9595 2.17294 21.3974 2.86033 21.68 3.64653C21.8082 4.00253 21.895 4.36845 21.943 4.74587C21.985 5.08004 22.0118 5.41341 21.9949 5.74877C21.9493 6.64531 21.7138 7.48628 21.2614 8.26415C20.7005 9.22895 19.9222 9.95483 18.9309 10.4501C18.4349 10.6978 17.9121 10.8613 17.3634 10.9399C17.0953 10.9784 16.8268 10.999 16.5564 10.999C15.4146 10.999 14.2723 10.999 13.1305 10.999C13.1084 10.999 13.0864 10.999 13.0357 10.999C13.204 10.8764 13.3502 10.7692 13.4968 10.6629C13.8388 10.4144 14.1406 10.1223 14.4016 9.78973C14.6135 9.51946 14.8092 9.23649 14.9555 8.92296C14.9849 8.85986 15.0372 8.85907 15.0942 8.85907C15.6504 8.85907 16.207 8.86105 16.7632 8.8547C16.9283 8.85272 17.0914 8.81541 17.2537 8.78207C17.5914 8.71302 17.9019 8.57729 18.2018 8.40742C18.4942 8.24153 18.7556 8.03794 18.9812 7.78989C19.3877 7.34301 19.6742 6.82866 19.7961 6.23018C19.8483 5.97221 19.8888 5.71067 19.8762 5.44596C19.8589 5.0856 19.8031 4.73516 19.6809 4.38948C19.357 3.47469 18.7477 2.83652 17.885 2.43409C17.5827 2.2928 17.2631 2.20787 16.9286 2.1789C16.1649 2.11222 15.3996 2.15945 14.6351 2.14834C14.1053 2.1404 13.575 2.14199 13.0448 2.14834C12.544 2.15429 12.0582 2.24279 11.6034 2.46663C11.1809 2.67499 10.8157 2.9532 10.5036 3.31395C10.0858 3.79735 9.82753 4.34979 9.72809 4.97725C9.58776 5.86506 9.78351 6.67944 10.2882 7.41881C10.3476 7.50573 10.4085 7.59106 10.4674 7.67797C10.4761 7.69067 10.4777 7.70813 10.4863 7.73433L10.4855 7.73512Z" fill="#FF3E9A"/>
  <path d="M5.70939 8.86026C5.91929 8.86026 6.12879 8.86026 6.33869 8.86026H6.3379C6.5474 8.86026 6.7573 8.86026 6.96681 8.86026C7.17631 8.86026 7.38581 8.86026 7.59532 8.86026C7.80482 8.86026 8.01393 8.86026 8.22343 8.86026C8.43294 8.86026 8.64205 8.86026 8.85155 8.86026C9.11491 8.86145 9.37393 8.84914 9.63572 8.79358C9.88649 8.7404 10.1263 8.66896 10.3601 8.56816C10.4498 8.52966 10.5272 8.4737 10.6109 8.42647C10.7736 8.3348 10.9348 8.24272 11.0787 8.12128C11.4316 7.82243 11.7308 7.47954 11.9355 7.05964C11.9634 7.00249 11.9973 6.989 12.0562 6.9894C12.7464 6.99138 13.437 6.99257 14.1273 6.9886C14.2255 6.98821 14.233 7.01361 14.2039 7.10012C14.1171 7.35531 14.0294 7.6105 13.9107 7.8522C13.7806 8.11691 13.6434 8.37845 13.4744 8.62134C13.2991 8.87256 13.1073 9.11029 12.8954 9.33095C12.6855 9.54963 12.4591 9.74925 12.2162 9.92983C11.6258 10.368 10.9737 10.6744 10.2615 10.8478C9.99341 10.9129 9.72101 10.953 9.44626 10.9827C9.28274 11.0002 9.1208 10.9974 8.95847 10.9978C7.69555 10.9998 6.43263 11.0026 5.16971 10.995C4.9378 10.9935 4.70275 10.9605 4.47438 10.9153C4.09664 10.8403 3.72481 10.7375 3.36947 10.5831C3.09944 10.4656 2.83805 10.3311 2.58767 10.1751C2.33964 10.0207 2.09398 9.85839 1.88172 9.65916C1.64864 9.44049 1.42027 9.21546 1.21666 8.96384C0.94387 8.6261 0.733187 8.25185 0.532331 7.87165C0.447429 7.71131 0.366851 7.54065 0.313001 7.37079C0.262689 7.21165 0.214735 7.04536 0.178573 6.87827C0.144376 6.7219 0.12826 6.55919 0.077162 6.41036C0.0382486 6.29685 0.040607 6.18057 0.0185953 6.06865C-0.0167805 5.89085 0.00955483 5.70115 0.0075895 5.5162C0.00208659 5.04829 0.0602602 4.58951 0.174249 4.13548C0.340909 3.4727 0.633742 2.87104 1.01384 2.30987C1.18678 2.05468 1.401 1.83441 1.61365 1.61335C1.82984 1.38872 2.06725 1.19306 2.32078 1.01249C2.87736 0.615614 3.48543 0.335025 4.14538 0.171513C4.43822 0.0988855 4.73616 0.0524513 5.03961 0.0401483C6.41258 -0.0142233 7.78595 0.0310202 9.15932 0.0163359C9.16836 0.0163359 9.17701 0.0203046 9.2057 0.0274483C9.08425 0.119126 8.97537 0.20366 8.86374 0.284622C8.54339 0.517587 8.24859 0.780714 8.01629 1.10218C7.94279 1.20378 7.84806 1.28911 7.7891 1.40301C7.72817 1.52049 7.6358 1.62447 7.59099 1.7471C7.55247 1.85306 7.47465 1.93561 7.4491 2.04793C7.43416 2.11381 7.37677 2.14715 7.29541 2.14675C6.68026 2.14318 6.06511 2.14159 5.44997 2.14715C5.19801 2.14953 4.95038 2.1908 4.70236 2.24279C4.38869 2.30868 4.09311 2.41782 3.82111 2.58172C3.67882 2.66745 3.52316 2.7373 3.4076 2.87065C3.35179 2.93494 3.26217 2.9659 3.20399 3.0413C3.11988 3.15005 3.01179 3.23855 2.91863 3.34174C2.7335 3.54573 2.59238 3.77472 2.46542 4.01483C2.39939 4.13985 2.36441 4.27994 2.31095 4.40932C2.23666 4.58871 2.20364 4.77326 2.16552 4.95899C2.11796 5.18918 2.12228 5.42254 2.12857 5.65471C2.13682 5.9607 2.20364 6.25439 2.29248 6.54847C2.45088 7.07353 2.73664 7.51645 3.11398 7.89705C3.51452 8.30106 3.99523 8.57967 4.54356 8.7408C4.92719 8.85351 5.31633 8.87296 5.71057 8.86026H5.70939Z" fill="#FF3E9A"/>
  <path d="M7.59492 8.86026C7.59217 8.84676 7.59217 8.84756 7.59492 8.86026V8.86026Z" fill="#FF3E9A"/>
  <path d="M8.22304 8.86026C8.22225 8.84637 8.22225 8.84756 8.22304 8.86026V8.86026Z" fill="#FF3E9A"/>
  <path d="M8.85155 8.86026C8.84959 8.84637 8.84959 8.84756 8.85155 8.86026V8.86026Z" fill="#FF3E9A"/>
</svg>