<svg width="15" height="14" viewBox="0 0 15 14" fill="none" xmlns="http://www.w3.org/2000/svg">
<path d="M14.6252 6.37711L11.6072 8.92853L12.5113 12.7271C12.5591 12.9257 12.5454 13.1335 12.472 13.3247C12.3986 13.5158 12.2686 13.6817 12.0984 13.8016C11.9281 13.9215 11.7252 13.9902 11.5148 13.999C11.3045 14.0078 11.0962 13.9564 10.9159 13.8512L7.49565 11.8417L4.08276 13.8512C3.90246 13.9564 3.69413 14.0078 3.48382 13.999C3.2735 13.9902 3.07054 13.9215 2.9003 13.8016C2.73005 13.6817 2.60009 13.5158 2.52665 13.3247C2.45322 13.1335 2.43957 12.9257 2.48741 12.7271L3.39015 8.93242L0.371417 6.37711C0.211753 6.24372 0.0962999 6.06764 0.0395347 5.87094C-0.0172305 5.67425 -0.0127803 5.4657 0.052327 5.27144C0.117434 5.07719 0.240301 4.90587 0.405518 4.77899C0.570736 4.6521 0.770949 4.57529 0.981052 4.55819L4.96008 4.22436L6.51327 0.63578C6.59438 0.447481 6.7312 0.286638 6.90648 0.173503C7.08177 0.060368 7.28769 0 7.49833 0C7.70896 0 7.91489 0.060368 8.09017 0.173503C8.26546 0.286638 8.40227 0.447481 8.48338 0.63578L10.0413 4.22436L14.0189 4.55819C14.2291 4.57529 14.4293 4.6521 14.5945 4.77899C14.7597 4.90587 14.8826 5.07719 14.9477 5.27144C15.0128 5.4657 15.0172 5.67425 14.9605 5.87094C14.9037 6.06764 14.7882 6.24372 14.6286 6.37711H14.6252Z" />
</svg>
