<svg xmlns="http://www.w3.org/2000/svg" viewBox="0 0 22 22" fill="none">
  <path d="M3 6.85714C3 6.3646 3.19901 5.89223 3.55324 5.54394C3.90748 5.19566 4.38792 5 4.88889 5H18.1111C18.6121 5 19.0925 5.19566 19.4468 5.54394C19.801 5.89223 20 6.3646 20 6.85714V16.1429C20 16.6354 19.801 17.1078 19.4468 17.4561C19.0925 17.8043 18.6121 18 18.1111 18H4.88889C4.38792 18 3.90748 17.8043 3.55324 17.4561C3.19901 17.1078 3 16.6354 3 16.1429V6.85714Z" stroke-width="1.5" stroke-linecap="round" stroke-linejoin="round"/>
  <path d="M3 7L11.5 13L20 7" stroke-width="1.5" stroke-linecap="round" stroke-linejoin="round"/>
</svg>