<svg width="24" height="24" viewBox="0 0 24 24" fill="none" xmlns="http://www.w3.org/2000/svg" stroke-width="1.5">
<path transform='translate(1 3)' d="M13 9.5L10 11V8L13 9.5Z" stroke-linecap="round" stroke-linejoin="round"/>
<path transform='translate(1 3)' d="M2 10.5975V9.40169C2 6.95521 2 5.73155 2.8145 4.94479C3.6299 4.15718 4.9133 4.12338 7.4792 4.05493C8.6942 4.02282 9.9362 4 11 4C12.0629 4 13.3049 4.02282 14.5208 4.05493C17.0867 4.12338 18.3701 4.15718 19.1846 4.94479C20 5.73155 20 6.95606 20 9.40169V10.5975C20 13.0448 20 14.2676 19.1855 15.0552C18.3701 15.842 17.0876 15.8766 14.5208 15.9442C13.3058 15.9772 12.0638 16 11 16C9.82618 15.9967 8.65247 15.9781 7.4792 15.9442C4.9133 15.8766 3.6299 15.8428 2.8145 15.0552C2 14.2676 2 13.0439 2 10.5983V10.5975Z"/>
</svg>
