<svg xmlns="http://www.w3.org/2000/svg" width="20" height="20" viewBox="0 0 20 20" fill="none">
  <g clip-path="url(#clip0_1854_5100)">
    <path fill-rule="evenodd" clip-rule="evenodd" d="M12.8999 14.3197C11.2927 15.5683 9.26991 16.1573 7.24357 15.9669C5.21724 15.7764 3.33967 14.8208 1.99318 13.2946C0.646696 11.7684 -0.0674734 9.78637 -0.00390579 7.75209C0.0596618 5.71782 0.896186 3.78425 2.33534 2.3451C3.77449 0.905951 5.70805 0.0694274 7.74233 0.00585983C9.7766 -0.0577077 11.7586 0.656461 13.2848 2.00295C14.811 3.34944 15.7666 5.227 15.9571 7.25334C16.1475 9.27968 15.5585 11.3024 14.3099 12.9097L19.6599 18.2397L18.2399 19.6597L12.9099 14.3197H12.8999ZM7.99994 13.9997C8.78787 13.9997 9.56809 13.8445 10.296 13.543C11.024 13.2415 11.6854 12.7995 12.2426 12.2423C12.7997 11.6852 13.2417 11.0238 13.5432 10.2958C13.8447 9.56785 13.9999 8.78764 13.9999 7.99971C13.9999 7.21178 13.8447 6.43156 13.5432 5.70361C13.2417 4.97565 12.7997 4.31422 12.2426 3.75707C11.6854 3.19992 11.024 2.75796 10.296 2.45643C9.56809 2.1549 8.78787 1.99971 7.99994 1.99971C6.40864 1.99971 4.88252 2.63185 3.7573 3.75707C2.63208 4.88229 1.99994 6.40841 1.99994 7.99971C1.99994 9.59101 2.63208 11.1171 3.7573 12.2423C4.88252 13.3676 6.40864 13.9997 7.99994 13.9997ZM4.99994 6.99971H10.9999V8.99971H4.99994V6.99971Z" fill="#B6B6B6"/>
  </g>
  <defs>
    <clipPath id="clip0_1854_5100">
      <rect width="20" height="20" fill="white"/>
    </clipPath>
  </defs>
</svg>
