<svg width="24" height="24" viewBox="0 0 24 24" fill="none" xmlns="http://www.w3.org/2000/svg">
<g clip-path="url(#clip0_460_6174)">
<path d="M17.5 6.5L23 9V22L16 19M16 19L8 22M16 19V12M8 22L1 19V6L6 8M8 22V12M12 16.273C12 16.273 6 11.5 6 7C6 3.25 9 1 12 1C15 1 18 3.25 18 7C18 11.5 12 16.273 12 16.273ZM13 7C13 6.73478 12.8946 6.48043 12.7071 6.29289C12.5196 6.10536 12.2652 6 12 6C11.7348 6 11.4804 6.10536 11.2929 6.29289C11.1054 6.48043 11 6.73478 11 7C11 7.26522 11.1054 7.51957 11.2929 7.70711C11.4804 7.89464 11.7348 8 12 8C12.2652 8 12.5196 7.89464 12.7071 7.70711C12.8946 7.51957 13 7.26522 13 7Z" stroke="#FF3E9A" stroke-width="2"/>
</g>
<defs>
<clipPath id="clip0_460_6174">
<rect width="24" height="24" fill="white"/>
</clipPath>
</defs>
</svg>
