<svg xmlns="http://www.w3.org/2000/svg" viewBox="0 0 20 15" fill="none">
  <path d="M4.39648 10.4671C4.39648 8.50913 4.39648 6.49186 4.39648 4.53392C4.99838 4.41526 5.66047 4.2966 6.26237 4.17793C7.8273 3.76261 9.09128 2.93197 10.1747 1.80468C10.5358 1.44869 10.8368 1.03337 11.1979 0.67738C11.6193 0.26206 12.1008 0.143397 12.6425 0.380723C13.1842 0.618049 13.4851 1.03337 13.4851 1.62668C13.4851 5.54256 13.4851 9.45843 13.4851 13.3743C13.4851 13.9676 13.1842 14.3829 12.6425 14.6203C12.1008 14.8576 11.6193 14.7389 11.1979 14.3236C10.897 13.9676 10.5358 13.6116 10.2349 13.315C8.73014 11.713 6.92445 10.7637 4.75762 10.5857C4.57705 10.5264 4.51686 10.5264 4.39648 10.4671Z" />
  <path d="M3.49353 10.4673C2.89164 10.4673 2.34993 10.5267 1.80822 10.4673C0.845187 10.2893 0.12291 9.45869 0.0627204 8.50939C0.00253069 7.85674 0.00253069 7.2041 0.0627204 6.61078C0.12291 5.48348 0.965566 4.65284 2.10917 4.53418C2.59069 4.47485 3.01202 4.53418 3.49353 4.53418C3.49353 6.49212 3.49353 8.50939 3.49353 10.4673Z" />
  <path d="M3.91433 11.3567C3.91433 12.128 3.91433 12.8993 3.91433 13.6706C3.91433 13.73 3.91433 13.7893 3.85414 13.8486C3.67357 14.4419 3.13186 14.7979 2.52997 14.7386C1.92807 14.6793 1.38636 14.2639 1.38636 13.6706C1.32617 12.84 1.38636 12.0687 1.32617 11.238C1.32617 11.238 1.32617 11.238 1.32617 11.1787C2.16883 11.416 3.07167 11.2974 3.91433 11.3567Z" />
  <path d="M17.2768 7.91536C16.8555 7.91536 16.4341 7.91536 16.073 7.91536C15.7119 7.91536 15.5313 7.67804 15.5915 7.38138C15.6517 7.14405 15.7721 7.02539 16.073 7.02539C16.7953 7.02539 17.5176 7.02539 18.2398 7.02539C18.3602 7.02539 18.4806 7.02539 18.601 7.02539C18.9019 7.08472 19.0825 7.32205 18.9621 7.55937C18.9019 7.73737 18.7815 7.85603 18.4806 7.85603C18.1195 7.91536 17.6981 7.91536 17.2768 7.91536Z" />
  <path d="M15.6516 10.4668C15.7118 10.4668 15.8322 10.5261 15.8924 10.5855C16.3137 11.0008 16.735 11.4161 17.1564 11.8314C17.3369 12.0094 17.3369 12.2467 17.1564 12.4247C16.9758 12.6027 16.735 12.6027 16.5545 12.4247C16.1331 12.0094 15.7118 11.5941 15.2905 11.1788C15.1701 11.0601 15.1099 10.8821 15.1701 10.7041C15.2905 10.5855 15.4109 10.4668 15.6516 10.4668Z" />
  <path d="M15.5921 4.53466C15.4115 4.47533 15.2911 4.41599 15.2309 4.238C15.1708 4.06001 15.1708 3.94134 15.2911 3.82268C15.7726 3.34803 16.194 2.93271 16.6755 2.45806C16.8561 2.28006 17.0968 2.3394 17.2172 2.51739C17.3978 2.69538 17.3978 2.93271 17.2172 3.1107C16.9163 3.40736 16.6153 3.70402 16.2542 4.06001C16.1338 4.17867 16.0134 4.29733 15.893 4.35666C15.8328 4.47533 15.7125 4.47533 15.5921 4.53466Z" />
</svg>