<svg width="20" height="20" viewBox="0 0 20 20" fill="none" xmlns="http://www.w3.org/2000/svg">
<path fill-rule="evenodd" clip-rule="evenodd" d="M17.9881 2.75311H11.6569V1.26123L1.25 2.86748V16.9469L11.6569 18.7394V16.5281H17.9881C18.1799 16.5378 18.3677 16.4712 18.5104 16.3428C18.6532 16.2145 18.7393 16.0348 18.75 15.8431V3.43748C18.7392 3.24589 18.653 3.06638 18.5102 2.93814C18.3675 2.80991 18.1798 2.74339 17.9881 2.75311ZM18.0881 15.9569H11.6356L11.625 14.7762H13.1794V13.4012H11.6131L11.6056 12.5887H13.1794V11.2137H11.5938L11.5863 10.4012H13.1794V9.02623H11.5813V8.21373H13.1794V6.83873H11.5813V6.02623H13.1794V4.65123H11.5813V3.40123H18.0881V15.9569Z" fill="black"/>
<path d="M14.0547 4.64941H16.7566V6.02441H14.0547V4.64941ZM14.0547 6.83754H16.7566V8.21254H14.0547V6.83754ZM14.0547 9.02566H16.7566V10.4007H14.0547V9.02566ZM14.0547 11.2138H16.7566V12.5888H14.0547V11.2138ZM14.0547 13.4019H16.7566V14.7769H14.0547V13.4019Z" fill="black"/>
<path fill-rule="evenodd" clip-rule="evenodd" d="M3.96656 6.67076L5.30781 6.59389L6.15094 8.91201L7.14719 6.49826L8.48844 6.42139L6.85969 9.71264L8.48844 13.012L7.07031 12.9164L6.11281 10.4014L5.15469 12.8208L3.85156 12.7058L5.36531 9.79139L3.96656 6.67076Z" fill="white"/>
</svg>
