<svg xmlns="http://www.w3.org/2000/svg" width="36" height="36" viewBox="0 0 36 36" fill="none">
  <circle cx="17.7124" cy="17.7124" r="17.2124" fill="white" stroke="#B6B6B6"/>
  <path d="M15.7611 17.9282C13.3652 14.8126 10.9683 11.6947 8.56445 8.56879C8.59533 8.56764 8.6182 8.56421 8.63993 8.56421C10.5943 8.56421 12.5487 8.56421 14.502 8.56421C14.55 8.56421 14.5832 8.57337 14.6152 8.61688C15.2567 9.46305 15.9006 10.3081 16.5444 11.1543C16.8955 11.6157 17.2466 12.0783 17.5965 12.5397C17.9522 13.0069 18.3067 13.4741 18.6623 13.9413C18.6864 13.9733 18.7127 14.0031 18.7413 14.0374C18.8876 13.8737 19.0306 13.7191 19.169 13.5611C19.6664 12.9943 20.1616 12.4264 20.6579 11.8607C21.1702 11.2768 21.6837 10.6928 22.1983 10.1088C22.6386 9.60962 23.08 9.11153 23.5237 8.61574C23.5466 8.5894 23.5912 8.56879 23.6255 8.56764C24.5553 8.56535 25.485 8.56535 26.4136 8.56535C26.425 8.56535 26.4365 8.5665 26.4731 8.56879C24.3391 10.9951 22.2178 13.4077 20.0918 15.8248C22.5906 19.1099 25.0882 22.395 27.5961 25.6915H27.508C25.6085 25.6915 23.709 25.6915 21.8095 25.6927C21.7512 25.6927 21.7157 25.6743 21.6791 25.6285C20.9244 24.6438 20.1673 23.6602 19.4114 22.6767C18.6623 21.7022 17.9133 20.729 17.1631 19.7546C17.1505 19.7385 17.1368 19.7225 17.1185 19.7007C17.0384 19.7923 16.963 19.8794 16.8863 19.9664C16.4781 20.4301 16.0698 20.8939 15.6616 21.3587C15.1607 21.929 14.6621 22.5003 14.1612 23.0683C13.5219 23.7942 12.8804 24.519 12.2399 25.2438C12.1187 25.3812 11.9975 25.5186 11.8751 25.6537C11.858 25.672 11.8283 25.6892 11.8042 25.6892C10.8585 25.6904 9.9116 25.6904 8.96585 25.6892C8.96128 25.6892 8.95785 25.6858 8.93726 25.6778C11.2119 23.0923 13.483 20.5114 15.7576 17.9271L15.7611 17.9282ZM11.9678 10.213C11.9815 10.2325 11.9872 10.2428 11.9941 10.2508C12.4286 10.8188 12.8643 11.3867 13.3001 11.9546C13.6454 12.4058 13.9908 12.8558 14.3373 13.3058C14.7547 13.8485 15.1733 14.3901 15.5907 14.9328C16.0893 15.5809 16.5867 16.229 17.0853 16.8771C17.7589 17.753 18.4313 18.6301 19.1049 19.5061C19.6321 20.192 20.1604 20.8767 20.6876 21.5625C21.2857 22.3412 21.885 23.1186 22.4819 23.8973C22.5162 23.9419 22.5517 23.9591 22.6077 23.9591C23.0995 23.9568 23.5912 23.9568 24.0841 23.9568C24.1024 23.9568 24.1195 23.9545 24.1504 23.9522C24.1333 23.9247 24.1218 23.9053 24.1093 23.887C23.4757 23.0522 22.841 22.2175 22.2075 21.3828C21.511 20.4668 20.8146 19.5519 20.1181 18.6359C19.2261 17.4634 18.3341 16.2897 17.4421 15.1172C16.5822 13.9859 15.721 12.8546 14.8599 11.7233C14.4917 11.239 14.1246 10.7535 13.7541 10.2714C13.73 10.2405 13.682 10.2096 13.6454 10.2096C13.1823 10.2073 12.718 10.2108 12.2548 10.213C12.1633 10.213 12.0718 10.213 11.9689 10.213H11.9678Z" fill="black"/>
</svg>