<svg  viewBox="0 0 31 31" fill="none" xmlns="http://www.w3.org/2000/svg">
<g clip-path="url(#clip0_421_4495)">
<path d="M25.69 13.9534C25.69 14.7631 25.69 15.5728 25.69 16.3826C25.69 16.4934 25.7249 16.5722 25.8033 16.6532C26.043 16.8982 26.2892 17.1433 26.5093 17.4054C26.8187 17.7762 26.9537 18.2215 26.9799 18.6946C27.006 19.1548 27.0235 19.6172 26.9211 20.069C26.7468 20.8467 26.2739 21.3944 25.5462 21.7417C25.1736 21.9185 24.7771 21.9676 24.3718 21.9676C23.1495 21.9676 21.9293 21.9676 20.707 21.9654C20.5915 21.9654 20.5501 21.9995 20.5479 22.1146C20.537 22.6622 20.4564 23.1971 20.2603 23.7127C19.794 24.9422 18.9857 25.8798 17.7851 26.4786C16.9332 26.9005 16.0268 27.0539 15.0768 26.9836C13.8414 26.892 12.7955 26.3912 11.9284 25.5453C11.1832 24.8186 10.6973 23.945 10.5274 22.92C10.4838 22.6558 10.462 22.3852 10.4446 22.1167C10.438 22.0016 10.4053 21.9654 10.2877 21.9654C9.05662 21.9697 7.82557 21.9654 6.5967 21.9697C5.79706 21.9718 5.11725 21.7161 4.59868 21.1046C4.21085 20.6571 3.99514 20.1435 4.00386 19.549C4.00821 19.1953 3.98207 18.8373 4.02565 18.49C4.09537 17.9445 4.35465 17.4757 4.7512 17.0815C4.89719 16.9366 5.04317 16.7917 5.19351 16.6511C5.26106 16.5871 5.28502 16.5211 5.28502 16.4295C5.28284 14.9293 5.27195 13.4292 5.28502 11.9269C5.30028 10.3416 5.68158 8.8372 6.42457 7.42444C7.13705 6.06921 8.11972 4.93134 9.36166 4.01293C10.6385 3.06896 12.07 2.4638 13.6409 2.17187C14.9352 1.93322 16.2272 1.94174 17.5193 2.20597C18.7438 2.45741 19.8834 2.90276 20.9423 3.55693C22.0884 4.26651 23.0601 5.16147 23.8336 6.24608C24.6376 7.37117 25.1845 8.6092 25.4699 9.95803C25.6181 10.6591 25.6944 11.3623 25.6857 12.0782C25.6791 12.7026 25.6857 13.3269 25.6857 13.9513L25.69 13.9534ZM15.445 19.6534C18.2863 19.6534 21.1275 19.6534 23.9687 19.6534C24.1452 19.6534 24.3195 19.6343 24.496 19.6257C24.5897 19.6215 24.6158 19.5725 24.6137 19.4872C24.6093 19.2891 24.618 19.0888 24.6093 18.8906C24.6071 18.8331 24.5832 18.7649 24.5439 18.7244C24.3979 18.5667 24.252 18.409 24.0907 18.2663C23.5765 17.8081 23.3194 17.2349 23.3151 16.5616C23.3063 15.2468 23.3107 13.9321 23.3151 12.6195C23.3172 11.716 23.2867 10.8232 23.0471 9.93672C22.6832 8.60067 21.962 7.47984 20.9815 6.51883C20.3061 5.85613 19.5086 5.34259 18.6174 4.97182C17.4779 4.49664 16.3013 4.2729 15.0659 4.33896C14.0832 4.39223 13.1442 4.61384 12.253 5.01444C10.4663 5.82203 9.15467 7.10481 8.34632 8.86064C7.89747 9.83231 7.66216 10.8594 7.66433 11.9333C7.66651 13.4825 7.66433 15.0316 7.66433 16.5807C7.66433 17.1049 7.54014 17.5929 7.16756 17.9892C6.94095 18.23 6.69256 18.4495 6.45943 18.686C6.41367 18.7329 6.37445 18.8032 6.37009 18.865C6.3592 19.076 6.36792 19.2891 6.36356 19.5021C6.36356 19.598 6.40931 19.6407 6.50083 19.6449C6.60541 19.6492 6.70782 19.6556 6.8124 19.6556C9.68849 19.6556 12.5668 19.6556 15.4429 19.6556L15.445 19.6534ZM12.8086 21.9803C12.8173 22.1338 12.8152 22.2723 12.8326 22.4065C12.9285 23.2013 13.3533 23.8086 14.0113 24.2476C14.7108 24.7142 15.5017 24.8144 16.2948 24.5587C17.3799 24.2092 18.0967 23.3824 18.1708 22.1593C18.1817 21.9739 18.1839 21.9718 17.9965 21.9697C16.3144 21.9697 14.6301 21.9697 12.9481 21.9697C12.9088 21.9697 12.8696 21.9761 12.8108 21.9803H12.8086Z" />
</g>
<defs>
<clipPath id="clip0_421_4495">
<rect width="31" height="31" fill="white"/>
</clipPath>
</defs>
</svg>
