<svg xmlns="http://www.w3.org/2000/svg" width="22" height="22" viewBox="0 0 22 22" fill="none">
  <path d="M12.5357 4.5503C11.7825 4.27816 10.6968 3.3246 10.5244 1.48892C10.4966 1.21678 10.2686 1.00892 9.99854 1.00107C7.98046 0.943925 6.66404 3.19532 6.13204 4.31388C5.97325 4.65101 5.63871 4.85172 5.41071 4.57173C5.07143 4.15602 5.16643 2.8489 4.39286 3.21461C2.18071 4.26173 1 7.10241 1 10.2859C1 15.743 8.79679 20.1251 10.2618 20.9358C10.3348 20.9779 10.4167 21 10.5 21C10.5833 21 10.6652 20.9779 10.7382 20.9358C12.2107 20.1251 20 15.743 20 10.2859C20 6.53599 17.1595 3.75531 13.9872 2.45747C13.6411 2.31462 13.2143 2.75604 13.2143 3.14318V3.83888C13.2075 4.21173 12.875 4.67244 12.5357 4.5503Z" fill="#F9C23C"/>
  <path d="M12.8652 6.09542C11.2465 6.39746 9.99989 8.40679 9.99989 8.40679C9.99989 8.40679 8.75992 6.39064 7.13461 6.09542C3.13002 5.35769 1.47738 9.05383 2.14337 11.8091C3.33668 16.7127 9.99989 21 9.99989 21C9.99989 21 16.6631 16.7134 17.8564 11.8091C18.5231 9.05383 16.8698 5.35769 12.8652 6.09542Z" fill="#F92F60"/>
</svg>