<svg width="16" height="19" viewBox="0 0 16 19" fill="none" xmlns="http://www.w3.org/2000/svg">
<path d="M7.99967 2.66634C8.86947 2.66571 9.7262 2.87802 10.495 3.28476C11.2639 3.69149 11.9215 4.28027 12.4103 4.99968H10.6663V6.33301H14.6663V2.33301H13.333V3.99968C12.7126 3.17109 11.9075 2.49862 10.9817 2.0357C10.0558 1.57278 9.03479 1.33218 7.99967 1.33301C4.31767 1.33301 1.33301 4.31768 1.33301 7.99968H2.66634C2.66634 6.58519 3.22824 5.22863 4.22844 4.22844C5.22863 3.22825 6.58519 2.66634 7.99967 2.66634ZM13.333 7.99968C13.3333 9.14035 12.968 10.2511 12.2905 11.1688C11.613 12.0865 10.6592 12.7628 9.56901 13.0985C8.47884 13.4341 7.30977 13.4114 6.23345 13.0337C5.15714 12.6559 4.2303 11.943 3.58901 10.9997H5.33301V9.66634H1.33301V13.6663H2.66634V11.9997C3.28675 12.8283 4.09185 13.5007 5.01769 13.9637C5.94352 14.4266 6.96456 14.6672 7.99967 14.6663C11.6817 14.6663 14.6663 11.6817 14.6663 7.99968H13.333Z" fill="#FF3E9A" transform="translate(0,3)"/>
</svg>
