<svg width="16" height="16" viewBox="0 0 16 16" fill="none" xmlns="http://www.w3.org/2000/svg">
<path d="M7.9987 2.66537C8.8685 2.66473 9.72522 2.87705 10.4941 3.28378C11.2629 3.69051 11.9205 4.27929 12.4094 4.9987H10.6654V6.33203H14.6654V2.33203H13.332V3.9987C12.7116 3.17011 11.9065 2.49764 10.9807 2.03472C10.0549 1.57181 9.03381 1.3312 7.9987 1.33203C4.3167 1.33203 1.33203 4.3167 1.33203 7.9987H2.66536C2.66536 6.58421 3.22727 5.22766 4.22746 4.22746C5.22766 3.22727 6.58421 2.66537 7.9987 2.66537ZM13.332 7.9987C13.3324 9.13938 12.967 10.2501 12.2895 11.1678C11.6121 12.0855 10.6582 12.7619 9.56804 13.0975C8.47786 13.4332 7.30879 13.4104 6.23248 13.0327C5.15617 12.6549 4.22932 11.942 3.58803 10.9987H5.33203V9.66537H1.33203V13.6654H2.66536V11.9987C3.28577 12.8273 4.09088 13.4998 5.01671 13.9627C5.94254 14.4256 6.96358 14.6662 7.9987 14.6654C11.6807 14.6654 14.6654 11.6807 14.6654 7.9987H13.332Z" fill="#FF3E9A"/>
</svg>
