<svg xmlns="http://www.w3.org/2000/svg" viewBox="0 0 20 20" fill="none">
  <path fill-rule="evenodd" clip-rule="evenodd" d="M17.9881 2.75312H11.6569V1.26125L1.25 2.8675V16.9469L11.6569 18.7394V16.5281H17.9881C18.1799 16.5378 18.3677 16.4712 18.5104 16.3429C18.6532 16.2145 18.7393 16.0348 18.75 15.8431V3.4375C18.7392 3.24591 18.653 3.06639 18.5102 2.93816C18.3675 2.80993 18.1798 2.7434 17.9881 2.75312ZM18.0881 15.9569H11.6356L11.625 14.7762H13.1794V13.4012H11.6131L11.6056 12.5887H13.1794V11.2137H11.5938L11.5863 10.4012H13.1794V9.02625H11.5813V8.21375H13.1794V6.83875H11.5813V6.02625H13.1794V4.65125H11.5813V3.40125H18.0881V15.9569Z" fill="white"/>
  <path d="M14.0547 4.64938H16.7566V6.02438H14.0547V4.64938ZM14.0547 6.83751H16.7566V8.21251H14.0547V6.83751ZM14.0547 9.02563H16.7566V10.4006H14.0547V9.02563ZM14.0547 11.2138H16.7566V12.5888H14.0547V11.2138ZM14.0547 13.4019H16.7566V14.7769H14.0547V13.4019Z" fill="white"/>
  <path fill-rule="evenodd" clip-rule="evenodd" d="M3.96656 6.67062L5.30781 6.59375L6.15094 8.91187L7.14719 6.49812L8.48844 6.42125L6.85969 9.7125L8.48844 13.0119L7.07031 12.9162L6.11281 10.4012L5.15469 12.8206L3.85156 12.7056L5.36531 9.79125L3.96656 6.67062Z" fill="#414141"/>
</svg>