<?xml version="1.0" encoding="UTF-8"?>
<svg id="Layer_2" data-name="Layer 2" xmlns="http://www.w3.org/2000/svg" viewBox="0 0 305.53 32.95">
  <defs>
    <style>
      .cls-1 {
        fill: #231f20;
      }

      .cls-2, .cls-3 {
        fill: #ff3998;
        stroke: #ff3998;
        stroke-miterlimit: 10;
      }

      .cls-3 {
        opacity: .61;
      }
    </style>
  </defs>
  <g id="Layer_1-2" data-name="Layer 1">
    <g>
      <path class="cls-2" d="m35.79,21.31c-1.75,3.28-5.2,5.52-9.17,5.52h-10.5c-5.73,0-10.38-4.66-10.38-10.38s4.66-10.38,10.38-10.38h5.43c.92-2.09,2.39-3.89,4.2-5.24h-9.63C7.51.82.5,7.83.5,16.44s7.01,15.62,15.62,15.62h10.5c6.91,0,12.78-4.52,14.84-10.76h-5.67Z"/>
      <g>
        <path class="cls-1" d="m100.27,32.63h-7.84l-13.11-19.84v19.84h-7.84V.46h7.84l13.11,19.93V.46h7.84v32.17Z"/>
        <path class="cls-1" d="m134.73,32.63h-7.84l-13.11-19.84v19.84h-7.84V.46h7.84l13.11,19.93V.46h7.84v32.17Z"/>
        <path class="cls-1" d="m148.25,6.74v6.51h10.49v6.05h-10.49v7.06h11.87v6.28h-19.71V.46h19.71v6.28h-11.87Z"/>
        <path class="cls-1" d="m165.94,8c1.38-2.49,3.29-4.43,5.75-5.82,2.46-1.39,5.25-2.08,8.36-2.08,3.82,0,7.09,1.01,9.81,3.02,2.72,2.02,4.54,4.77,5.45,8.25h-8.62c-.64-1.34-1.55-2.37-2.73-3.07-1.18-.7-2.51-1.05-4.01-1.05-2.41,0-4.37.84-5.87,2.52-1.5,1.68-2.25,3.93-2.25,6.74s.75,5.06,2.25,6.74c1.5,1.68,3.45,2.52,5.87,2.52,1.5,0,2.83-.35,4.01-1.05,1.18-.7,2.08-1.73,2.73-3.07h8.62c-.92,3.48-2.73,6.23-5.45,8.23-2.72,2-5.99,3-9.81,3-3.12,0-5.9-.7-8.36-2.09-2.46-1.39-4.38-3.32-5.75-5.8s-2.06-5.3-2.06-8.48.69-6.01,2.06-8.5Z"/>
        <path class="cls-1" d="m223.27.46v6.28h-8.52v25.89h-7.84V6.74h-8.52V.46h24.88Z"/>
        <path class="cls-1" d="m235.04.46v32.17h-7.84V.46h7.84Z"/>
        <path class="cls-1" d="m247.62,30.84c-2.52-1.41-4.52-3.37-6-5.89-1.48-2.52-2.22-5.35-2.22-8.5s.74-5.97,2.22-8.48c1.48-2.5,3.48-4.46,6-5.87,2.52-1.4,5.29-2.11,8.32-2.11s5.8.7,8.32,2.11c2.52,1.41,4.51,3.36,5.96,5.87,1.45,2.51,2.18,5.33,2.18,8.48s-.73,5.98-2.2,8.5c-1.47,2.52-3.45,4.48-5.96,5.89-2.51,1.41-5.27,2.11-8.29,2.11s-5.8-.7-8.32-2.11Zm14.48-7.61c1.54-1.71,2.31-3.97,2.31-6.78s-.77-5.11-2.31-6.81c-1.54-1.7-3.6-2.54-6.16-2.54s-4.67.84-6.21,2.52c-1.54,1.68-2.31,3.96-2.31,6.83s.77,5.11,2.31,6.81c1.54,1.7,3.61,2.54,6.21,2.54s4.62-.85,6.16-2.57Z"/>
        <path class="cls-1" d="m305.53,32.63h-7.84l-13.11-19.84v19.84h-7.84V.46h7.84l13.11,19.93V.46h7.84v32.17Z"/>
      </g>
      <g>
        <g>
          <path class="cls-3" d="m49.03.82h-10.5c-8.62,0-15.62,7.01-15.62,15.62,0,2.14.44,4.17,1.22,6.03h5.98c-1.22-1.7-1.96-3.78-1.96-6.03,0-5.73,4.66-10.38,10.38-10.38h10.5c5.73,0,10.38,4.66,10.38,10.38s-4.66,10.38-10.38,10.38h-4.3c-1.26,2.36-2.84,4.04-4.51,5.24h8.81c8.62,0,15.62-7.01,15.62-15.62S57.64.82,49.03.82Z"/>
          <path class="cls-3" d="m28.89,28.71s.06.05.09.07v-.07h-.09Z"/>
        </g>
        <g>
          <path class="cls-3" d="m49.03.82h-10.5c-8.62,0-15.62,7.01-15.62,15.62,0,2.14.44,4.17,1.22,6.03h5.98c-1.22-1.7-1.96-3.78-1.96-6.03,0-5.73,4.66-10.38,10.38-10.38h10.5c5.73,0,10.38,4.66,10.38,10.38s-4.66,10.38-10.38,10.38h-4.3c-1.26,2.36-2.84,4.04-4.51,5.24h8.81c8.62,0,15.62-7.01,15.62-15.62S57.64.82,49.03.82Z"/>
          <path class="cls-3" d="m28.89,28.71s.06.05.09.07v-.07h-.09Z"/>
        </g>
        <g>
          <path class="cls-3" d="m49.03.82h-10.5c-8.62,0-15.62,7.01-15.62,15.62,0,2.14.44,4.17,1.22,6.03h5.98c-1.22-1.7-1.96-3.78-1.96-6.03,0-5.73,4.66-10.38,10.38-10.38h10.5c5.73,0,10.38,4.66,10.38,10.38s-4.66,10.38-10.38,10.38h-4.3c-1.26,2.36-2.84,4.04-4.51,5.24h8.81c8.62,0,15.62-7.01,15.62-15.62S57.64.82,49.03.82Z"/>
          <path class="cls-3" d="m28.89,28.71s.06.05.09.07v-.07h-.09Z"/>
        </g>
        <g>
          <path class="cls-3" d="m49.03.82h-10.5c-8.62,0-15.62,7.01-15.62,15.62,0,2.14.44,4.17,1.22,6.03h5.98c-1.22-1.7-1.96-3.78-1.96-6.03,0-5.73,4.66-10.38,10.38-10.38h10.5c5.73,0,10.38,4.66,10.38,10.38s-4.66,10.38-10.38,10.38h-4.3c-1.26,2.36-2.84,4.04-4.51,5.24h8.81c8.62,0,15.62-7.01,15.62-15.62S57.64.82,49.03.82Z"/>
          <path class="cls-3" d="m28.89,28.71s.06.05.09.07v-.07h-.09Z"/>
        </g>
      </g>
    </g>
  </g>
</svg>