<svg xmlns="http://www.w3.org/2000/svg"  viewBox="0 0 16 16" fill="none">
  <g clip-path="url(#clip0_1908_7546)">
    <path d="M7.99792 15.9911C6.60548 15.9911 5.21304 16.0085 3.81625 15.9867C2.04089 15.9563 0.426531 14.5812 0.0914752 12.8363C0.0349074 12.5448 0.00879915 12.2402 0.00879915 11.9443C9.64033e-05 9.31607 0.0175019 6.68349 9.64036e-05 4.05526C-0.0129577 2.14936 1.30116 0.521948 3.08087 0.11727C3.38111 0.047648 3.69876 0.0171884 4.00771 0.012837C5.58726 0.00413429 7.17116 0.00848566 8.75071 0.012837C9.22066 0.012837 9.52525 0.278271 9.59487 0.722111C9.65579 1.13114 9.32074 1.55757 8.90736 1.59674C8.82033 1.60544 8.7333 1.60544 8.64627 1.60544C7.11459 1.60544 5.58291 1.59674 4.05558 1.60544C3.08087 1.60979 2.34984 2.04928 1.87554 2.9065C1.67973 3.25896 1.6014 3.64188 1.6014 4.04221C1.6014 6.68349 1.59705 9.32913 1.6014 11.9704C1.6014 13.3498 2.65443 14.4028 4.03382 14.4072C6.6751 14.4159 9.32074 14.4115 11.962 14.4072C13.3501 14.4072 14.3988 13.3498 14.4031 11.9574C14.4075 10.3909 14.4031 8.82002 14.4031 7.25352C14.4031 6.79228 14.6555 6.48768 15.0907 6.41371C15.5127 6.34408 15.9435 6.67044 15.9827 7.09687C15.987 7.15344 15.9914 7.21001 15.9914 7.26658C15.9914 8.84177 16.0088 10.417 15.987 11.9878C15.9609 13.7066 15.1342 14.9337 13.5894 15.6691C13.0629 15.9171 12.4972 15.9998 11.9142 15.9998C10.6087 15.9954 9.30333 15.9998 7.99792 15.9998C7.99792 15.9998 7.99792 15.9998 7.99792 15.9954V15.9911Z" />
    <path d="M15.9919 2.18436C15.9919 2.89799 15.7352 3.43756 15.2783 3.8988C13.5029 5.66981 11.7363 7.44082 9.96526 9.21183C9.61715 9.55994 9.27339 9.91675 8.91223 10.2562C8.79474 10.3649 8.63809 10.465 8.48579 10.5085C7.59376 10.7435 6.70173 10.9654 5.80535 11.183C5.19616 11.3309 4.67834 10.8175 4.82629 10.2083C5.04386 9.30756 5.26578 8.40683 5.5051 7.51044C5.54427 7.3625 5.64 7.2102 5.74878 7.10141C7.8766 4.96489 10.0088 2.82837 12.1453 0.700544C12.785 0.0652432 13.5595 -0.139271 14.4167 0.121811C15.2739 0.387245 15.7874 0.992086 15.9615 1.87977C15.9832 2.0016 15.9876 2.12779 15.9963 2.19306L15.9919 2.18436ZM10.9661 4.13378C10.94 4.15553 10.9095 4.17729 10.8834 4.2034C9.61715 5.46965 8.34655 6.74025 7.0803 8.0065C7.04984 8.03696 7.00633 8.06742 6.99762 8.10658C6.89754 8.4895 6.80181 8.87242 6.70173 9.28145C6.77135 9.27275 6.81487 9.27275 6.85403 9.26405C7.15427 9.19007 7.45887 9.12045 7.75912 9.03342C7.85485 9.00732 7.95493 8.95075 8.02455 8.87677C9.26904 7.63663 10.5092 6.39649 11.7493 5.15635C11.7928 5.11284 11.832 5.06932 11.8625 5.03016C11.5579 4.72556 11.2663 4.43837 10.9617 4.12943L10.9661 4.13378ZM13.0243 3.88575C13.4115 3.49413 13.7988 3.11556 14.1774 2.72828C14.4559 2.44109 14.4646 2.04947 14.2079 1.79274C13.9424 1.5273 13.5508 1.54036 13.2593 1.8319C12.9024 2.18436 12.5543 2.53682 12.2019 2.88928C12.1714 2.91974 12.1497 2.95456 12.1235 2.98501C12.4238 3.28526 12.7153 3.57245 13.0243 3.88575Z" />
  </g>
  <defs>
    <clipPath id="clip0_1908_7546">
      <rect width="16" height="16" fill="white"/>
    </clipPath>
  </defs>
</svg>