<svg xmlns="http://www.w3.org/2000/svg" width="24" height="24" viewBox="0 0 24 24" fill="none">
  <path d="M16.2092 15.9999H7.78921C7.4568 16.0004 7.13105 15.9068 6.84966 15.7298C6.56827 15.5528 6.34276 15.2998 6.19921 14.9999C6.03118 14.6442 5.96646 14.2484 6.01243 13.8577C6.0584 13.4669 6.21321 13.097 6.45921 12.7899L10.6692 7.68995C10.8344 7.49932 11.0387 7.34643 11.2682 7.24165C11.4976 7.13687 11.747 7.08264 11.9992 7.08264C12.2515 7.08264 12.5008 7.13687 12.7303 7.24165C12.9597 7.34643 13.164 7.49932 13.3292 7.68995L17.5392 12.7899C17.7852 13.097 17.94 13.4669 17.986 13.8577C18.032 14.2484 17.9672 14.6442 17.7992 14.9999C17.6557 15.2998 17.4302 15.5528 17.1488 15.7298C16.8674 15.9068 16.5416 16.0004 16.2092 15.9999Z" fill="#414141"/>
</svg>