<svg xmlns="http://www.w3.org/2000/svg" width="24" height="24" viewBox="0 0 24 24" fill="none">
  <path d="M15.0961 5.90383C14.4946 5.29114 13.7776 4.8037 12.9866 4.46966C12.1956 4.13562 11.3463 3.9616 10.4877 3.95766C9.62911 3.95371 8.77823 4.11992 7.98421 4.44667C7.1902 4.77343 6.46879 5.25426 5.86166 5.86139C5.25452 6.46853 4.77369 7.18994 4.44694 7.98395C4.12018 8.77796 3.95398 9.62885 3.95792 10.4875C3.96187 11.3461 4.13588 12.1954 4.46992 12.9864C4.80396 13.7773 5.2914 14.4943 5.90409 15.0958C7.12684 16.2963 8.77418 16.9654 10.4877 16.9575C12.2013 16.9496 13.8424 16.2655 15.054 15.0538C16.2657 13.8421 16.9499 12.201 16.9578 10.4875C16.9657 8.77391 16.2966 7.12658 15.0961 5.90383ZM4.49009 4.48983C6.02291 2.95739 8.08324 2.0684 10.2498 2.00466C12.4163 1.94091 14.5253 2.70723 16.1456 4.1469C17.7659 5.58656 18.7749 7.59082 18.9665 9.7498C19.158 11.9088 18.5176 14.0594 17.1761 15.7618L22.5211 21.1068L21.1071 22.5208L15.7621 17.1758C14.0591 18.5124 11.9103 19.1488 9.75415 18.9554C7.59796 18.762 5.5968 17.7532 4.15887 16.1349C2.72094 14.5166 1.95459 12.4107 2.01614 10.2467C2.07769 8.08275 2.9625 6.02379 4.49009 4.48983ZM11.5001 6.49983V9.49983H14.5001V11.4998H11.5001V14.4998H9.50009V11.4998H6.50009V9.49983H9.50009V6.49983H11.5001Z" fill="#B6B6B6"/>
</svg>