<svg width="167" height="189" viewBox="0 0 167 189" fill="none" xmlns="http://www.w3.org/2000/svg">
<g id="gibon 1" clip-path="url(#clip0_213_2416)">
<g id="Layer 1">
<g id="Group">
<path id="Vector" d="M58.8239 172.963C88.1654 174.608 113.109 154.798 114.536 128.715C115.963 102.632 93.3344 80.1546 63.9928 78.5097C34.6513 76.8647 9.70812 96.6755 8.28075 122.758C6.85337 148.841 29.4823 171.319 58.8239 172.963Z" fill="#FF3E9A"/>
<g id="Group_2">
<path id="Vector_2" d="M40.8595 130.313C48.0281 131.754 55.2012 126.152 56.881 117.798C58.5608 109.445 54.1113 101.505 46.9427 100.063C39.7742 98.6218 32.6011 104.225 30.9213 112.578C29.2414 120.931 33.691 128.871 40.8595 130.313Z" fill="white"/>
<path id="Vector_3" d="M70.549 136.285C77.7176 137.727 84.8906 132.124 86.5705 123.771C88.2503 115.418 83.8008 107.478 76.6322 106.036C69.4636 104.594 62.2906 110.197 60.6107 118.55C58.9309 126.904 63.3804 134.844 70.549 136.285Z" fill="white"/>
<path id="Vector_4" d="M48.952 116.795C50.5681 111.05 47.8867 105.272 42.9629 103.891C38.0392 102.51 32.7376 106.048 31.1215 111.793C29.5054 117.538 32.1868 123.315 37.1106 124.696C42.0344 126.078 47.336 122.54 48.952 116.795Z" fill="black"/>
<path id="Vector_5" d="M78.5861 122.984C80.3597 117.286 77.8382 111.438 72.954 109.923C68.0699 108.408 62.6726 111.799 60.899 117.498C59.1253 123.197 61.6469 129.045 66.5311 130.56C71.4152 132.075 76.8124 128.683 78.5861 122.984Z" fill="black"/>
<path id="Vector_6" d="M50.266 107.508L42.2381 112.958L52.1574 115.337L50.266 107.508Z" fill="white"/>
<path id="Vector_7" d="M80.0342 113.703L71.871 118.933L81.7239 121.574L80.0342 113.703Z" fill="white"/>
<path id="Vector_8" d="M30.7062 113.993C30.4858 114.814 29.6669 123.693 36.3527 128.281C40.6951 130.102 41.9271 127.89 41.9271 127.89C45.1096 129.3 48.891 119.422 49.4332 115.079L30.6929 113.99L30.7062 113.993Z" fill="black"/>
<path id="Vector_9" d="M60.3429 119.953C60.1225 120.775 59.3036 129.654 65.9894 134.242C70.3319 136.063 71.5638 133.851 71.5638 133.851C74.7463 135.26 78.5277 125.383 79.0699 121.04L60.3297 119.951L60.3429 119.953Z" fill="black"/>
</g>
<path id="Vector_10" d="M51.691 131.948C52.3741 129.519 47.0982 125.915 39.9069 123.898C32.7156 121.88 26.3321 122.214 25.649 124.642C24.9659 127.07 30.2418 130.674 37.4331 132.692C44.6244 134.709 51.0079 134.376 51.691 131.948Z" fill="#FF3E9A"/>
<path id="Vector_11" d="M71.6918 138.886C79.1185 139.678 85.354 138.286 85.6193 135.777C85.8846 133.268 80.0791 130.593 72.6523 129.801C65.2256 129.009 58.99 130.401 58.7248 132.91C58.4595 135.418 64.265 138.094 71.6918 138.886Z" fill="#FF3E9A"/>
<path id="Vector_12" d="M47.6473 133.852C48.0795 137.058 51.1503 139.16 54.1631 139.697C57.4279 140.285 60.7409 138.78 61.8324 135.55C62.0687 134.855 61.4212 134.093 60.7708 133.962C59.9745 133.802 59.4144 134.321 59.178 135.016C58.5938 136.754 56.3002 137.378 54.4953 137.015C52.6903 136.652 50.5828 135.459 50.3389 133.651C50.2355 132.929 49.6489 132.344 48.8924 132.398C48.1916 132.449 47.5332 133.114 47.6367 133.836L47.6473 133.852Z" fill="black"/>
<path id="Vector_13" d="M160.213 32.3699L124.986 18.8535C121.628 17.5598 114.804 16.2699 111.111 20.4199C109.969 21.7021 108.805 28.5185 108.805 28.5185L93.3768 105.238C92.6941 108.633 101.119 113.227 104.543 113.916C107.967 114.604 111.315 112.378 111.997 108.983L122.291 57.7968L150.687 68.6885C154.469 70.1363 158.642 67.8558 159.436 63.9062L164.298 39.7331C164.924 36.6157 163.202 33.5069 160.227 32.3725L160.213 32.3699Z" fill="#FF3E9A"/>
</g>
</g>
</g>
<defs>
<clipPath id="clip0_213_2416">
<rect width="137" height="165" fill="white" transform="translate(32.5312) rotate(11.3707)"/>
</clipPath>
</defs>
</svg>
