<svg xmlns="http://www.w3.org/2000/svg" width="130" height="158" viewBox="0 0 130 158" fill="none">
  <g clip-path="url(#clip0_3286_8285)">
    <path d="M124.741 6.34612L88.7937 0.247644C85.3665 -0.338748 78.6559 -0.260562 75.9481 4.37845C75.1109 5.81185 75.3071 12.4967 75.3071 12.4967V88.1803C75.3071 91.5293 84.163 94.2788 87.5379 94.2788C90.9128 94.2788 93.6599 91.5293 93.6599 88.1803V37.6855L122.635 42.5982C126.493 43.2497 130.012 40.2917 130.012 36.3954V12.5488C130.012 9.47354 127.788 6.85432 124.754 6.34612H124.741Z" fill="#FF3E9A"/>
    <path d="M57.8608 141.091C85.9699 137.056 105.825 113.517 102.208 88.5142C98.5914 63.5117 72.8724 46.5143 44.7633 50.5494C16.6541 54.5844 -3.20083 78.124 0.415949 103.126C4.03273 128.129 29.7517 145.126 57.8608 141.091Z" fill="#FF3E9A"/>
    <path d="M32.7152 104.065C39.7808 104.065 45.5085 97.385 45.5085 89.1447C45.5085 80.9043 39.7808 74.2242 32.7152 74.2242C25.6496 74.2242 19.9219 80.9043 19.9219 89.1447C19.9219 97.385 25.6496 104.065 32.7152 104.065Z" fill="white"/>
    <path d="M61.9769 104.065C69.0425 104.065 74.7702 97.385 74.7702 89.1447C74.7702 80.9043 69.0425 74.2242 61.9769 74.2242C54.9114 74.2242 49.1836 80.9043 49.1836 89.1447C49.1836 97.385 54.9114 104.065 61.9769 104.065Z" fill="white"/>
    <path d="M34.7688 83.4762L40.3413 78.8502C39.1248 76.4916 37.1365 74.7976 34.6903 74.3676C29.8241 73.4945 24.9579 77.8729 23.8199 84.1538C22.6818 90.4347 25.7036 96.2205 30.5697 97.0935C35.4359 97.9666 40.3021 93.5882 41.4401 87.3073C41.6102 86.33 41.6756 85.3657 41.6625 84.4405L34.7557 83.4762H34.7688Z" fill="black"/>
    <path d="M64.0705 83.1504L69.473 78.6678C68.2434 76.4004 66.3074 74.7976 63.9266 74.3676C59.0604 73.4945 54.1943 77.8729 53.0562 84.1538C51.9182 90.4347 54.9399 96.2205 59.8061 97.0935C64.6722 97.9666 69.5384 93.5882 70.6765 87.3073C70.8727 86.2127 70.9381 85.1442 70.8988 84.1017L64.0574 83.1504H64.0705Z" fill="black"/>
    <path d="M71.6842 100.286H17.8424C15.2705 100.286 13.1855 102.363 13.1855 104.925V104.938C13.1855 107.5 15.2705 109.577 17.8424 109.577H71.6842C74.2562 109.577 76.3411 107.5 76.3411 104.938V104.925C76.3411 102.363 74.2562 100.286 71.6842 100.286Z" fill="#FF3E9A"/>
    <path d="M47.2883 112.522C49.3039 112.522 50.9379 110.544 50.9379 108.105C50.9379 105.665 49.3039 103.687 47.2883 103.687C45.2727 103.687 43.6387 105.665 43.6387 108.105C43.6387 110.544 45.2727 112.522 47.2883 112.522Z" stroke="black" stroke-width="2" stroke-miterlimit="10"/>
    <path d="M21.8711 72.8821C28.3331 73.0385 33.8926 69.494 39.0335 66.0148C40.4201 65.0766 39.112 62.8222 37.7123 63.7604C32.9638 66.966 27.8491 70.4062 21.8711 70.2759C20.1836 70.2368 20.1836 72.843 21.8711 72.8821Z" fill="black"/>
    <path d="M54.9662 68.0606C56.0781 67.1484 57.7002 67.0051 59.0868 66.9269C60.5388 66.8487 62.0039 66.9008 63.4428 67.1093C66.4645 67.5524 69.3293 68.6339 71.9193 70.2367C73.3583 71.1228 74.6664 68.8685 73.2405 67.9824C70.1795 66.0799 66.7523 64.8941 63.1681 64.464C59.8716 64.0601 55.8034 64.008 53.1087 66.2102C51.8006 67.2787 53.6712 69.1161 54.9531 68.0475L54.9662 68.0606Z" fill="black"/>
    <path d="M34.3504 120.562C33.474 119.311 32.9507 117.813 32.8591 116.288C32.8199 115.65 32.8853 114.92 33.3693 114.503C33.8795 114.047 34.6774 114.112 35.3053 114.373C36.8096 114.998 37.7384 116.497 38.484 117.943C41.9374 115.102 46.2673 113.343 50.7279 112.965C51.552 112.9 52.4808 112.9 53.0825 113.473C53.9328 114.281 53.6189 115.78 52.7947 116.614C51.9706 117.448 50.8195 117.865 49.7992 118.438C50.3355 119.846 50.8849 121.344 50.6102 122.83C50.2832 124.576 48.8966 125.918 47.4446 126.947C45.7571 128.146 43.808 129.098 41.7412 129.228C39.6744 129.358 37.4506 128.537 36.3126 126.804C35.7762 125.996 35.5015 125.032 35.2399 124.107C34.926 123.025 34.6251 121.944 34.3111 120.862" fill="white"/>
    <path d="M35.0046 120.171C34.4945 119.402 32.4276 115.194 34.2982 114.92C35.9595 114.672 37.2284 117.174 37.8301 118.321C38.0787 118.79 38.6673 118.764 39.0336 118.477C41.7545 116.275 44.9724 114.75 48.4127 114.06C49.4462 113.851 52.8472 112.952 52.8342 114.777C52.8342 116.444 50.6235 117.135 49.42 117.787C49.1453 117.93 48.9491 118.334 49.0668 118.647C49.4854 119.754 49.9563 120.94 49.9171 122.152C49.8778 123.286 49.2892 124.263 48.5174 125.071C47.0654 126.57 45.0247 127.781 42.9972 128.277C41.1266 128.733 38.9944 128.459 37.5554 127.104C36.7444 126.335 36.3912 125.279 36.0773 124.224C35.7372 123.038 35.397 121.852 35.07 120.666C34.8084 119.728 33.3302 120.132 33.6049 121.07C34.3244 123.585 34.7168 126.778 36.8883 128.524C38.7197 129.984 41.1789 130.283 43.4158 129.749C45.8488 129.163 48.3997 127.638 50.0086 125.709C51.9316 123.403 51.5522 120.888 50.5581 118.256L50.2049 119.116C51.9316 118.178 54.0507 117.357 54.3385 115.141C54.6263 112.926 52.651 112.079 50.7543 112.222C46.0712 112.574 41.5975 114.49 37.974 117.422L39.1775 117.578C38.1964 115.702 36.038 112.483 33.448 113.617C30.8579 114.75 32.5977 119.285 33.7227 120.966C34.259 121.774 35.5802 121.018 35.0439 120.197L35.0046 120.171Z" fill="black"/>
    <path d="M34.664 122.817C25.625 122.569 16.3112 119.025 11.5889 110.919C11.0919 110.072 9.78374 110.841 10.2677 111.688C15.2647 120.263 25.0755 124.081 34.6509 124.341C35.632 124.367 35.632 122.843 34.6509 122.817H34.664Z" fill="black"/>
    <path d="M37.9738 140.943C36.1425 144.761 34.8213 148.787 34.0626 152.957L34.7951 152.397C32.5321 152.397 30.256 152.697 28.0714 153.296C27.0642 153.57 26.0177 153.882 25.0889 154.338C24.4087 154.664 23.7285 155.264 23.807 156.085C23.8855 156.905 24.5918 157.322 25.3244 157.505C26.384 157.779 27.5089 157.909 28.5947 157.974C30.8315 158.104 33.0684 157.831 35.2268 157.218C35.6323 157.101 35.8547 156.684 35.7631 156.28C35.4884 155.198 35.58 154.169 35.9724 153.127C36.3256 152.214 34.8474 151.81 34.5073 152.723C34.0233 154 33.9579 155.355 34.298 156.684L34.8343 155.746C33.2646 156.189 31.6556 156.449 30.0205 156.475C29.5103 156.475 25.3375 156.267 25.3898 155.902C25.4421 155.602 27.1557 155.172 27.3912 155.081C28.163 154.834 28.9479 154.612 29.7458 154.443C31.4202 154.078 33.1076 153.908 34.8082 153.908C35.1221 153.908 35.4884 153.674 35.5407 153.348C36.2733 149.308 37.516 145.386 39.295 141.685C39.7136 140.812 38.4055 140.03 37.9738 140.917V140.943Z" fill="black"/>
    <path d="M62.8282 140.135C64.1494 144.8 65.1566 149.543 65.8892 154.338C66.0069 155.107 66.1901 155.993 66.988 156.345C67.9298 156.762 69.1725 156.111 70.1144 155.928C72.4297 155.485 74.7974 155.511 77.1389 155.511C77.479 155.511 77.7668 155.277 77.8715 154.951C78.1593 154.026 77.8322 153.048 77.1259 152.41C76.3802 151.732 75.3599 151.563 74.3919 151.433C71.7757 151.107 69.1202 151.016 66.4778 151.12C65.4968 151.159 65.4968 152.67 66.4778 152.644C68.4008 152.579 70.3237 152.605 72.2466 152.749C73.1884 152.827 76.9558 152.788 76.4064 154.547L77.1389 153.987C75.0329 153.987 72.9268 153.987 70.8469 154.273C70.376 154.338 69.892 154.417 69.4211 154.508C68.924 154.612 68.3746 154.86 67.8775 154.899C67.6159 154.925 67.6682 154.977 67.5243 154.794C67.4458 154.69 67.4197 154.351 67.3935 154.221C67.3019 153.674 67.2235 153.127 67.1319 152.579C66.4255 148.24 65.4706 143.953 64.2802 139.731C64.0186 138.793 62.5404 139.196 62.8151 140.135H62.8282Z" fill="black"/>
    <path d="M85.1447 62.9526C83.8105 61.024 80.998 60.3985 78.8396 61.3367C76.6813 62.275 75.2554 64.5293 75.02 66.8619C74.7845 69.1944 75.6217 71.553 77.0083 73.4425C78.3949 75.332 80.3047 76.7914 82.3454 77.9642C82.9471 78.316 83.5881 78.6418 84.2683 78.6939C85.6941 78.7982 86.9368 77.6775 87.6563 76.4396C88.8728 74.3546 89.1214 71.8006 88.6505 69.442C88.1795 67.0834 87.0284 64.8942 85.6156 62.9526" fill="white"/>
    <path d="M85.8111 62.5616C83.9405 60.0075 80.2255 59.3951 77.5831 61.1543C74.7052 63.0568 73.698 66.7054 74.509 69.9501C75.4509 73.7291 78.4464 76.5307 81.7036 78.4593C83.208 79.3454 84.8169 79.8536 86.3997 78.8503C87.8256 77.9381 88.702 76.3613 89.186 74.7846C90.4941 70.4844 88.7805 66.0539 86.2689 62.5486C85.7064 61.7667 84.3853 62.5225 84.9477 63.3174C86.7268 65.7802 88.1264 68.634 88.1003 71.7354C88.0872 73.9767 86.6614 79.1109 83.4173 77.6644C78.5511 75.5013 72.8477 68.6861 77.1906 63.5129C78.9958 61.3628 82.6716 60.8676 84.4768 63.3304C85.0524 64.1123 86.3736 63.3565 85.798 62.5616H85.8111Z" fill="black"/>
    <path d="M87.3414 76.9086C89.6437 81.7821 91.9591 86.7209 93.6727 91.829C95.3863 96.9371 96.1843 102.163 94.3922 107.219C94.0651 108.144 95.5433 108.535 95.8572 107.622C97.6886 102.449 96.9299 96.8589 95.2424 91.7638C93.4765 86.4081 91.0434 81.2348 88.6365 76.1398C88.2179 75.2537 86.9098 76.0225 87.3153 76.9086H87.3414Z" fill="black"/>
  </g>
  <defs>
    <clipPath id="clip0_3286_8285">
      <rect width="130" height="158" fill="white"/>
    </clipPath>
  </defs>
</svg>