<svg xmlns="http://www.w3.org/2000/svg" viewBox="0 0 21 21" fill="none">
  <path d="M6.5625 13.7812V1.96875L7.875 2.625L9.1875 1.96875L10.4975 2.625L11.8252 1.96875L13.125 2.625L14.4289 1.96875L15.7385 2.625L17.0625 1.96875L18.3754 2.625L19.6875 1.96875V11.1562"  stroke-width="1.5" stroke-linejoin="round"/>
  <path d="M19.6875 11.1562V15.75C19.6875 16.6202 19.3418 17.4548 18.7265 18.0702C18.1111 18.6855 17.2765 19.0312 16.4063 19.0312M16.4063 19.0312C15.536 19.0312 14.7014 18.6855 14.0861 18.0702C13.4707 17.4548 13.125 16.6202 13.125 15.75V13.7812H1.96878C1.88238 13.7805 1.7967 13.7969 1.71674 13.8296C1.63677 13.8624 1.56412 13.9107 1.50303 13.9718C1.44194 14.0328 1.39363 14.1055 1.36092 14.1855C1.32821 14.2654 1.31176 14.3511 1.31253 14.4375C1.31253 17.0625 1.58897 19.0312 4.59378 19.0312H16.4063Z" stroke-width="1.5" stroke-linejoin="round"/>
  <path d="M9.1875 5.90625H17.0625M11.8125 9.1875H17.0625"  stroke-width="1.5" stroke-linecap="round" stroke-linejoin="round"/>
</svg>