<svg  viewBox="0 0 29 29" fill="none" xmlns="http://www.w3.org/2000/svg">
<path d="M23.9588 16.039V23.844C23.9588 24.4355 23.7239 25.0027 23.3057 25.4209C22.8875 25.8391 22.3203 26.074 21.7288 26.074H6.11869C5.52725 26.074 4.96004 25.8391 4.54183 25.4209C4.12362 25.0027 3.88867 24.4355 3.88867 23.844V8.23392C3.88867 7.64248 4.12362 7.07527 4.54183 6.65706C4.96004 6.23885 5.52725 6.00391 6.11869 6.00391H13.9238" stroke="#414141" stroke-width="2" stroke-linecap="round" stroke-linejoin="round"/>
<path d="M11.1105 15.4818C12.4401 15.4818 13.5179 14.404 13.5179 13.0744C13.5179 11.7448 12.4401 10.667 11.1105 10.667C9.78096 10.667 8.70312 11.7448 8.70312 13.0744C8.70312 14.404 9.78096 15.4818 11.1105 15.4818Z" stroke="#414141" stroke-width="2" stroke-linecap="round" stroke-linejoin="round"/>
<path d="M23.1477 19.5027L19.7798 16.1228C19.3705 15.7121 18.8154 15.4814 18.2366 15.4814C17.6578 15.4814 17.1027 15.7121 16.6934 16.1228L6.77734 26.074" stroke="#414141" stroke-width="2" stroke-linecap="round" stroke-linejoin="round"/>
<path d="M24.6245 8.5929C24.4497 8.34668 24.2679 8.16328 24.1753 7.94423C24.0092 7.55028 24.1893 7.09179 24.5493 6.86086C24.9024 6.63501 25.3954 6.66218 25.7275 6.94576C25.925 7.11387 26.1033 7.30066 26.2886 7.48065C26.7465 7.92216 27.2045 8.36366 27.6607 8.80686C28.11 9.24157 28.1117 9.80193 27.6695 10.2315C27.0699 10.8123 26.4686 11.393 25.8691 11.9738C25.3901 12.4374 24.8203 12.473 24.4025 12.0672C23.9935 11.6681 24.0249 11.123 24.4829 10.6646C24.5249 10.6221 24.5651 10.5797 24.649 10.4914C24.5021 10.4846 24.4008 10.4761 24.2994 10.4761C23.3013 10.4761 22.3014 10.4812 21.3034 10.4727C20.5744 10.4676 20.106 9.91061 20.2808 9.27553C20.3944 8.8612 20.7457 8.59799 21.2212 8.59629C22.2403 8.5895 23.2593 8.5929 24.2767 8.5929C24.3833 8.5929 24.4899 8.5929 24.6227 8.5929H24.6245Z" fill="#414141"/>
<path d="M20.3419 5.77018C20.473 5.90772 20.5499 5.98414 20.6233 6.06395C20.9799 6.4579 20.9746 7.00469 20.6093 7.36468C20.251 7.71788 19.6636 7.74165 19.2703 7.39524C18.9557 7.12015 18.6673 6.8179 18.3666 6.52752C18.0153 6.18961 17.6622 5.85339 17.3144 5.51207C16.9071 5.11302 16.8914 4.54077 17.2916 4.14681C17.9366 3.51343 18.5904 2.88854 19.2494 2.26704C19.5483 1.98516 19.9905 1.92572 20.3401 2.09214C20.6984 2.26194 20.9554 2.6542 20.8715 3.02778C20.8173 3.26211 20.6443 3.47098 20.5201 3.68833C20.4887 3.74437 20.4345 3.78852 20.3488 3.88701C20.5009 3.88701 20.5953 3.88701 20.6915 3.88701C21.6895 3.88701 22.6876 3.88531 23.6875 3.88701C24.3307 3.88871 24.766 4.27417 24.7625 4.82605C24.759 5.37962 24.322 5.76509 23.677 5.76678C22.6894 5.77188 21.7 5.76678 20.7124 5.76678C20.6145 5.76678 20.5149 5.76678 20.3454 5.76678L20.3419 5.77018Z" fill="#414141"/>
</svg>
