<svg viewBox="0 0 21 21" fill="none" xmlns="http://www.w3.org/2000/svg">
<path d="M18.375 13.125V4.375C18.375 3.91087 18.1906 3.46575 17.8624 3.13756C17.5342 2.80937 17.0891 2.625 16.625 2.625H4.375C3.91087 2.625 3.46575 2.80937 3.13756 3.13756C2.80937 3.46575 2.625 3.91087 2.625 4.375V16.625C2.625 17.0891 2.80937 17.5342 3.13756 17.8624C3.46575 18.1906 3.91087 18.375 4.375 18.375H13.125M18.375 13.125V13.2755C18.3749 13.7396 18.1905 14.1846 17.8622 14.5128L14.5128 17.8622C14.1846 18.1905 13.7396 18.3749 13.2755 18.375H13.125M18.375 13.125H14.875C14.4109 13.125 13.9658 13.3094 13.6376 13.6376C13.3094 13.9658 13.125 14.4109 13.125 14.875V18.375M6.125 6.125H14.875M6.125 9.625H14.875M6.125 13.125H9.625" stroke-width="2" stroke-linecap="round" stroke-linejoin="round"/>
</svg>
