<svg xmlns="http://www.w3.org/2000/svg" viewBox="0 0 18 18" fill="none">
  <path d="M1 8.98638C1.0039 4.58024 4.60361 0.992221 9.01364 1.00001C13.4198 1.0078 17.0078 4.60362 17 9.01365C16.9922 13.4198 13.3925 17.0078 8.98637 17C4.57634 16.9883 0.996107 13.3964 1 8.98638ZM8.99806 15.9988C12.851 15.9988 15.9949 12.8627 15.9988 9.00586C16.0027 5.15292 12.8666 2.00902 9.00974 2.00123C5.15291 1.99344 1.99732 5.14124 2.00122 9.00196C2.00122 12.8588 5.14123 15.9949 8.99806 15.9988Z"   stroke-width="0.5"/>
  <path d="M12.0209 9.24349C12.3364 9.24349 12.6325 9.24349 12.9286 9.24349C13.2636 9.24349 13.4857 9.44607 13.4818 9.74604C13.4818 10.0421 13.2519 10.2447 12.9208 10.2447C12.5273 10.2447 12.1299 10.2447 11.7326 10.2447C11.5806 10.7823 11.4287 11.3044 11.2807 11.8303C11.1833 12.177 11.0313 12.329 10.7781 12.3406C10.5249 12.3523 10.3574 12.2082 10.2366 11.8692C10.0613 11.3745 9.88207 10.8797 9.71455 10.385C9.67949 10.2798 9.63274 10.2408 9.51586 10.2408C9.17693 10.2486 8.838 10.2486 8.49906 10.2408C8.38219 10.2408 8.32765 10.272 8.28869 10.385C8.10559 10.9226 7.91859 11.4563 7.7238 11.9861C7.60693 12.3095 7.25631 12.4419 6.99139 12.2549C6.88621 12.1809 6.7966 12.0485 6.75765 11.9238C6.59792 11.4173 6.46157 10.907 6.31353 10.3966C6.29794 10.346 6.28236 10.2992 6.26678 10.2408C5.85382 10.2408 5.44866 10.2408 5.0435 10.2408C4.75911 10.2408 4.55263 10.0577 4.52146 9.80058C4.4864 9.5045 4.69677 9.25128 4.99675 9.24349C5.26556 9.23569 5.53826 9.24349 5.80707 9.24349C5.85772 9.24349 5.90836 9.24349 5.97849 9.24349C5.93174 9.08376 5.90057 8.94351 5.84993 8.81105C5.83824 8.77989 5.76812 8.75651 5.72526 8.75651C5.49541 8.75262 5.26556 8.75651 5.0396 8.75651C4.73184 8.75651 4.51367 8.54614 4.51367 8.25785C4.51367 7.97346 4.73184 7.76309 5.0396 7.75919C5.19933 7.75919 5.36295 7.75919 5.54216 7.75919C5.53047 7.70075 5.51878 7.65011 5.5071 7.60336C5.39022 7.18261 5.26556 6.76187 5.14868 6.34502C5.06298 6.03336 5.19543 5.77234 5.47593 5.68663C5.75253 5.60482 6.01745 5.75676 6.10705 6.06452C6.25898 6.58266 6.40702 7.1047 6.55117 7.62284C6.57844 7.72413 6.6174 7.76309 6.73038 7.75919C7.16281 7.7514 7.59524 7.7514 8.02767 7.75919C8.12896 7.75919 8.17571 7.72803 8.20688 7.63453C8.30038 7.35013 8.40167 7.06574 8.50685 6.78135C8.59646 6.52812 8.76787 6.39956 8.99772 6.39956C9.22758 6.39956 9.39899 6.52812 9.48859 6.78524C9.58988 7.06964 9.69507 7.35403 9.78857 7.63842C9.81973 7.73582 9.87038 7.76309 9.96777 7.76309C10.4041 7.75919 10.8443 7.75919 11.2807 7.76309C11.378 7.76309 11.4131 7.72803 11.4365 7.63842C11.5845 7.1086 11.7365 6.57877 11.8923 6.04894C11.9819 5.74507 12.2546 5.59703 12.5351 5.69053C12.7961 5.77624 12.9325 6.03725 12.8546 6.31775C12.7377 6.74239 12.613 7.16703 12.4922 7.59167C12.4767 7.64232 12.465 7.68907 12.4494 7.75919C12.6247 7.75919 12.7844 7.75919 12.9442 7.75919C13.2597 7.75919 13.4857 7.97346 13.4857 8.26175C13.4857 8.55393 13.2636 8.75651 12.9442 8.75651C12.7221 8.75651 12.4961 8.75651 12.2741 8.75651C12.1923 8.75651 12.1494 8.77989 12.1338 8.8617C12.1066 8.98636 12.0676 9.11103 12.0286 9.25128L12.0209 9.24349ZM6.90569 8.76041C6.94854 9.21232 6.97971 9.24349 7.39266 9.24349C7.4511 9.24349 7.50953 9.25128 7.56407 9.24349C7.59914 9.23569 7.64199 9.20842 7.65368 9.18115C7.70822 9.0487 7.75107 8.91234 7.80561 8.7643H6.90958L6.90569 8.76041ZM10.2171 8.76041C10.2639 9.17726 10.3379 9.24738 10.7275 9.24738C10.7859 9.24738 10.8443 9.25517 10.8989 9.24738C10.9339 9.23959 10.9807 9.21622 10.9924 9.18895C11.0391 9.05259 11.0703 8.91234 11.1131 8.7643H10.221L10.2171 8.76041ZM9.30159 9.23959C9.24705 9.08376 9.2042 8.94351 9.14966 8.81105C9.11849 8.72924 8.89254 8.71756 8.85748 8.79547C8.79904 8.93572 8.75229 9.07986 8.69775 9.23569H9.2977L9.30159 9.23959Z" />
</svg>