<svg xmlns="http://www.w3.org/2000/svg"  viewBox="0 0 16 16" fill="none">
  <path d="M14 10V3.33333C14 2.97971 13.8595 2.64057 13.6095 2.39052C13.3594 2.14048 13.0203 2 12.6667 2H3.33333C2.97971 2 2.64057 2.14048 2.39052 2.39052C2.14048 2.64057 2 2.97971 2 3.33333V12.6667C2 13.0203 2.14048 13.3594 2.39052 13.6095C2.64057 13.8595 2.97971 14 3.33333 14H10M14 10V10.1147C13.9999 10.4683 13.8594 10.8073 13.6093 11.0573L11.0573 13.6093C10.8073 13.8594 10.4683 13.9999 10.1147 14H10M14 10H11.3333C10.9797 10 10.6406 10.1405 10.3905 10.3905C10.1405 10.6406 10 10.9797 10 11.3333V14M4.66667 4.66667H11.3333M4.66667 7.33333H11.3333M4.66667 10H7.33333"  stroke-linecap="round" stroke-linejoin="round"/>
</svg>