<svg viewBox="0 0 20 20" fill="none" xmlns="http://www.w3.org/2000/svg">
<path d="M10.0003 1.66602C8.35215 1.66602 6.74099 2.15476 5.37058 3.07044C4.00017 3.98611 2.93206 5.2876 2.30133 6.81032C1.6706 8.33304 1.50558 10.0086 1.82712 11.6251C2.14866 13.2416 2.94234 14.7265 4.10777 15.8919C5.27321 17.0573 6.75807 17.851 8.37458 18.1726C9.99109 18.4941 11.6666 18.3291 13.1894 17.6983C14.7121 17.0676 16.0136 15.9995 16.9292 14.6291C17.8449 13.2587 18.3337 11.6475 18.3337 9.99935C18.3337 8.905 18.1181 7.82137 17.6993 6.81032C17.2805 5.79927 16.6667 4.88061 15.8929 4.10679C15.1191 3.33297 14.2004 2.71914 13.1894 2.30035C12.1783 1.88156 11.0947 1.66602 10.0003 1.66602ZM10.0003 16.666C8.23222 16.666 6.53653 15.9636 5.28628 14.7134C4.03604 13.4632 3.33366 11.7675 3.33366 9.99935C3.33182 8.5188 3.82784 7.08064 4.742 5.91602L14.0837 15.2577C12.919 16.1718 11.4809 16.6679 10.0003 16.666ZM15.2587 14.0827L5.917 4.74102C7.08162 3.82686 8.51978 3.33084 10.0003 3.33268C11.7684 3.33268 13.4641 4.03506 14.7144 5.2853C15.9646 6.53555 16.667 8.23124 16.667 9.99935C16.6688 11.4799 16.1728 12.9181 15.2587 14.0827Z" />
</svg>
