<?xml version="1.0" encoding="utf-8"?>
<!-- Generator: Adobe Illustrator 27.3.1, SVG Export Plug-In . SVG Version: 6.00 Build 0)  -->
<svg version="1.1" id="Layer_1" xmlns="http://www.w3.org/2000/svg" xmlns:xlink="http://www.w3.org/1999/xlink" x="0px" y="0px"
	 viewBox="0 0 31.6 30.6" style="enable-background:new 0 0 31.6 30.6;" xml:space="preserve">
<path class="st0" d="M12.6,22.7H5.3V8.9h16.4v2.7c0.1,0,0.2,0,0.2,0c0.7,0,1.3,0.1,2,0.2V6.6c0-1.3-1-2.3-2.3-2.3h-2.3V2H17v2.3h-7
	V2H7.7v2.3H5.3C4,4.3,3,5.3,3,6.6v16.1C3,24,4,25,5.3,25h8C13,24.3,12.7,23.5,12.6,22.7z"/>
<path class="st0" d="M26.9,16.1c-1.3-1.3-3.1-2-5-2s-3.6,0.7-4.9,2.1c-1.3,1.3-2.1,3.1-2.1,4.9c0,1.9,0.7,3.6,2.1,5
	c1.3,1.3,3.1,2,4.9,2s3.6-0.7,5-2c1.3-1.3,2-3.1,2-5C28.9,19.2,28.2,17.4,26.9,16.1z M20.6,17.5c0-0.7,0.6-1.3,1.4-1.3
	c0.7,0,1.3,0.6,1.3,1.3v3.3c0,0.7-0.6,1.3-1.3,1.3c-0.7,0-1.4-0.6-1.4-1.3V17.5z M21.9,25.9c-0.7,0-1.3-0.6-1.3-1.3
	c0-0.7,0.6-1.3,1.3-1.3s1.3,0.6,1.3,1.3C23.3,25.3,22.7,25.9,21.9,25.9z"/>
<g>
	<path class="st0" d="M13.1,17.7h-0.3c0,0,0,0.4,0,0.8C12.9,18.2,13,18,13.1,17.7z"/>
	<rect x="8" y="13" class="st0" width="2.4" height="2.3"/>
	<path class="st0" d="M15.2,14.4V13h-2.4v2.3h1.6C14.6,15,14.9,14.7,15.2,14.4z"/>
	<rect x="8" y="17.7" class="st0" width="2.4" height="2.3"/>
</g>
</svg>
