<svg xmlns="http://www.w3.org/2000/svg" width="23" height="23" viewBox="0 0 23 23" fill="none">
  <path d="M2.87466 7.90589C2.87455 7.07196 3.08174 6.25108 3.47759 5.51708C3.87343 4.78309 4.44552 4.15899 5.14239 3.70094C5.83926 3.24288 6.63906 2.96523 7.46986 2.89296C8.30065 2.82068 9.13638 2.95605 9.90188 3.28688C10.6674 3.61772 11.3386 4.13364 11.8553 4.78826C12.3719 5.44287 12.7178 6.21564 12.8617 7.03707C13.0056 7.85849 12.9431 8.7028 12.6797 9.49406C12.4164 10.2853 11.9605 10.9987 11.353 11.5701C12.4984 12.1259 13.4929 12.9497 14.2522 13.9717C15.0114 14.9937 15.513 16.1837 15.7144 17.4408C15.7366 17.5807 15.731 17.7236 15.698 17.8613C15.6649 17.999 15.6051 18.1289 15.5219 18.2435C15.4386 18.3581 15.3336 18.4552 15.2129 18.5292C15.0922 18.6032 14.958 18.6527 14.8181 18.6749C14.6782 18.6971 14.5354 18.6915 14.3976 18.6585C14.2599 18.6254 14.13 18.5656 14.0155 18.4824C13.9009 18.3991 13.8038 18.2942 13.7298 18.1734C13.6557 18.0527 13.6062 17.9185 13.584 17.7786C13.3684 16.4278 12.6783 15.1981 11.6376 14.3104C10.5969 13.4226 9.27381 12.935 7.90591 12.935C6.538 12.935 5.2149 13.4226 4.1742 14.3104C3.13351 15.1981 2.44339 16.4278 2.22778 17.7786C2.20551 17.9185 2.1559 18.0527 2.08179 18.1734C2.00767 18.2941 1.91051 18.399 1.79585 18.4822C1.68119 18.5653 1.55127 18.6251 1.41351 18.658C1.27575 18.691 1.13285 18.6965 0.992968 18.6742C0.853086 18.6519 0.718961 18.6023 0.598251 18.5282C0.47754 18.4541 0.37261 18.3569 0.289449 18.2423C0.206288 18.1276 0.146526 17.9977 0.113576 17.8599C0.0806248 17.7222 0.0751303 17.5793 0.0974057 17.4394C0.299137 16.1828 0.800882 14.9933 1.56011 13.9718C2.31933 12.9503 3.31365 12.127 4.45878 11.5715C3.95806 11.1014 3.55912 10.5335 3.28665 9.90296C3.01417 9.27245 2.87395 8.59275 2.87466 7.90589ZM15.8122 5.74964C16.6474 5.75023 17.4644 5.99325 18.1642 6.4492C18.864 6.90516 19.4163 7.55444 19.7542 8.31824C20.0922 9.08204 20.2011 9.9275 20.0678 10.752C19.9345 11.5765 19.5648 12.3446 19.0034 12.963C19.8784 13.3974 20.6558 14.0053 21.2885 14.7496C21.9211 15.4939 22.3957 16.3592 22.6834 17.2928C22.7404 17.474 22.7484 17.6671 22.7066 17.8524C22.6649 18.0377 22.5748 18.2087 22.4456 18.348C22.3164 18.4872 22.1527 18.5899 21.971 18.6454C21.7893 18.7009 21.5962 18.7074 21.4112 18.6641C21.2264 18.6211 21.0562 18.5301 20.9176 18.4004C20.7791 18.2707 20.6771 18.1069 20.622 17.9253C20.3644 17.0918 19.8949 16.3395 19.2594 15.7418C18.624 15.1442 17.8443 14.7216 16.9967 14.5155C16.7613 14.4587 16.5518 14.3243 16.4021 14.1339C16.2525 13.9435 16.1712 13.7083 16.1715 13.4661V12.9601C16.1714 12.7594 16.2273 12.5627 16.333 12.392C16.4386 12.2213 16.5898 12.0835 16.7695 11.9941C17.2053 11.7782 17.5553 11.4212 17.7626 10.9812C17.9699 10.5412 18.0224 10.0441 17.9115 9.5705C17.8006 9.09693 17.5328 8.67477 17.1517 8.37258C16.7706 8.07039 16.2985 7.90592 15.8122 7.90589C15.5262 7.90589 15.252 7.79231 15.0498 7.59012C14.8476 7.38793 14.734 7.11371 14.734 6.82777C14.734 6.54183 14.8476 6.26761 15.0498 6.06542C15.252 5.86323 15.5262 5.74964 15.8122 5.74964ZM7.90591 5.03089C7.52304 5.02224 7.14231 5.09016 6.78606 5.23067C6.42981 5.37118 6.10522 5.58144 5.83134 5.84912C5.55747 6.1168 5.33984 6.4365 5.19123 6.78945C5.04261 7.1424 4.966 7.52148 4.96591 7.90444C4.96581 8.2874 5.04223 8.66652 5.19067 9.01954C5.33911 9.37256 5.55658 9.69237 5.83032 9.96019C6.10405 10.228 6.42854 10.4384 6.78472 10.5791C7.1409 10.7198 7.5216 10.7879 7.90447 10.7795C8.65565 10.7628 9.37048 10.4528 9.89594 9.91575C10.4214 9.37868 10.7157 8.65724 10.7159 7.90588C10.7161 7.15451 10.4221 6.43293 9.89694 5.8956C9.37175 5.35826 8.65708 5.04788 7.90591 5.03089Z" fill="#8338EC"/>
</svg>