<svg viewBox="0 0 34 34" fill="none" xmlns="http://www.w3.org/2000/svg">
<path d="M17 0C13.6377 0 10.3509 0.997032 7.55531 2.86502C4.75968 4.733 2.58074 7.38804 1.29406 10.4944C0.00736584 13.6007 -0.329291 17.0189 0.326658 20.3165C0.982607 23.6142 2.6017 26.6433 4.97919 29.0208C7.35668 31.3983 10.3858 33.0174 13.6835 33.6733C16.9811 34.3293 20.3993 33.9926 23.5056 32.7059C26.612 31.4193 29.267 29.2403 31.135 26.4447C33.003 23.6491 34 20.3623 34 17C33.9952 12.4928 32.2026 8.17153 29.0156 4.98444C25.8285 1.79735 21.5072 0.0047597 17 0ZM8.18616 28.3606C9.13217 26.8811 10.4354 25.6635 11.9757 24.8201C13.516 23.9767 15.2439 23.5346 17 23.5346C18.7561 23.5346 20.484 23.9767 22.0243 24.8201C23.5646 25.6635 24.8678 26.8811 25.8138 28.3606C23.2938 30.3205 20.1924 31.3845 17 31.3845C13.8076 31.3845 10.7062 30.3205 8.18616 28.3606ZM11.7692 15.6923C11.7692 14.6578 12.076 13.6464 12.6508 12.7862C13.2255 11.9261 14.0425 11.2556 14.9983 10.8597C15.9541 10.4638 17.0058 10.3602 18.0205 10.562C19.0351 10.7639 19.9672 11.2621 20.6987 11.9936C21.4303 12.7251 21.9284 13.6572 22.1303 14.6718C22.3321 15.6865 22.2285 16.7382 21.8326 17.694C21.4367 18.6498 20.7663 19.4668 19.9061 20.0415C19.0459 20.6163 18.0346 20.9231 17 20.9231C15.6127 20.9231 14.2823 20.372 13.3013 19.391C12.3203 18.4101 11.7692 17.0796 11.7692 15.6923ZM27.7492 26.5478C26.2908 24.4344 24.24 22.7993 21.8548 21.8483C23.136 20.8391 24.071 19.4558 24.5296 17.8907C24.9882 16.3256 24.9477 14.6564 24.4137 13.1154C23.8797 11.5744 22.8787 10.2381 21.55 9.29228C20.2213 8.3465 18.6309 7.83827 17 7.83827C15.3691 7.83827 13.7787 8.3465 12.45 9.29228C11.1213 10.2381 10.1204 11.5744 9.58635 13.1154C9.05235 14.6564 9.01183 16.3256 9.47043 17.8907C9.92903 19.4558 10.864 20.8391 12.1452 21.8483C9.76 22.7993 7.70923 24.4344 6.25078 26.5478C4.40786 24.4754 3.20332 21.9144 2.7822 19.1732C2.36108 16.4321 2.74133 13.6276 3.87718 11.0976C5.01302 8.56752 6.85603 6.41975 9.18426 4.9129C11.5125 3.40604 14.2267 2.60434 17 2.60434C19.7733 2.60434 22.4875 3.40604 24.8157 4.9129C27.144 6.41975 28.987 8.56752 30.1228 11.0976C31.2587 13.6276 31.6389 16.4321 31.2178 19.1732C30.7967 21.9144 29.5921 24.4754 27.7492 26.5478Z" fill="#B6B6B6"/>
</svg>
