<svg xmlns="http://www.w3.org/2000/svg"  viewBox="0 0 20 20" fill="none">
  <g clip-path="url(#clip0_3209_7906)">
    <path d="M9.375 1.25V0.625C9.375 0.45924 9.44085 0.300269 9.55806 0.183058C9.67527 0.065848 9.83424 0 10 0C10.1658 0 10.3247 0.065848 10.4419 0.183058C10.5592 0.300269 10.625 0.45924 10.625 0.625V1.25C10.625 1.41576 10.5592 1.57473 10.4419 1.69194C10.3247 1.80915 10.1658 1.875 10 1.875C9.83424 1.875 9.67527 1.80915 9.55806 1.69194C9.44085 1.57473 9.375 1.41576 9.375 1.25ZM15.625 3.75C15.7071 3.75006 15.7884 3.73395 15.8643 3.70259C15.9402 3.67122 16.0091 3.62521 16.0672 3.56719L16.6922 2.94219C16.8095 2.82491 16.8753 2.66585 16.8753 2.5C16.8753 2.33415 16.8095 2.17509 16.6922 2.05781C16.5749 1.94054 16.4159 1.87465 16.25 1.87465C16.0841 1.87465 15.9251 1.94054 15.8078 2.05781L15.1828 2.68281C15.0953 2.77022 15.0357 2.88163 15.0115 3.00293C14.9874 3.12424 14.9998 3.24998 15.0471 3.36424C15.0945 3.47851 15.1746 3.57616 15.2775 3.64483C15.3804 3.71349 15.5013 3.7501 15.625 3.75ZM3.93281 3.56719C4.05009 3.68446 4.20915 3.75035 4.375 3.75035C4.54085 3.75035 4.69991 3.68446 4.81719 3.56719C4.93446 3.44991 5.00035 3.29085 5.00035 3.125C5.00035 2.95915 4.93446 2.80009 4.81719 2.68281L4.19219 2.05781C4.07491 1.94054 3.91585 1.87465 3.75 1.87465C3.58415 1.87465 3.42509 1.94054 3.30781 2.05781C3.19054 2.17509 3.12465 2.33415 3.12465 2.5C3.12465 2.66585 3.19054 2.82491 3.30781 2.94219L3.93281 3.56719ZM10.7297 5.63359C10.6484 5.61922 10.565 5.62109 10.4845 5.63911C10.4039 5.65712 10.3277 5.69092 10.2603 5.73856C10.1928 5.7862 10.1355 5.84672 10.0916 5.91664C10.0477 5.98656 10.018 6.06448 10.0044 6.14592C9.99079 6.22735 9.99344 6.31067 10.0122 6.39107C10.031 6.47148 10.0655 6.54737 10.1137 6.61436C10.162 6.68135 10.223 6.73812 10.2934 6.78138C10.3637 6.82464 10.4419 6.85354 10.5234 6.86641C12.0055 7.11562 13.125 8.4625 13.125 10C13.125 10.1658 13.1908 10.3247 13.3081 10.4419C13.4253 10.5592 13.5842 10.625 13.75 10.625C13.9158 10.625 14.0747 10.5592 14.1919 10.4419C14.3092 10.3247 14.375 10.1658 14.375 10C14.375 7.85938 12.807 5.98203 10.7281 5.63359H10.7297ZM18.125 13.75V15.625C18.125 15.9565 17.9933 16.2745 17.7589 16.5089C17.5245 16.7433 17.2065 16.875 16.875 16.875H3.125C2.79348 16.875 2.47554 16.7433 2.24112 16.5089C2.0067 16.2745 1.875 15.9565 1.875 15.625V13.75C1.875 13.4185 2.0067 13.1005 2.24112 12.8661C2.47554 12.6317 2.79348 12.5 3.125 12.5V10C3.12497 9.09274 3.30452 8.19445 3.65329 7.3569C4.00206 6.51936 4.51315 5.75913 5.15711 5.12004C5.80107 4.48095 6.56515 3.97564 7.40532 3.63323C8.24548 3.29082 9.14511 3.11809 10.0523 3.125C13.8141 3.15313 16.875 6.27266 16.875 10.0781V12.5C17.2065 12.5 17.5245 12.6317 17.7589 12.8661C17.9933 13.1005 18.125 13.4185 18.125 13.75ZM4.375 12.5H15.625V10.0781C15.625 6.95312 13.1211 4.39766 10.043 4.375H10C8.50816 4.375 7.07742 4.96763 6.02252 6.02252C4.96763 7.07742 4.375 8.50816 4.375 10V12.5ZM16.875 15.625V13.75H3.125V15.625H16.875Z"  stroke-width="0.5"/>
  </g>
  <defs>
    <clipPath id="clip0_3209_7906">
      <rect width="20" height="20" fill="white"/>
    </clipPath>
  </defs>
</svg>