<svg xmlns="http://www.w3.org/2000/svg"  viewBox="0 0 117 107" fill="none">
  <g clip-path="url(#clip0_1269_3324)">
    <path d="M46.7711 106.995C36.7989 106.995 26.8267 106.964 16.8596 107.005C6.94345 107.041 -0.872186 98.4849 0.0760904 88.5557C0.127073 88.0055 0.127073 87.4451 0.127073 86.8897C0.127073 72.0807 0.116876 57.2769 0.142368 42.4679C0.142368 39.9998 -0.000383524 37.4699 0.473755 35.0789C2.00833 27.3607 8.8451 21.9051 16.6403 21.8896C17.9557 21.8896 19.271 21.8896 20.5864 21.9668C21.4327 22.013 21.7488 21.7354 21.861 20.8561C22.2127 18.1463 22.432 15.385 23.1406 12.7626C25.8223 2.92077 33.8572 -1.05914 42.7995 0.236646C50.1869 1.30618 57.5743 2.35515 64.9617 3.40412C72.5173 4.4788 80.0729 5.5432 87.6336 6.61273C92.6707 7.32747 97.7384 7.8571 102.735 8.79294C113.191 10.752 118.172 19.1129 116.765 28.9805C115.582 37.3157 114.405 45.656 113.257 53.9963C112.115 62.2955 111.086 70.6153 109.882 78.9042C108.847 86.0413 103.076 91.6101 95.9285 92.5562C95.1689 92.6591 94.7865 92.875 94.5979 93.7389C92.9664 101.308 87.7917 105.92 80.1086 106.656C78.1305 106.846 76.132 106.887 74.1385 106.892C65.0177 106.918 55.8919 106.902 46.7711 106.902C46.7711 106.933 46.7711 106.959 46.7711 106.99V106.995ZM47.5664 98.6855C57.0288 98.6855 66.4911 98.6958 75.9586 98.6752C77.2689 98.6752 78.5893 98.5981 79.8894 98.413C83.8405 97.8525 86.201 95.4666 86.7669 91.4713C86.9454 90.2063 87.0218 88.9157 87.0269 87.6353C87.0422 72.1836 87.0422 56.737 87.0269 41.2853C87.0269 39.9638 86.9454 38.632 86.7567 37.3259C86.2214 33.6031 84.1872 31.3664 80.5471 30.6259C79.0227 30.3174 77.432 30.194 75.8719 30.1888C57.0747 30.158 38.2723 30.1683 19.475 30.1785C18.2463 30.1785 17.0125 30.2557 15.794 30.3997C11.6593 30.8779 9.25296 33.1506 8.57489 37.2848C8.35567 38.6269 8.29959 40.0101 8.29959 41.3727C8.27919 56.737 8.28429 72.1013 8.28939 87.4656C8.28939 88.4066 8.29959 89.3527 8.36586 90.2886C8.70235 95.1735 11.1291 97.8216 15.8858 98.4695C17.0176 98.6238 18.1698 98.6752 19.3118 98.6752C28.7334 98.6906 38.155 98.6855 47.5766 98.6855H47.5664ZM95.1791 84.3753C97.6823 83.9999 99.482 82.807 100.41 80.6988C101.17 78.9659 101.725 77.0788 102.011 75.2071C103.076 68.1934 103.994 61.1591 104.973 54.1352C106.237 45.0338 107.685 35.9582 108.705 26.8311C109.291 21.6068 107.272 18.861 102.847 17.3132C101.266 16.7631 99.5381 16.6139 97.8658 16.3774C87.965 14.9582 78.0591 13.575 68.1583 12.1661C59.2618 10.9012 50.3755 9.5591 41.4689 8.38158C37.8236 7.89823 34.4486 8.46386 32.2359 12.0118C30.3394 15.0559 30.5688 18.5165 29.8907 21.9565C30.4974 21.9565 30.8696 21.9565 31.2469 21.9565C46.9393 21.9359 62.6369 21.9308 78.3293 21.8845C85.8186 21.8639 92.3036 26.5946 94.5469 33.7574C95.3422 36.3027 95.2046 38.8942 95.1944 41.5064C95.1587 55.323 95.1791 69.1447 95.1791 82.9612V84.3804V84.3753Z" />
    <path d="M51.7008 68.5789C51.7008 70.209 51.7008 71.7001 51.7008 73.1862C51.7008 74.9396 51.7416 76.6982 51.6652 78.4465C51.5785 80.4518 49.9623 82.0613 47.9995 82.2361C45.9857 82.4161 44.0789 81.0586 43.7119 79.0275C43.5232 77.9888 43.564 76.8987 43.5538 75.8343C43.5334 73.4844 43.5487 71.1345 43.5487 68.6407C43.0287 68.6201 42.5801 68.5841 42.1314 68.5789C39.5415 68.5738 36.9567 68.5995 34.3668 68.5687C31.787 68.5327 29.967 66.7638 29.9925 64.3934C30.0179 62.0537 31.7921 60.3826 34.3413 60.362C37.3441 60.3363 40.3521 60.3569 43.4774 60.3569C43.5028 59.7913 43.5436 59.3388 43.5487 58.8863C43.5538 56.2741 43.5283 53.6671 43.5589 51.055C43.5895 48.4686 45.3739 46.5866 47.6936 46.6226C49.998 46.6586 51.6805 48.4737 51.7008 51.0241C51.7263 54.0579 51.7059 57.0917 51.7059 60.2797C52.2362 60.3106 52.6797 60.3517 53.1284 60.3517C55.7183 60.3569 58.3031 60.3415 60.893 60.362C63.488 60.3826 65.3336 62.1103 65.3183 64.4653C65.303 66.8101 63.4472 68.5481 60.8624 68.5738C58.3184 68.5995 55.7693 68.5789 53.2252 68.5789C52.7715 68.5789 52.3177 68.5789 51.711 68.5789H51.7008Z" />
  </g>
  <defs>
    <clipPath id="clip0_1269_3324">
      <rect width="117" height="107" fill="white"/>
    </clipPath>
  </defs>
</svg>