<svg xmlns="http://www.w3.org/2000/svg" width="641" height="13" viewBox="0 0 641 13" fill="none">
  <path d="M0 6.4999L1.6025 5.39687L3.205 4.3548L4.8075 3.43126L6.41 2.6773L8.0125 2.13457L9.615 1.83307L11.2175 1.78947L12.82 2.00616L14.4225 2.47118L16.025 3.15882L17.6275 4.0311L19.23 5.0398L20.8325 6.12918L22.435 7.23906L24.0375 8.30808L25.64 9.27719L27.2425 10.0928L28.845 10.7099L30.4475 11.0944L32.05 11.2249L33.6525 11.0944L35.255 10.7099L36.8575 10.0928L38.46 9.27719L40.0625 8.30808L41.665 7.23906L43.2675 6.12918L44.87 5.0398L46.4725 4.0311L48.075 3.15882L49.6775 2.47118L51.28 2.00616L52.8825 1.78947L54.485 1.83307L56.0875 2.13457L57.69 2.6773L59.2925 3.43126L60.895 4.3548L62.4975 5.39687L64.1 6.4999L65.7025 7.60293L67.305 8.64501L68.9075 9.56854L70.51 10.3225L72.1125 10.8652L73.715 11.1667L75.3175 11.2103L76.92 10.9936L78.5225 10.5286L80.125 9.84098L81.7275 8.96871L83.33 7.96001L84.9325 6.87062L86.535 5.76075L88.1375 4.69172L89.74 3.72262L91.3425 2.90699L92.945 2.2899L94.5475 1.90546L96.15 1.7749L97.7525 1.90546L99.355 2.2899L100.958 2.90699L102.56 3.72262L104.163 4.69172L105.765 5.76075L107.368 6.87062L108.97 7.96001L110.573 8.96871L112.175 9.84098L113.778 10.5286L115.38 10.9936L116.983 11.2103L118.585 11.1667L120.188 10.8652L121.79 10.3225L123.393 9.56854L124.995 8.64501L126.598 7.60293L128.2 6.4999L129.803 5.39687L131.405 4.3548L133.008 3.43126L134.61 2.6773L136.213 2.13457L137.815 1.83307L139.418 1.78947L141.02 2.00616L142.623 2.47118L144.225 3.15882L145.828 4.0311L147.43 5.0398L149.033 6.12918L150.635 7.23906L152.238 8.30808L153.84 9.27719L155.443 10.0928L157.045 10.7099L158.648 11.0944L160.25 11.2249L161.853 11.0944L163.455 10.7099L165.058 10.0928L166.66 9.27719L168.263 8.30808L169.865 7.23906L171.468 6.12918L173.07 5.0398L174.673 4.0311L176.275 3.15882L177.878 2.47118L179.48 2.00616L181.083 1.78947L182.685 1.83307L184.288 2.13457L185.89 2.6773L187.493 3.43126L189.095 4.3548L190.698 5.39687L192.3 6.4999L193.903 7.60293L195.505 8.64501L197.108 9.56854L198.71 10.3225L200.313 10.8652L201.915 11.1667L203.518 11.2103L205.12 10.9936L206.723 10.5286L208.325 9.84098L209.928 8.96871L211.53 7.96001L213.133 6.87062L214.735 5.76075L216.338 4.69172L217.94 3.72262L219.543 2.90699L221.145 2.2899L222.748 1.90546L224.35 1.7749L225.953 1.90546L227.555 2.2899L229.158 2.90699L230.76 3.72262L232.363 4.69172L233.965 5.76075L235.568 6.87062L237.17 7.96001L238.773 8.96871L240.375 9.84098L241.978 10.5286L243.58 10.9936L245.183 11.2103L246.785 11.1667L248.388 10.8652L249.99 10.3225L251.593 9.56854L253.195 8.64501L254.798 7.60293L256.4 6.4999L258.003 5.39687L259.605 4.3548L261.208 3.43126L262.81 2.6773L264.413 2.13457L266.015 1.83307L267.618 1.78947L269.22 2.00616L270.823 2.47118L272.425 3.15882L274.028 4.0311L275.63 5.0398L277.233 6.12918L278.835 7.23906L280.438 8.30808L282.04 9.27719L283.643 10.0928L285.245 10.7099L286.848 11.0944L288.45 11.2249L290.053 11.0944L291.655 10.7099L293.258 10.0928L294.86 9.27719L296.463 8.30808L298.065 7.23906L299.668 6.12918L301.27 5.0398L302.873 4.0311L304.475 3.15882L306.078 2.47118L307.68 2.00616L309.283 1.78947L310.885 1.83307L312.488 2.13457L314.09 2.6773L315.693 3.43126L317.295 4.3548L318.898 5.39687L320.5 6.4999L322.103 7.60293L323.705 8.64501L325.308 9.56854L326.91 10.3225L328.513 10.8652L330.115 11.1667L331.718 11.2103L333.32 10.9936L334.923 10.5286L336.525 9.84098L338.128 8.96871L339.73 7.96001L341.333 6.87062L342.935 5.76075L344.538 4.69172L346.14 3.72262L347.743 2.90699L349.345 2.2899L350.948 1.90546L352.55 1.7749L354.153 1.90546L355.755 2.2899L357.358 2.90699L358.96 3.72262L360.563 4.69172L362.165 5.76075L363.768 6.87062L365.37 7.96001L366.973 8.96871L368.575 9.84098L370.178 10.5286L371.78 10.9936L373.383 11.2103L374.985 11.1667L376.588 10.8652L378.19 10.3225L379.793 9.56854L381.395 8.64501L382.998 7.60293L384.6 6.4999L386.203 5.39687L387.805 4.3548L389.408 3.43126L391.01 2.6773L392.613 2.13457L394.215 1.83307L395.818 1.78947L397.42 2.00616L399.023 2.47118L400.625 3.15882L402.228 4.0311L403.83 5.0398L405.433 6.12918L407.035 7.23906L408.638 8.30808L410.24 9.27719L411.843 10.0928L413.445 10.7099L415.048 11.0944L416.65 11.2249L418.253 11.0944L419.855 10.7099L421.458 10.0928L423.06 9.27719L424.663 8.30808L426.265 7.23906L427.868 6.12918L429.47 5.0398L431.073 4.0311L432.675 3.15882L434.278 2.47118L435.88 2.00616L437.483 1.78947L439.085 1.83307L440.688 2.13457L442.29 2.6773L443.893 3.43126L445.495 4.3548L447.098 5.39687L448.7 6.4999L450.303 7.60293L451.905 8.64501L453.508 9.56854L455.11 10.3225L456.713 10.8652L458.315 11.1667L459.918 11.2103L461.52 10.9936L463.123 10.5286L464.725 9.84098L466.328 8.96871L467.93 7.96001L469.533 6.87062L471.135 5.76075L472.738 4.69172L474.34 3.72262L475.943 2.90699L477.545 2.2899L479.148 1.90546L480.75 1.7749L482.353 1.90546L483.955 2.2899L485.558 2.90699L487.16 3.72262L488.763 4.69172L490.365 5.76075L491.968 6.87062L493.57 7.96001L495.173 8.96871L496.775 9.84098L498.378 10.5286L499.98 10.9936L501.583 11.2103L503.185 11.1667L504.788 10.8652L506.39 10.3225L507.993 9.56854L509.595 8.64501L511.198 7.60293L512.8 6.4999L514.403 5.39687L516.005 4.3548L517.608 3.43126L519.21 2.6773L520.812 2.13457L522.415 1.83307L524.018 1.78947L525.62 2.00616L527.223 2.47118L528.825 3.15882L530.428 4.0311L532.03 5.0398L533.633 6.12918L535.235 7.23906L536.838 8.30808L538.44 9.27719L540.043 10.0928L541.645 10.7099L543.247 11.0944L544.85 11.2249L546.453 11.0944L548.055 10.7099L549.658 10.0928L551.26 9.27719L552.863 8.30808L554.465 7.23906L556.068 6.12918L557.67 5.0398L559.273 4.0311L560.875 3.15882L562.478 2.47118L564.08 2.00616L565.683 1.78947L567.285 1.83307L568.888 2.13457L570.49 2.6773L572.093 3.43126L573.695 4.3548L575.298 5.39687L576.9 6.4999L578.503 7.60293L580.105 8.64501L581.708 9.56854L583.31 10.3225L584.913 10.8652L586.515 11.1667L588.118 11.2103L589.72 10.9936L591.323 10.5286L592.925 9.84098L594.528 8.96871L596.13 7.96001L597.733 6.87062L599.335 5.76075L600.938 4.69172L602.54 3.72262L604.143 2.90699L605.745 2.2899L607.348 1.90546L608.95 1.7749L610.553 1.90546L612.155 2.2899L613.758 2.90699L615.36 3.72262L616.963 4.69172L618.565 5.76075L620.168 6.87062L621.77 7.96001L623.373 8.96871L624.975 9.84098L626.578 10.5286L628.18 10.9936L629.783 11.2103L631.385 11.1667L632.988 10.8652L634.59 10.3225L636.193 9.56854L637.795 8.64501L639.398 7.60293" stroke="#8338EC" stroke-opacity="0.1" stroke-width="2" stroke-miterlimit="10" stroke-linecap="round" stroke-linejoin="round"/>
</svg>