<svg xmlns="http://www.w3.org/2000/svg"  viewBox="0 0 34 34" fill="none">
  <path d="M24.5791 20.581C24.3125 20.8494 23.9518 21 23.5759 21C23.2 21 22.8394 20.8494 22.5728 20.581L17.4644 15.4806L12.4272 20.581C12.1606 20.8494 11.8 21 11.4241 21C11.0482 21 10.6875 20.8494 10.4209 20.581C10.2875 20.4471 10.1817 20.2877 10.1094 20.1122C10.0372 19.9366 10 19.7483 10 19.5581C10 19.3679 10.0372 19.1796 10.1094 19.004C10.1817 18.8284 10.2875 18.6691 10.4209 18.5351L16.4541 12.4262C16.5864 12.2911 16.7438 12.184 16.9172 12.1108C17.0906 12.0377 17.2766 12 17.4644 12C17.6523 12 17.8383 12.0377 18.0117 12.1108C18.1851 12.184 18.3424 12.2911 18.4747 12.4262L24.5791 18.5351C24.7125 18.6691 24.8183 18.8284 24.8906 19.004C24.9628 19.1796 25 19.3679 25 19.5581C25 19.7483 24.9628 19.9366 24.8906 20.1122C24.8183 20.2877 24.7125 20.4471 24.5791 20.581Z" />
</svg>