<svg xmlns="http://www.w3.org/2000/svg" width="21" height="21" viewBox="0 0 21 21" fill="none">
  <path d="M4.375 18.375C3.89375 18.375 3.48163 18.2035 3.13863 17.8605C2.79563 17.5175 2.62442 17.1057 2.625 16.625V14H4.375V16.625H16.625V6.125H4.375V8.75H2.625V4.375C2.625 3.89375 2.7965 3.48163 3.1395 3.13863C3.4825 2.79563 3.89433 2.62442 4.375 2.625H16.625C17.1063 2.625 17.5184 2.7965 17.8614 3.1395C18.2044 3.4825 18.3756 3.89433 18.375 4.375V16.625C18.375 17.1063 18.2035 17.5184 17.8605 17.8614C17.5175 18.2044 17.1057 18.3756 16.625 18.375H4.375ZM10.0625 15.3125L8.8375 14.0875L10.6531 12.25H2.625V10.5H10.6531L8.8375 8.6625L10.0625 7.4375L14 11.375L10.0625 15.3125Z" />
</svg>