<svg xmlns="http://www.w3.org/2000/svg" width="19" height="19" viewBox="0 0 19 19" fill="none">
  <path d="M9.50008 1.625L9.50883 10.8562C8.99258 10.5588 8.39758 10.375 7.75883 10.375C7.29262 10.3646 6.82902 10.4474 6.39526 10.6186C5.9615 10.7898 5.56631 11.046 5.2329 11.372C4.89949 11.698 4.63458 12.0874 4.45371 12.5172C4.27285 12.947 4.17969 13.4087 4.17969 13.875C4.17969 14.3413 4.27285 14.803 4.45371 15.2328C4.63458 15.6626 4.89949 16.052 5.2329 16.378C5.56631 16.704 5.9615 16.9602 6.39526 17.1314C6.82902 17.3026 7.29262 17.3854 7.75883 17.375C9.70133 17.375 11.2501 15.8088 11.2501 13.875V5.125H14.7501V1.625H9.50008ZM7.75883 15.625C6.79633 15.625 6.00883 14.8375 6.00883 13.875C6.00883 12.9125 6.79633 12.125 7.75883 12.125C8.72133 12.125 9.50883 12.9125 9.50883 13.875C9.50883 14.8375 8.72133 15.625 7.75883 15.625Z" fill="#8338EC"/>
</svg>