<svg xmlns="http://www.w3.org/2000/svg" width="21" height="21" viewBox="0 0 21 21" fill="none">
  <path d="M10.5 1.75C8.64348 1.75 6.86301 2.4875 5.55025 3.80025C4.2375 5.11301 3.5 6.89348 3.5 8.75C3.5 13.475 9.66875 18.8125 9.93125 19.04C10.0897 19.1756 10.2914 19.2501 10.5 19.2501C10.7086 19.2501 10.9103 19.1756 11.0687 19.04C11.375 18.8125 17.5 13.475 17.5 8.75C17.5 6.89348 16.7625 5.11301 15.4497 3.80025C14.137 2.4875 12.3565 1.75 10.5 1.75ZM10.5 17.1937C8.63625 15.4437 5.25 11.6725 5.25 8.75C5.25 7.35761 5.80312 6.02226 6.78769 5.03769C7.77226 4.05312 9.10761 3.5 10.5 3.5C11.8924 3.5 13.2277 4.05312 14.2123 5.03769C15.1969 6.02226 15.75 7.35761 15.75 8.75C15.75 11.6725 12.3638 15.4525 10.5 17.1937ZM10.5 5.25C9.80777 5.25 9.13108 5.45527 8.5555 5.83986C7.97993 6.22444 7.53133 6.77107 7.26642 7.41061C7.00151 8.05015 6.9322 8.75388 7.06725 9.43282C7.2023 10.1117 7.53564 10.7354 8.02513 11.2249C8.51461 11.7144 9.13825 12.0477 9.81718 12.1827C10.4961 12.3178 11.1999 12.2485 11.8394 11.9836C12.4789 11.7187 13.0256 11.2701 13.4101 10.6945C13.7947 10.1189 14 9.44223 14 8.75C14 7.82174 13.6313 6.9315 12.9749 6.27513C12.3185 5.61875 11.4283 5.25 10.5 5.25ZM10.5 10.5C10.1539 10.5 9.81554 10.3974 9.52775 10.2051C9.23997 10.0128 9.01566 9.73947 8.88321 9.4197C8.75076 9.09993 8.7161 8.74806 8.78363 8.40859C8.85115 8.06913 9.01782 7.75731 9.26256 7.51256C9.50731 7.26782 9.81913 7.10115 10.1586 7.03363C10.4981 6.9661 10.8499 7.00076 11.1697 7.13321C11.4895 7.26566 11.7628 7.48997 11.9551 7.77775C12.1474 8.06554 12.25 8.40388 12.25 8.75C12.25 9.21413 12.0656 9.65925 11.7374 9.98744C11.4092 10.3156 10.9641 10.5 10.5 10.5Z" fill="#8338EC"/>
</svg>