<svg xmlns="http://www.w3.org/2000/svg" width="19" height="19" viewBox="0 0 19 19" fill="none">
  <g clip-path="url(#clip0_772_5948)">
    <path d="M9.5 19C6.98044 19 4.56408 17.9991 2.78249 16.2175C1.00089 14.4359 0 12.0196 0 9.5C0 6.98044 1.00089 4.56408 2.78249 2.78249C4.56408 1.00089 6.98044 0 9.5 0C12.0196 0 14.4359 1.00089 16.2175 2.78249C17.9991 4.56408 19 6.98044 19 9.5C19 12.0196 17.9991 14.4359 16.2175 16.2175C14.4359 17.9991 12.0196 19 9.5 19ZM9.5 17.1C11.5156 17.1 13.4487 16.2993 14.874 14.874C16.2993 13.4487 17.1 11.5156 17.1 9.5C17.1 7.48435 16.2993 5.55126 14.874 4.12599C13.4487 2.70071 11.5156 1.9 9.5 1.9C7.48435 1.9 5.55126 2.70071 4.12599 4.12599C2.70071 5.55126 1.9 7.48435 1.9 9.5C1.9 11.5156 2.70071 13.4487 4.12599 14.874C5.55126 16.2993 7.48435 17.1 9.5 17.1ZM8.55 9.8895V3.8H10.45V9.1105L14.2025 12.863L12.863 14.2025L8.55 9.8895Z" />
  </g>
  <defs>
    <clipPath id="clip0_772_5948">
      <rect width="19" height="19" fill="white"/>
    </clipPath>
  </defs>
</svg>