<svg  viewBox="0 0 24 24" fill="none" xmlns="http://www.w3.org/2000/svg">
<path d="M6.66655 19.6261C8.13924 19.6261 9.33309 18.4322 9.33309 16.9595C9.33309 15.4868 8.13924 14.293 6.66655 14.293C5.19385 14.293 4 15.4868 4 16.9595C4 18.4322 5.19385 19.6261 6.66655 19.6261Z"  stroke-width="2" stroke-linecap="round" stroke-linejoin="round"/>
<path d="M17.3326 18.7354C18.8053 18.7354 19.9991 17.5416 19.9991 16.0689C19.9991 14.5962 18.8053 13.4023 17.3326 13.4023C15.8599 13.4023 14.666 14.5962 14.666 16.0689C14.666 17.5416 15.8599 18.7354 17.3326 18.7354Z"  stroke-width="2" stroke-linecap="round" stroke-linejoin="round"/>
<path d="M9.33398 16.9577V9.84694M9.33398 9.84694V6.29155L20.0002 3.625V7.18039M9.33398 9.84694L20.0002 7.18039M20.0002 16.0689V7.18039" stroke-width="2" stroke-linecap="round" stroke-linejoin="round"/>
</svg>
