<svg xmlns="http://www.w3.org/2000/svg" viewBox="0 0 21 21" fill="none">
  <path d="M12.88 7.69125L9.12625 11.4538L7.6825 10.01C7.60406 9.9184 7.50753 9.84401 7.39898 9.79149C7.29042 9.73897 7.17218 9.70946 7.05168 9.7048C6.93117 9.70015 6.81101 9.72045 6.69872 9.76444C6.58644 9.80843 6.48446 9.87516 6.39918 9.96043C6.31391 10.0457 6.24719 10.1477 6.2032 10.26C6.15921 10.3723 6.1389 10.4924 6.14356 10.6129C6.14821 10.7334 6.17772 10.8517 6.23024 10.9602C6.28276 11.0688 6.35716 11.1653 6.44875 11.2438L8.505 13.3088C8.58676 13.3898 8.68373 13.454 8.79034 13.4976C8.89694 13.5411 9.0111 13.5632 9.12625 13.5625C9.3558 13.5615 9.57578 13.4704 9.73875 13.3088L14.1138 8.93375C14.1958 8.85241 14.2609 8.75563 14.3053 8.649C14.3497 8.54238 14.3726 8.42801 14.3726 8.3125C14.3726 8.19699 14.3497 8.08262 14.3053 7.976C14.2609 7.86937 14.1958 7.77259 14.1138 7.69125C13.9498 7.52828 13.728 7.43681 13.4969 7.43681C13.2657 7.43681 13.0439 7.52828 12.88 7.69125ZM10.5 1.75C8.76942 1.75 7.07769 2.26318 5.63876 3.22464C4.19983 4.1861 3.07832 5.55267 2.41606 7.15152C1.75379 8.75037 1.58051 10.5097 1.91813 12.207C2.25575 13.9044 3.08911 15.4635 4.31282 16.6872C5.53653 17.9109 7.09563 18.7443 8.79296 19.0819C10.4903 19.4195 12.2496 19.2462 13.8485 18.5839C15.4473 17.9217 16.8139 16.8002 17.7754 15.3612C18.7368 13.9223 19.25 12.2306 19.25 10.5C19.25 9.35093 19.0237 8.21312 18.584 7.15152C18.1442 6.08992 17.4997 5.12533 16.6872 4.31282C15.8747 3.5003 14.9101 2.85578 13.8485 2.41605C12.7869 1.97633 11.6491 1.75 10.5 1.75ZM10.5 17.5C9.11553 17.5 7.76216 17.0895 6.61101 16.3203C5.45987 15.5511 4.56266 14.4579 4.03285 13.1788C3.50303 11.8997 3.36441 10.4922 3.63451 9.13437C3.9046 7.7765 4.57129 6.52922 5.55026 5.55025C6.52922 4.57129 7.7765 3.9046 9.13437 3.6345C10.4922 3.36441 11.8997 3.50303 13.1788 4.03284C14.4579 4.56266 15.5511 5.45986 16.3203 6.61101C17.0895 7.76215 17.5 9.11553 17.5 10.5C17.5 12.3565 16.7625 14.137 15.4498 15.4497C14.137 16.7625 12.3565 17.5 10.5 17.5Z" />
</svg>